{"glyphs":{"0":{"ha":739,"x_min":68,"x_max":671,"o":"m 372 0 q 584 88 496 0 q 671 299 671 176 l 671 673 q 584 885 671 797 q 372 972 496 972 q 156 885 243 972 q 68 673 68 797 l 68 299 q 156 88 68 176 q 372 0 243 0 m 372 84 q 215 147 278 84 q 152 299 152 210 l 152 673 q 215 825 152 762 q 367 888 278 888 q 525 825 461 888 q 588 673 588 762 l 588 299 q 525 147 588 210 q 372 84 461 84 z "},"1":{"ha":520,"x_min":41,"x_max":385,"o":"m 342 0 q 372 12 360 0 q 385 42 385 24 l 385 777 q 327 915 385 857 q 189 972 269 972 l 83 972 q 53 960 65 972 q 41 930 41 947 q 53 901 41 913 q 83 888 65 888 l 189 888 q 268 856 235 888 q 300 777 300 823 l 300 42 q 313 12 300 24 q 342 0 326 0 z "},"2":{"ha":739,"x_min":68,"x_max":671,"o":"m 603 0 q 633 12 621 0 q 645 42 645 24 q 633 72 645 59 q 603 84 621 84 l 153 84 q 199 233 161 178 q 294 319 237 288 q 413 374 350 351 q 534 431 475 398 q 632 521 593 464 q 671 673 670 578 q 584 885 671 797 q 372 972 496 972 q 338 960 350 972 q 326 930 326 947 q 338 901 326 913 q 367 888 350 888 q 525 825 461 888 q 588 673 588 762 q 534 534 587 578 q 382 452 481 490 q 238 384 310 426 q 118 261 167 341 q 68 42 70 181 q 80 13 68 25 q 110 0 93 0 l 603 0 z "},"3":{"ha":739,"x_min":68,"x_max":671,"o":"m 410 0 l 330 0 q 144 77 221 0 q 68 263 68 153 q 80 294 68 281 q 110 306 92 306 q 139 294 127 306 q 152 263 152 281 q 204 136 152 189 q 330 84 256 84 l 410 84 q 536 136 484 84 q 588 262 588 189 q 536 392 588 340 q 410 444 484 444 l 370 444 q 340 456 353 444 q 328 486 328 469 q 340 516 328 503 q 370 528 353 528 l 410 528 q 536 581 484 528 q 588 706 588 633 q 536 836 588 784 q 410 888 484 888 l 330 888 q 300 901 312 888 q 288 930 288 913 q 300 960 288 947 q 330 972 312 972 l 410 972 q 595 896 518 972 q 671 706 671 819 q 639 579 671 637 q 552 486 606 522 q 639 393 606 450 q 671 267 671 335 q 595 77 671 153 q 410 0 518 0 z "},"4":{"ha":724,"x_min":68,"x_max":588,"o":"m 546 0 q 516 12 528 0 q 504 42 504 24 l 504 444 l 444 444 q 255 495 340 444 q 119 631 170 546 q 68 821 68 717 l 68 930 q 80 960 68 947 q 110 972 92 972 q 139 960 127 972 q 152 930 152 947 l 152 821 q 238 614 152 700 q 444 528 323 528 l 504 528 l 504 930 q 516 960 504 947 q 546 972 528 972 q 576 960 564 972 q 588 930 588 947 l 588 42 q 576 12 588 24 q 546 0 564 0 z "},"5":{"ha":739,"x_min":68,"x_max":671,"o":"m 399 0 l 340 0 q 148 80 227 0 q 68 273 68 159 q 80 307 68 294 q 110 319 92 319 q 139 307 127 319 q 152 277 152 294 q 207 139 152 195 q 340 84 262 84 l 399 84 q 533 139 477 84 q 588 273 588 195 q 533 410 588 355 q 399 465 477 465 l 338 465 q 309 477 321 465 q 296 507 296 490 q 309 537 296 525 q 338 549 321 549 l 399 549 q 592 469 512 549 q 671 277 671 389 q 592 80 671 159 q 399 0 512 0 m 578 888 l 183 888 q 154 901 166 888 q 142 930 142 913 q 154 960 142 947 q 183 972 166 972 l 578 972 q 607 960 595 972 q 619 930 619 947 q 607 901 619 913 q 578 888 595 888 z "},"6":{"ha":759,"x_min":68,"x_max":691,"o":"m 418 0 l 340 0 q 148 80 227 0 q 68 273 68 159 q 93 391 68 338 l 94 393 l 341 947 q 378 972 353 972 q 396 968 387 972 q 421 930 421 957 q 418 913 421 922 l 248 533 q 340 549 292 549 l 418 549 q 611 469 531 549 q 691 277 691 389 q 611 80 691 159 q 418 0 531 0 m 418 84 q 552 139 496 84 q 607 273 607 195 q 552 410 607 355 q 418 465 496 465 l 340 465 q 207 410 262 465 q 152 277 152 355 q 207 139 152 195 q 340 84 262 84 l 418 84 z "},"7":{"ha":576,"x_min":41,"x_max":535,"o":"m 83 0 q 119 21 106 1 l 515 708 q 535 791 535 747 q 507 887 535 840 q 352 972 446 972 l 83 972 q 53 960 65 972 q 41 930 41 947 q 53 901 41 913 q 83 888 65 888 l 352 888 q 435 842 404 888 q 451 790 451 817 q 441 749 451 770 l 46 63 q 41 42 41 53 q 62 5 41 19 q 83 0 72 0 z "},"8":{"ha":759,"x_min":68,"x_max":691,"o":"m 418 0 l 340 0 q 311 12 323 0 q 298 42 298 24 q 311 72 298 59 q 340 84 323 84 l 418 84 q 552 139 496 84 q 607 273 607 195 q 552 410 607 355 q 418 465 496 465 l 340 465 q 207 410 262 465 q 152 277 152 355 q 139 243 152 255 q 110 231 127 231 q 80 243 92 231 q 68 273 68 255 q 107 418 68 355 q 212 517 146 481 q 115 717 115 595 q 187 899 115 825 q 360 972 259 972 l 429 972 q 459 960 447 972 q 471 930 471 947 q 459 901 471 913 q 429 888 447 888 l 360 888 q 246 839 294 888 q 199 721 199 790 q 246 598 199 648 q 360 549 294 549 l 429 549 q 543 598 496 549 q 591 717 591 648 q 603 751 591 739 q 633 763 615 763 q 662 751 650 763 q 674 719 674 739 q 644 596 674 651 q 564 507 614 541 q 656 410 622 470 q 691 277 691 349 q 611 80 691 159 q 418 0 531 0 z "},"9":{"ha":759,"x_min":68,"x_max":691,"o":"m 379 0 q 362 3 371 0 q 338 42 338 16 q 341 59 338 50 l 511 439 q 418 423 467 423 l 340 423 q 148 503 227 423 q 68 695 68 583 q 148 892 68 812 q 340 972 227 972 l 418 972 q 611 892 531 972 q 691 700 691 812 q 666 581 691 634 q 665 579 665 581 l 418 25 q 379 0 404 0 m 418 507 q 552 562 496 507 q 607 695 607 617 q 552 833 607 778 q 418 888 496 888 l 340 888 q 207 833 262 888 q 152 700 152 778 q 207 562 152 617 q 340 507 262 507 l 418 507 z "},"\u0000":{"ha":0,"x_min":0,"x_max":0,"o":""},"\u001d":{"ha":0,"x_min":0,"x_max":0,"o":""}," ":{"ha":345,"x_min":0,"x_max":0,"o":""}," ":{"ha":345,"x_min":0,"x_max":0,"o":""},"!":{"ha":523,"x_min":136,"x_max":387,"o":"m 262 0 q 173 37 210 0 q 136 126 136 74 q 173 215 136 178 q 262 252 210 252 q 350 215 313 252 q 387 126 387 178 q 350 37 387 74 q 262 0 313 0 m 262 84 q 291 96 279 84 q 303 126 303 109 q 291 155 303 143 q 262 168 279 168 q 232 155 244 168 q 220 126 220 143 q 232 96 220 109 q 262 84 244 84 m 262 330 q 232 343 244 330 q 220 372 220 355 l 220 930 q 232 960 220 947 q 262 972 244 972 q 291 960 279 972 q 303 930 303 947 l 303 372 q 291 343 303 355 q 262 330 279 330 z "},"\"":{"ha":383,"x_min":68,"x_max":315,"o":"m 110 689 q 80 701 92 689 q 68 731 68 713 l 68 930 q 80 960 68 948 q 110 972 92 972 q 139 960 127 972 q 152 930 152 948 l 152 731 q 139 701 152 713 q 110 689 127 689 m 273 689 q 243 701 256 689 q 231 731 231 713 l 231 930 q 243 960 231 948 q 273 972 256 972 q 303 960 291 972 q 315 930 315 948 l 315 731 q 303 701 315 713 q 273 689 291 689 z "},"#":{"ha":996,"x_min":68,"x_max":928,"o":"m 598 0 q 563 19 575 0 q 557 41 557 29 q 601 252 557 47 l 269 252 l 222 33 q 207 9 218 18 q 181 0 195 0 q 146 19 158 0 q 140 41 140 29 q 184 252 140 47 l 110 252 q 80 264 92 252 q 68 294 68 276 q 80 323 68 311 q 110 335 92 335 l 202 335 l 267 636 l 223 636 q 193 649 205 636 q 181 678 181 661 q 193 708 181 696 q 223 720 205 720 l 286 720 l 333 939 q 351 966 337 957 q 374 972 361 972 q 409 953 397 972 q 416 930 416 943 q 371 720 416 926 l 703 720 l 750 939 q 768 966 754 957 q 791 972 779 972 q 827 953 814 972 q 833 931 833 943 q 789 720 833 926 l 886 720 q 915 708 903 720 q 928 678 928 696 q 915 649 928 661 q 886 636 903 636 l 770 636 l 705 335 l 768 335 q 798 323 785 335 q 810 294 810 311 q 798 264 810 276 q 768 252 785 252 l 686 252 l 640 33 q 624 9 635 18 q 598 0 613 0 m 619 335 l 684 636 l 353 636 l 288 335 l 619 335 z "},"$":{"ha":739,"x_min":68,"x_max":671,"o":"m 370 -103 q 340 -91 352 -103 q 328 -61 328 -79 l 328 450 q 205 485 264 461 q 107 559 146 509 q 68 703 68 610 q 141 875 68 802 q 328 964 215 948 l 328 1022 q 340 1052 328 1040 q 370 1064 352 1064 q 399 1052 387 1064 q 412 1022 412 1040 l 412 518 q 534 481 475 506 q 632 405 593 456 q 671 258 671 353 q 598 86 671 159 q 412 -3 524 13 l 412 -61 q 399 -91 412 -79 q 370 -103 387 -103 m 328 535 l 328 879 q 201 817 251 865 q 152 703 152 768 q 197 585 152 618 q 328 535 243 551 m 412 82 q 538 144 488 95 q 587 258 587 193 q 542 380 587 345 q 412 432 496 415 l 412 82 z "},"%":{"ha":1078,"x_min":68,"x_max":1010,"o":"m 290 528 q 133 593 198 528 q 68 750 68 658 q 133 907 68 842 q 290 972 198 972 q 447 907 382 972 q 512 750 512 842 q 447 593 512 658 q 290 528 382 528 m 290 612 q 388 652 347 612 q 428 750 428 693 q 388 848 428 807 q 290 888 347 888 q 192 848 233 888 q 152 750 152 807 q 192 652 152 693 q 290 612 233 612 m 789 0 q 631 65 696 0 q 566 222 566 130 q 631 379 566 314 q 789 444 696 444 q 945 379 880 444 q 1010 222 1010 314 q 945 65 1010 130 q 789 0 880 0 m 789 84 q 886 124 846 84 q 927 222 927 165 q 886 320 927 279 q 789 360 846 360 q 691 320 732 360 q 650 222 650 279 q 691 124 650 165 q 789 84 732 84 m 248 0 q 224 7 236 0 q 206 43 206 20 q 212 65 206 54 l 795 954 q 831 972 809 972 q 854 966 842 972 q 872 930 872 952 q 865 907 872 918 l 283 19 q 248 0 268 0 z "},"&":{"ha":739,"x_min":68,"x_max":671,"o":"m 370 0 q 156 77 245 0 q 68 264 68 155 q 101 400 68 351 q 186 474 134 449 q 294 512 237 500 q 111 679 113 677 q 107 683 109 680 q 103 689 104 686 q 100 696 101 692 q 99 702 99 699 q 98 707 98 705 l 98 710 q 181 897 100 820 q 374 972 260 972 q 568 896 486 971 q 649 708 649 814 q 624 584 649 632 q 557 509 598 536 q 469 467 517 481 l 659 294 q 663 290 661 292 q 667 283 665 287 q 670 277 669 280 q 671 270 671 273 q 671 265 671 267 l 671 262 q 581 75 670 153 q 370 0 494 0 m 395 534 q 521 586 477 551 q 565 708 565 621 q 509 835 565 780 q 374 888 451 888 q 245 842 299 888 q 183 726 192 796 l 395 534 m 370 84 q 515 130 454 84 q 587 246 576 176 l 370 443 q 249 411 290 426 q 177 361 201 394 q 152 264 152 328 q 216 137 152 189 q 370 84 279 84 z "},"'":{"ha":220,"x_min":68,"x_max":151,"o":"m 110 689 q 80 701 92 689 q 68 731 68 713 l 68 930 q 80 960 68 948 q 110 972 92 972 q 139 960 127 972 q 151 930 151 948 l 151 731 q 139 701 151 713 q 110 689 127 689 z "},"(":{"ha":373,"x_min":68,"x_max":332,"o":"m 290 0 q 320 12 307 0 q 332 42 332 24 q 320 72 332 59 q 289 84 307 84 q 192 124 232 84 q 152 220 152 164 l 152 752 q 192 848 152 808 q 289 888 232 888 q 320 901 307 888 q 332 930 332 913 q 320 960 332 947 q 289 972 307 972 q 133 908 197 972 q 68 752 68 843 l 68 220 q 133 65 68 130 q 290 0 197 0 z "},")":{"ha":373,"x_min":41,"x_max":305,"o":"m 83 0 q 240 65 176 0 q 305 220 305 130 l 305 752 q 240 908 305 843 q 83 972 176 972 q 53 960 65 972 q 41 930 41 947 q 53 901 41 913 q 83 888 65 888 q 181 848 141 888 q 221 752 221 808 l 221 220 q 181 124 221 164 q 83 84 141 84 q 53 72 65 84 q 41 42 41 59 q 53 12 41 24 q 83 0 65 0 z "},"*":{"ha":361,"x_min":68,"x_max":293,"o":"m 251 747 q 221 760 235 747 l 180 800 l 140 760 q 110 747 126 747 q 80 760 94 747 q 68 789 68 773 q 80 819 68 806 l 121 860 l 80 901 q 68 930 68 914 q 80 960 68 947 q 110 972 94 972 q 140 960 126 972 l 180 919 l 221 960 q 251 972 235 972 q 281 960 267 972 q 293 930 293 947 q 281 901 293 914 l 239 860 l 281 819 q 293 789 293 806 q 281 760 293 773 q 251 747 267 747 z "},"+":{"ha":507,"x_min":68,"x_max":439,"o":"m 254 300 q 224 312 236 300 q 212 342 212 325 l 212 444 l 110 444 q 80 456 92 444 q 68 486 68 468 q 80 515 68 503 q 110 528 92 528 l 212 528 l 212 629 q 224 659 212 646 q 254 671 236 671 q 283 659 271 671 q 295 629 295 646 l 295 528 l 397 528 q 427 515 414 528 q 439 486 439 503 q 427 456 439 468 q 397 444 414 444 l 295 444 l 295 342 q 283 312 295 325 q 254 300 271 300 z "},",":{"ha":387,"x_min":68,"x_max":319,"o":"m 218 -108 q 181 -85 193 -108 q 176 -66 176 -76 q 187 -26 176 -60 q 195 -1 195 -2 l 194 -1 q 105 36 142 -1 q 68 125 68 73 q 105 215 68 178 q 194 252 142 252 q 282 215 245 252 q 319 125 319 178 q 308 73 319 97 l 258 -79 q 218 -108 245 -108 m 194 83 q 223 96 211 83 q 235 125 235 108 q 223 155 235 142 q 194 167 211 167 q 164 155 176 167 q 152 125 152 142 q 164 96 152 108 q 194 83 176 83 z "},"-":{"ha":507,"x_min":68,"x_max":439,"o":"m 110 444 q 80 456 92 444 q 68 486 68 468 q 80 515 68 503 q 110 528 92 528 l 397 528 q 427 515 414 528 q 439 486 439 503 q 427 456 439 468 q 397 444 414 444 l 110 444 z "},"­":{"ha":507,"x_min":68,"x_max":439,"o":"m 110 444 q 80 456 92 444 q 68 486 68 468 q 80 515 68 503 q 110 528 92 528 l 397 528 q 427 515 414 528 q 439 486 439 503 q 427 456 439 468 q 397 444 414 444 l 110 444 z "},".":{"ha":387,"x_min":68,"x_max":319,"o":"m 194 0 q 282 37 245 0 q 319 126 319 74 q 282 215 319 178 q 194 252 245 252 q 105 215 142 252 q 68 126 68 178 q 105 37 68 74 q 194 0 142 0 m 194 84 q 164 96 176 84 q 152 126 152 109 q 164 155 152 143 q 194 168 176 168 q 223 155 211 168 q 235 126 235 143 q 223 96 235 109 q 194 84 211 84 z "},"/":{"ha":562,"x_min":41,"x_max":521,"o":"m 83 0 q 121 25 106 0 l 517 913 q 521 930 521 922 q 496 968 521 956 q 479 972 487 972 q 441 947 452 972 l 44 59 q 41 42 41 50 q 66 3 41 16 q 83 0 74 0 z "},":":{"ha":387,"x_min":68,"x_max":319,"o":"m 194 526 q 282 563 245 526 q 319 652 319 600 q 282 741 319 704 q 194 777 245 777 q 105 741 142 777 q 68 652 68 704 q 105 563 68 600 q 194 526 142 526 m 194 610 q 164 622 176 610 q 152 652 152 634 q 164 681 152 669 q 194 694 176 694 q 223 681 211 694 q 235 652 235 669 q 223 622 235 634 q 194 610 211 610 m 194 191 q 282 227 245 191 q 319 316 319 264 q 282 405 319 368 q 194 442 245 442 q 105 405 142 442 q 68 316 68 368 q 105 227 68 264 q 194 191 142 191 m 194 274 q 164 287 176 274 q 152 316 152 299 q 164 346 152 334 q 194 358 176 358 q 223 346 211 358 q 235 316 235 334 q 223 287 235 299 q 194 274 211 274 z "},";":{"ha":387,"x_min":68,"x_max":319,"o":"m 194 526 q 282 563 245 526 q 319 652 319 600 q 282 741 319 704 q 194 777 245 777 q 105 741 142 777 q 68 652 68 704 q 105 563 68 600 q 194 526 142 526 m 194 610 q 164 622 176 610 q 152 652 152 634 q 164 681 152 669 q 194 694 176 694 q 223 681 211 694 q 235 652 235 669 q 223 622 235 634 q 194 610 211 610 m 218 83 q 181 106 193 83 q 176 124 176 115 q 187 164 176 131 q 195 191 195 189 l 194 190 q 105 227 142 190 q 68 316 68 264 q 105 405 68 368 q 194 442 142 442 q 282 405 245 442 q 319 316 319 368 q 308 263 319 288 l 258 112 q 218 83 245 83 m 194 275 q 223 287 211 275 q 235 316 235 299 q 223 346 235 334 q 194 358 211 358 q 164 346 176 358 q 152 316 152 334 q 164 287 152 299 q 194 275 176 275 z "},";":{"ha":387,"x_min":68,"x_max":319,"o":"m 194 526 q 282 563 245 526 q 319 652 319 600 q 282 741 319 704 q 194 777 245 777 q 105 741 142 777 q 68 652 68 704 q 105 563 68 600 q 194 526 142 526 m 194 610 q 164 622 176 610 q 152 652 152 634 q 164 681 152 669 q 194 694 176 694 q 223 681 211 694 q 235 652 235 669 q 223 622 235 634 q 194 610 211 610 m 218 83 q 181 106 193 83 q 176 124 176 115 q 187 164 176 131 q 195 191 195 189 l 194 190 q 105 227 142 190 q 68 316 68 264 q 105 405 68 368 q 194 442 142 442 q 282 405 245 442 q 319 316 319 368 q 308 263 319 288 l 258 112 q 218 83 245 83 m 194 275 q 223 287 211 275 q 235 316 235 299 q 223 346 235 334 q 194 358 211 358 q 164 346 176 358 q 152 316 152 334 q 164 287 152 299 q 194 275 176 275 z "},"<":{"ha":518,"x_min":68,"x_max":450,"o":"m 408 266 q 445 286 430 266 q 450 307 450 297 q 430 344 450 331 l 192 486 l 430 627 q 450 664 450 640 q 445 685 450 675 q 408 706 432 706 q 387 700 397 706 l 88 522 q 68 486 68 508 q 88 450 68 464 l 387 272 q 408 266 397 266 z "},"=":{"ha":507,"x_min":68,"x_max":439,"o":"m 110 579 q 80 591 92 579 q 68 621 68 604 q 80 651 68 639 q 110 663 92 663 l 397 663 q 427 651 414 663 q 439 621 439 639 q 427 591 439 604 q 397 579 414 579 l 110 579 m 110 308 q 80 320 92 308 q 68 350 68 332 q 80 380 68 368 q 110 392 92 392 l 397 392 q 427 380 414 392 q 439 350 439 368 q 427 320 439 332 q 397 308 414 308 l 110 308 z "},">":{"ha":518,"x_min":68,"x_max":450,"o":"m 110 266 q 131 272 121 266 l 430 450 q 450 486 450 464 q 430 522 450 508 l 131 700 q 111 706 121 706 q 73 685 86 706 q 68 664 68 675 q 88 627 68 640 l 326 486 l 88 344 q 68 307 68 331 q 73 286 68 297 q 110 266 88 266 z "},"?":{"ha":618,"x_min":68,"x_max":550,"o":"m 309 0 q 220 37 257 0 q 183 126 183 74 q 220 215 183 178 q 309 252 257 252 q 398 215 361 252 q 435 126 435 178 q 398 37 435 74 q 309 0 361 0 m 309 84 q 338 96 326 84 q 351 126 351 109 q 338 155 351 143 q 309 168 326 168 q 279 155 292 168 q 267 126 267 143 q 279 96 267 109 q 309 84 292 84 m 309 330 q 279 343 292 330 q 267 372 267 355 q 284 464 267 425 q 328 531 302 502 q 380 584 353 559 q 441 648 417 616 q 466 731 466 680 q 420 842 466 796 q 309 888 374 888 q 198 842 244 888 q 152 731 152 796 q 139 702 152 714 q 110 689 127 689 q 80 702 92 689 q 68 731 68 714 q 139 902 68 831 q 309 972 210 972 q 479 902 409 972 q 550 731 550 831 q 533 641 550 679 q 490 575 516 604 q 437 522 465 547 q 375 457 400 490 q 351 372 351 425 q 338 343 351 355 q 309 330 326 330 z "},"@":{"ha":1107,"x_min":68,"x_max":1040,"o":"m 554 0 q 310 66 420 0 q 134 242 199 132 q 68 486 68 352 q 134 730 68 620 q 310 906 199 840 q 554 972 420 972 q 798 906 688 972 q 974 730 908 840 q 1040 486 1040 620 q 974 242 1040 352 q 798 66 908 132 q 554 0 688 0 m 554 84 q 756 138 665 84 q 901 284 847 193 q 956 486 956 375 q 901 688 956 597 q 756 833 847 779 q 554 888 665 888 q 352 833 443 888 q 206 688 260 779 q 152 486 152 597 q 206 284 152 375 q 352 138 260 193 q 554 84 443 84 m 746 252 q 716 264 728 252 q 704 294 704 276 l 704 307 q 554 252 640 252 q 388 320 457 252 q 319 486 319 389 q 388 651 319 583 q 554 720 457 720 q 704 665 640 720 l 704 678 q 716 708 704 696 q 746 720 728 720 q 776 708 764 720 q 788 678 788 696 l 788 294 q 776 264 788 276 q 746 252 764 252 m 554 336 q 660 380 616 336 q 704 486 704 424 q 660 592 704 548 q 554 636 616 636 q 448 592 492 636 q 404 486 404 548 q 448 380 404 424 q 554 336 492 336 z "},"A":{"ha":951,"x_min":68,"x_max":884,"o":"m 842 0 q 857 3 850 0 q 884 41 884 14 q 880 58 884 50 l 515 946 q 475 972 501 972 q 437 946 450 972 l 71 58 q 68 41 68 50 q 94 3 68 14 q 111 0 102 0 q 149 26 137 0 l 475 820 l 803 26 q 842 0 817 0 z "},"B":{"ha":848,"x_min":136,"x_max":739,"o":"m 477 0 l 178 0 q 148 12 160 0 q 136 42 136 24 l 136 486 q 148 516 136 503 q 178 528 160 528 l 477 528 q 604 581 551 528 q 656 706 656 633 q 604 836 656 784 q 477 888 551 888 l 178 888 q 148 901 160 888 q 136 930 136 913 q 148 960 136 947 q 178 972 160 972 l 477 972 q 663 896 586 972 q 739 706 739 819 q 707 579 739 637 q 620 486 674 522 q 707 393 674 450 q 739 267 739 335 q 663 77 739 153 q 477 0 586 0 m 477 84 q 604 136 551 84 q 656 267 656 189 q 604 392 656 340 q 477 444 551 444 l 220 444 l 220 84 l 477 84 z "},"C":{"ha":998,"x_min":68,"x_max":910,"o":"m 554 0 q 897 142 749 0 q 910 172 910 156 q 897 201 910 188 q 868 214 884 214 q 838 201 852 214 q 554 84 715 84 q 269 201 393 84 q 152 486 152 322 q 171 614 152 537 q 269 770 191 690 q 554 888 389 888 q 682 869 605 888 q 838 770 758 849 q 868 758 852 758 q 897 770 884 758 q 910 800 910 784 q 897 830 910 817 q 677 956 800 924 q 554 972 616 972 q 400 948 492 972 q 210 830 307 924 q 68 486 68 685 q 92 332 68 425 q 210 142 115 239 q 554 0 359 0 z "},"D":{"ha":1008,"x_min":136,"x_max":941,"o":"m 459 0 q 701 65 592 0 q 876 239 810 130 q 941 481 941 349 q 876 733 941 623 q 701 907 810 842 q 459 972 592 972 l 178 972 q 148 960 160 972 q 136 930 136 947 q 148 901 136 913 q 178 888 160 888 l 459 888 q 659 834 569 888 q 803 690 749 781 q 857 490 857 600 q 803 282 857 372 q 659 138 749 191 q 459 84 569 84 l 178 84 q 148 72 160 84 q 136 42 136 59 q 148 12 136 24 q 178 0 160 0 l 459 0 z "},"E":{"ha":848,"x_min":122,"x_max":726,"o":"m 684 0 l 164 0 q 134 12 146 0 q 122 42 122 24 q 134 72 122 59 q 164 84 146 84 l 684 84 q 713 72 701 84 q 726 42 726 59 q 713 12 726 24 q 684 0 701 0 m 684 888 l 164 888 q 134 901 146 888 q 122 930 122 913 q 134 960 122 947 q 164 972 146 972 l 684 972 q 713 960 701 972 q 726 930 726 947 q 713 901 726 913 q 684 888 701 888 m 684 444 l 164 444 q 134 456 146 444 q 122 486 122 469 q 134 516 122 503 q 164 528 146 528 l 684 528 q 713 516 701 528 q 726 486 726 503 q 713 456 726 469 q 684 444 701 444 z "},"F":{"ha":807,"x_min":136,"x_max":739,"o":"m 698 888 l 178 888 q 148 901 160 888 q 136 930 136 913 q 148 960 136 947 q 178 972 160 972 l 698 972 q 727 960 715 972 q 739 930 739 947 q 727 901 739 913 q 698 888 715 888 m 178 0 q 148 12 160 0 q 136 42 136 24 l 136 486 q 148 516 136 503 q 178 528 160 528 l 698 528 q 727 516 715 528 q 739 486 739 503 q 727 456 739 469 q 698 444 715 444 l 220 444 l 220 42 q 207 12 220 24 q 178 0 195 0 z "},"G":{"ha":998,"x_min":68,"x_max":910,"o":"m 554 0 q 210 142 359 0 q 68 486 68 288 q 92 641 68 548 q 210 830 115 733 q 431 956 307 924 q 554 972 492 972 q 708 948 616 972 q 897 830 800 924 q 910 800 910 817 q 897 770 910 784 q 868 758 884 758 q 838 770 852 758 q 554 888 719 888 q 426 869 503 888 q 269 770 349 849 q 152 486 152 651 q 171 359 152 435 q 269 201 191 282 q 554 84 393 84 q 826 190 707 84 l 826 367 q 838 397 826 385 q 868 409 850 409 q 898 397 885 409 q 910 367 910 385 l 910 172 l 909 165 l 909 164 l 909 162 l 908 161 l 907 157 l 906 155 l 906 154 l 905 154 l 904 151 q 903 150 903 151 q 903 149 903 149 l 901 147 l 901 146 q 900 145 901 146 q 897 142 899 144 q 554 0 749 0 z "},"H":{"ha":917,"x_min":136,"x_max":781,"o":"m 739 0 q 710 12 722 0 q 698 42 698 24 l 698 930 q 710 960 698 947 q 739 972 722 972 q 769 960 757 972 q 781 930 781 947 l 781 42 q 769 12 781 24 q 739 0 757 0 m 178 0 q 148 12 160 0 q 136 42 136 24 l 136 930 q 148 960 136 947 q 178 972 160 972 q 207 960 195 972 q 220 930 220 947 l 220 533 l 458 533 q 488 521 476 533 q 500 491 500 509 q 488 461 500 473 q 458 449 476 449 l 220 449 l 220 42 q 207 12 220 24 q 178 0 195 0 z "},"I":{"ha":355,"x_min":136,"x_max":220,"o":"m 178 0 q 208 12 195 0 q 220 42 220 24 l 220 930 q 208 960 220 948 q 178 972 195 972 q 148 960 160 972 q 136 930 136 948 l 136 42 q 148 12 136 24 q 178 0 160 0 z "},"J":{"ha":807,"x_min":68,"x_max":671,"o":"m 385 0 q 587 84 503 0 q 671 288 671 169 l 671 930 q 659 960 671 947 q 630 972 647 972 q 600 960 612 972 q 588 930 588 947 l 588 288 q 528 144 588 203 q 385 84 469 84 l 353 84 q 211 143 270 84 q 152 286 152 202 q 139 317 152 305 q 110 330 127 330 q 80 317 92 330 q 68 286 68 305 q 152 84 68 168 q 353 0 235 0 l 385 0 z "},"K":{"ha":933,"x_min":136,"x_max":865,"o":"m 178 0 q 148 12 160 0 q 136 42 136 24 l 136 930 q 148 960 136 947 q 178 972 160 972 q 207 960 195 972 q 220 930 220 947 l 220 42 q 207 12 220 24 q 178 0 195 0 m 823 1 q 791 15 805 1 l 411 458 q 401 486 401 471 q 411 513 401 500 l 791 958 q 823 972 805 972 q 850 962 838 972 q 865 930 865 949 q 855 903 865 916 l 498 486 l 855 70 q 865 43 865 58 q 865 32 865 41 q 851 12 864 22 q 823 1 838 1 z "},"L":{"ha":739,"x_min":136,"x_max":671,"o":"m 629 0 q 659 12 647 0 q 671 42 671 24 q 659 72 671 59 q 629 84 647 84 l 220 84 l 220 930 q 207 960 220 947 q 178 972 195 972 q 148 960 160 972 q 136 930 136 947 l 136 42 q 148 12 136 24 q 178 0 160 0 l 629 0 z "},"M":{"ha":1278,"x_min":136,"x_max":1142,"o":"m 178 0 q 148 12 160 0 q 136 42 136 24 l 136 930 q 165 970 136 958 q 178 972 172 972 q 213 954 199 972 l 639 298 l 1065 954 q 1101 972 1078 972 q 1123 966 1112 972 q 1142 930 1142 953 q 1135 907 1142 919 l 674 198 q 639 179 660 179 q 604 198 618 179 l 220 789 l 220 42 q 207 12 220 24 q 178 0 195 0 z "},"N":{"ha":974,"x_min":136,"x_max":838,"o":"m 796 0 q 809 2 802 0 q 838 42 838 14 l 838 930 q 826 960 838 947 q 796 972 814 972 q 767 960 779 972 q 754 930 754 947 l 754 176 l 212 954 q 178 972 198 972 q 165 970 172 972 q 136 930 136 958 l 136 42 q 148 12 136 24 q 178 0 160 0 q 207 12 195 0 q 220 42 220 24 l 220 797 l 762 18 q 796 0 776 0 z "},"O":{"ha":1107,"x_min":68,"x_max":1040,"o":"m 554 0 q 798 66 688 0 q 974 242 908 132 q 1040 486 1040 352 q 974 730 1040 620 q 798 906 908 840 q 554 972 688 972 q 524 960 536 972 q 512 930 512 947 q 524 900 512 913 q 554 888 536 888 q 756 833 665 888 q 901 688 847 779 q 956 486 956 597 q 901 284 956 375 q 756 138 847 193 q 554 84 665 84 q 352 138 443 84 q 206 284 260 193 q 152 486 152 375 q 139 515 152 503 q 110 528 127 528 q 80 515 92 528 q 68 486 68 503 q 134 242 68 352 q 310 66 199 132 q 554 0 420 0 z "},"P":{"ha":807,"x_min":136,"x_max":739,"o":"m 178 0 q 148 12 160 0 q 136 42 136 24 l 136 486 q 148 516 136 503 q 178 528 160 528 l 477 528 q 604 581 551 528 q 656 706 656 633 q 604 836 656 784 q 477 888 551 888 l 178 888 q 148 901 160 888 q 136 930 136 913 q 148 960 136 947 q 178 972 160 972 l 477 972 q 663 896 586 972 q 739 711 739 819 q 663 521 739 597 q 477 444 586 444 l 220 444 l 220 42 q 207 12 220 24 q 178 0 195 0 z "},"Q":{"ha":1107,"x_min":68,"x_max":1040,"o":"m 554 -188 q 524 -175 536 -188 q 512 -146 512 -163 l 512 2 q 287 81 387 14 q 127 254 186 148 q 68 486 68 359 q 80 516 68 504 q 110 528 92 528 q 139 516 127 528 q 152 486 152 504 q 254 218 152 331 q 512 87 357 106 l 512 176 q 524 205 512 193 q 554 218 536 218 q 583 205 571 218 q 595 176 595 193 l 595 87 q 853 218 751 106 q 956 486 956 331 q 901 689 956 597 q 756 834 847 780 q 554 888 665 888 q 524 901 536 888 q 512 930 512 913 q 524 960 512 948 q 554 972 536 972 q 798 907 688 972 q 974 731 908 841 q 1040 486 1040 621 q 980 254 1040 359 q 821 81 921 148 q 595 2 721 14 l 595 -146 q 583 -175 595 -163 q 554 -188 571 -188 z "},"R":{"ha":821,"x_min":136,"x_max":739,"o":"m 178 0 q 148 12 160 0 q 136 42 136 24 l 136 486 q 148 516 136 503 q 178 528 160 528 l 477 528 q 604 581 551 528 q 656 706 656 633 q 604 836 656 784 q 477 888 551 888 l 178 888 q 148 901 160 888 q 136 930 136 913 q 148 960 136 947 q 178 972 160 972 l 477 972 q 663 896 586 972 q 739 711 739 819 q 663 521 739 597 q 477 444 586 444 l 220 444 l 220 42 q 207 12 220 24 q 178 0 195 0 m 685 0 q 647 24 661 0 l 521 296 q 517 314 517 305 q 541 351 517 339 q 559 355 549 355 q 597 331 584 355 l 723 60 q 727 42 727 51 q 703 4 727 16 q 685 0 694 0 z "},"S":{"ha":848,"x_min":122,"x_max":726,"o":"m 424 0 q 394 12 407 0 q 382 42 382 24 q 394 72 382 59 q 424 84 407 84 q 578 137 514 84 q 642 264 642 189 q 615 365 642 330 q 538 417 589 399 q 414 449 487 435 q 313 472 364 458 q 219 512 262 486 q 149 586 176 539 q 122 708 122 633 q 211 895 122 817 q 424 972 299 972 q 454 960 441 972 q 466 930 466 947 q 454 901 466 913 q 424 888 441 888 q 270 836 334 888 q 206 708 206 783 q 232 612 206 645 q 308 561 258 578 q 430 531 358 544 q 532 508 480 522 q 627 466 583 493 q 699 390 671 438 q 726 264 726 342 q 637 77 726 155 q 424 0 549 0 z "},"T":{"ha":878,"x_min":68,"x_max":481,"o":"m 439 0 q 409 12 422 0 q 397 42 397 24 l 397 888 l 110 888 q 80 900 92 888 q 68 930 68 913 q 80 960 68 947 q 110 972 92 972 l 439 972 q 469 960 456 972 q 481 930 481 947 l 481 42 q 469 12 481 24 q 439 0 456 0 z "},"U":{"ha":869,"x_min":109,"x_max":760,"o":"m 437 0 q 665 95 570 0 q 760 323 760 189 l 760 930 q 748 960 760 947 q 718 972 735 972 q 688 960 701 972 q 676 930 676 947 l 676 323 q 606 154 676 224 q 437 84 536 84 q 262 154 332 84 q 193 323 193 224 l 193 930 q 180 960 193 947 q 151 972 168 972 q 121 960 133 972 q 109 930 109 947 l 109 323 q 203 95 109 189 q 437 0 298 0 z "},"V":{"ha":951,"x_min":68,"x_max":884,"o":"m 475 0 q 515 26 501 0 l 880 914 q 884 931 884 923 q 857 969 884 958 q 841 972 849 972 q 803 946 814 972 l 475 152 l 149 946 q 111 972 136 972 q 94 969 102 972 q 68 931 68 958 q 71 914 68 923 l 437 26 q 475 0 450 0 z "},"W":{"ha":1278,"x_min":136,"x_max":1142,"o":"m 1101 0 q 1126 9 1114 0 q 1142 42 1142 22 q 1133 68 1142 56 l 672 658 q 639 673 659 673 q 606 658 620 673 l 220 163 l 220 930 q 207 960 220 947 q 178 972 195 972 q 148 960 160 972 q 136 930 136 947 l 136 42 q 164 2 136 15 q 178 0 171 0 q 211 16 197 0 l 639 564 l 1067 16 q 1101 0 1080 0 z "},"X":{"ha":871,"x_min":95,"x_max":777,"o":"m 734 0 q 700 18 714 0 l 435 411 l 172 18 q 137 0 157 0 q 113 7 125 0 q 95 42 95 20 q 102 65 95 54 l 385 486 l 102 907 q 95 930 95 918 q 113 965 95 952 q 138 972 125 972 q 151 970 141 972 q 172 954 161 968 l 769 65 q 777 41 777 54 q 758 7 777 20 q 734 0 747 0 z "},"Y":{"ha":817,"x_min":68,"x_max":749,"o":"m 408 444 q 374 463 388 444 l 75 907 q 68 930 68 918 q 86 965 68 952 q 111 972 98 972 q 124 970 114 972 q 144 954 134 968 l 408 562 l 673 954 q 707 972 686 972 q 731 965 719 972 q 749 931 749 952 q 742 907 749 919 l 444 463 q 408 444 429 444 m 408 0 q 379 12 391 0 q 367 42 367 24 l 367 311 q 379 340 367 328 q 408 353 391 353 q 438 340 426 353 q 450 311 450 328 l 450 42 q 438 12 450 24 q 408 0 426 0 z "},"Z":{"ha":834,"x_min":115,"x_max":720,"o":"m 677 0 q 707 12 694 0 q 719 42 719 24 q 707 72 719 59 q 677 84 694 84 l 231 84 l 713 909 q 720 930 720 920 q 713 951 720 941 q 677 972 700 972 l 157 972 q 127 960 140 972 q 115 930 115 947 q 127 901 115 913 q 157 888 140 888 l 604 888 l 121 63 q 115 42 115 53 q 121 21 115 32 q 157 0 135 0 l 677 0 z "},"[":{"ha":441,"x_min":136,"x_max":400,"o":"m 358 0 q 388 12 375 0 q 400 42 400 24 q 388 72 400 59 q 358 84 375 84 l 220 84 l 220 888 l 358 888 q 388 901 375 888 q 400 930 400 913 q 388 960 400 947 q 358 972 375 972 l 178 972 q 148 960 160 972 q 136 930 136 947 l 136 42 q 148 12 136 24 q 178 0 160 0 l 358 0 z "},"\\":{"ha":562,"x_min":40,"x_max":521,"o":"m 479 0 q 496 3 488 0 q 521 42 521 16 q 517 59 521 50 l 121 947 q 83 972 109 972 q 66 968 74 972 q 40 930 40 956 q 44 913 40 922 l 441 25 q 479 0 455 0 z "},"]":{"ha":441,"x_min":41,"x_max":305,"o":"m 83 0 l 263 0 q 293 12 280 0 q 305 42 305 24 l 305 930 q 293 960 305 947 q 263 972 280 972 l 83 972 q 53 960 65 972 q 41 930 41 947 q 53 901 41 913 q 83 888 65 888 l 221 888 l 221 84 l 83 84 q 53 72 65 84 q 41 42 41 59 q 53 12 41 24 q 83 0 65 0 z "},"^":{"ha":521,"x_min":41,"x_max":480,"o":"m 41 632 q 61 595 41 610 q 82 590 71 590 q 119 610 106 590 l 260 848 l 402 610 q 439 590 415 590 q 460 595 449 590 q 480 633 480 608 q 475 653 480 643 l 296 952 q 260 972 283 972 q 224 952 239 972 l 47 653 q 41 632 41 643 z "},"_":{"ha":778,"x_min":68,"x_max":710,"o":"m 110 -83 q 80 -71 92 -83 q 68 -42 68 -59 q 80 -12 68 -24 q 110 0 92 0 l 668 0 q 698 -12 686 0 q 710 -42 710 -24 q 698 -71 710 -59 q 668 -83 686 -83 l 110 -83 z "},"`":{"ha":237,"x_min":41,"x_max":196,"o":"m 154 709 q 115 736 129 709 l 43 915 q 41 930 41 922 q 66 969 41 958 q 83 972 75 972 q 121 946 109 972 l 193 767 q 196 750 196 758 q 170 713 196 724 q 154 709 162 709 z "},"a":{"ha":951,"x_min":68,"x_max":884,"o":"m 842 0 q 857 3 850 0 q 884 41 884 14 q 880 58 884 50 l 515 946 q 475 972 501 972 q 437 946 450 972 l 71 58 q 68 41 68 50 q 94 3 68 14 q 111 0 102 0 q 149 26 137 0 l 475 820 l 803 26 q 842 0 817 0 z "},"b":{"ha":848,"x_min":136,"x_max":739,"o":"m 477 0 l 178 0 q 148 12 160 0 q 136 42 136 24 l 136 486 q 148 516 136 503 q 178 528 160 528 l 477 528 q 604 581 551 528 q 656 706 656 633 q 604 836 656 784 q 477 888 551 888 l 178 888 q 148 901 160 888 q 136 930 136 913 q 148 960 136 947 q 178 972 160 972 l 477 972 q 663 896 586 972 q 739 706 739 819 q 707 579 739 637 q 620 486 674 522 q 707 393 674 450 q 739 267 739 335 q 663 77 739 153 q 477 0 586 0 m 477 84 q 604 136 551 84 q 656 267 656 189 q 604 392 656 340 q 477 444 551 444 l 220 444 l 220 84 l 477 84 z "},"c":{"ha":998,"x_min":68,"x_max":910,"o":"m 554 0 q 897 142 749 0 q 910 172 910 156 q 897 201 910 188 q 868 214 884 214 q 838 201 852 214 q 554 84 715 84 q 269 201 393 84 q 152 486 152 322 q 171 614 152 537 q 269 770 191 690 q 554 888 389 888 q 682 869 605 888 q 838 770 758 849 q 868 758 852 758 q 897 770 884 758 q 910 800 910 784 q 897 830 910 817 q 677 956 800 924 q 554 972 616 972 q 400 948 492 972 q 210 830 307 924 q 68 486 68 685 q 92 332 68 425 q 210 142 115 239 q 554 0 359 0 z "},"d":{"ha":1008,"x_min":136,"x_max":941,"o":"m 459 0 q 701 65 592 0 q 876 239 810 130 q 941 481 941 349 q 876 733 941 623 q 701 907 810 842 q 459 972 592 972 l 178 972 q 148 960 160 972 q 136 930 136 947 q 148 901 136 913 q 178 888 160 888 l 459 888 q 659 834 569 888 q 803 690 749 781 q 857 490 857 600 q 803 282 857 372 q 659 138 749 191 q 459 84 569 84 l 178 84 q 148 72 160 84 q 136 42 136 59 q 148 12 136 24 q 178 0 160 0 l 459 0 z "},"e":{"ha":848,"x_min":122,"x_max":726,"o":"m 684 0 l 164 0 q 134 12 146 0 q 122 42 122 24 q 134 72 122 59 q 164 84 146 84 l 684 84 q 713 72 701 84 q 726 42 726 59 q 713 12 726 24 q 684 0 701 0 m 684 888 l 164 888 q 134 901 146 888 q 122 930 122 913 q 134 960 122 947 q 164 972 146 972 l 684 972 q 713 960 701 972 q 726 930 726 947 q 713 901 726 913 q 684 888 701 888 m 684 444 l 164 444 q 134 456 146 444 q 122 486 122 469 q 134 516 122 503 q 164 528 146 528 l 684 528 q 713 516 701 528 q 726 486 726 503 q 713 456 726 469 q 684 444 701 444 z "},"f":{"ha":807,"x_min":136,"x_max":739,"o":"m 698 888 l 178 888 q 148 901 160 888 q 136 930 136 913 q 148 960 136 947 q 178 972 160 972 l 698 972 q 727 960 715 972 q 739 930 739 947 q 727 901 739 913 q 698 888 715 888 m 178 0 q 148 12 160 0 q 136 42 136 24 l 136 486 q 148 516 136 503 q 178 528 160 528 l 698 528 q 727 516 715 528 q 739 486 739 503 q 727 456 739 469 q 698 444 715 444 l 220 444 l 220 42 q 207 12 220 24 q 178 0 195 0 z "},"g":{"ha":998,"x_min":68,"x_max":910,"o":"m 554 0 q 210 142 359 0 q 68 486 68 288 q 92 641 68 548 q 210 830 115 733 q 431 956 307 924 q 554 972 492 972 q 708 948 616 972 q 897 830 800 924 q 910 800 910 817 q 897 770 910 784 q 868 758 884 758 q 838 770 852 758 q 554 888 719 888 q 426 869 503 888 q 269 770 349 849 q 152 486 152 651 q 171 359 152 435 q 269 201 191 282 q 554 84 393 84 q 826 190 707 84 l 826 367 q 838 397 826 385 q 868 409 850 409 q 898 397 885 409 q 910 367 910 385 l 910 172 l 909 165 l 909 164 l 909 162 l 908 161 l 907 157 l 906 155 l 906 154 l 905 154 l 904 151 q 903 150 903 151 q 903 149 903 149 l 901 147 l 901 146 q 900 145 901 146 q 897 142 899 144 q 554 0 749 0 z "},"h":{"ha":917,"x_min":136,"x_max":781,"o":"m 739 0 q 710 12 722 0 q 698 42 698 24 l 698 930 q 710 960 698 947 q 739 972 722 972 q 769 960 757 972 q 781 930 781 947 l 781 42 q 769 12 781 24 q 739 0 757 0 m 178 0 q 148 12 160 0 q 136 42 136 24 l 136 930 q 148 960 136 947 q 178 972 160 972 q 207 960 195 972 q 220 930 220 947 l 220 533 l 458 533 q 488 521 476 533 q 500 491 500 509 q 488 461 500 473 q 458 449 476 449 l 220 449 l 220 42 q 207 12 220 24 q 178 0 195 0 z "},"i":{"ha":355,"x_min":136,"x_max":220,"o":"m 178 0 q 208 12 195 0 q 220 42 220 24 l 220 930 q 208 960 220 948 q 178 972 195 972 q 148 960 160 972 q 136 930 136 948 l 136 42 q 148 12 136 24 q 178 0 160 0 z "},"j":{"ha":807,"x_min":68,"x_max":671,"o":"m 385 0 q 587 84 503 0 q 671 288 671 169 l 671 930 q 659 960 671 947 q 630 972 647 972 q 600 960 612 972 q 588 930 588 947 l 588 288 q 528 144 588 203 q 385 84 469 84 l 353 84 q 211 143 270 84 q 152 286 152 202 q 139 317 152 305 q 110 330 127 330 q 80 317 92 330 q 68 286 68 305 q 152 84 68 168 q 353 0 235 0 l 385 0 z "},"k":{"ha":933,"x_min":136,"x_max":865,"o":"m 178 0 q 148 12 160 0 q 136 42 136 24 l 136 930 q 148 960 136 947 q 178 972 160 972 q 207 960 195 972 q 220 930 220 947 l 220 42 q 207 12 220 24 q 178 0 195 0 m 823 1 q 791 15 805 1 l 411 458 q 401 486 401 471 q 411 513 401 500 l 791 958 q 823 972 805 972 q 850 962 838 972 q 865 930 865 949 q 855 903 865 916 l 498 486 l 855 70 q 865 43 865 58 q 865 32 865 41 q 851 12 864 22 q 823 1 838 1 z "},"l":{"ha":739,"x_min":136,"x_max":671,"o":"m 629 0 q 659 12 647 0 q 671 42 671 24 q 659 72 671 59 q 629 84 647 84 l 220 84 l 220 930 q 207 960 220 947 q 178 972 195 972 q 148 960 160 972 q 136 930 136 947 l 136 42 q 148 12 136 24 q 178 0 160 0 l 629 0 z "},"m":{"ha":1278,"x_min":136,"x_max":1142,"o":"m 178 0 q 148 12 160 0 q 136 42 136 24 l 136 930 q 165 970 136 958 q 178 972 172 972 q 213 954 199 972 l 639 298 l 1065 954 q 1101 972 1078 972 q 1123 966 1112 972 q 1142 930 1142 953 q 1135 907 1142 919 l 674 198 q 639 179 660 179 q 604 198 618 179 l 220 789 l 220 42 q 207 12 220 24 q 178 0 195 0 z "},"n":{"ha":974,"x_min":136,"x_max":838,"o":"m 796 0 q 809 2 802 0 q 838 42 838 14 l 838 930 q 826 960 838 947 q 796 972 814 972 q 767 960 779 972 q 754 930 754 947 l 754 176 l 212 954 q 178 972 198 972 q 165 970 172 972 q 136 930 136 958 l 136 42 q 148 12 136 24 q 178 0 160 0 q 207 12 195 0 q 220 42 220 24 l 220 797 l 762 18 q 796 0 776 0 z "},"o":{"ha":1107,"x_min":68,"x_max":1040,"o":"m 554 0 q 798 66 688 0 q 974 242 908 132 q 1040 486 1040 352 q 974 730 1040 620 q 798 906 908 840 q 554 972 688 972 q 524 960 536 972 q 512 930 512 947 q 524 900 512 913 q 554 888 536 888 q 756 833 665 888 q 901 688 847 779 q 956 486 956 597 q 901 284 956 375 q 756 138 847 193 q 554 84 665 84 q 352 138 443 84 q 206 284 260 193 q 152 486 152 375 q 139 515 152 503 q 110 528 127 528 q 80 515 92 528 q 68 486 68 503 q 134 242 68 352 q 310 66 199 132 q 554 0 420 0 z "},"p":{"ha":807,"x_min":136,"x_max":739,"o":"m 178 0 q 148 12 160 0 q 136 42 136 24 l 136 486 q 148 516 136 503 q 178 528 160 528 l 477 528 q 604 581 551 528 q 656 706 656 633 q 604 836 656 784 q 477 888 551 888 l 178 888 q 148 901 160 888 q 136 930 136 913 q 148 960 136 947 q 178 972 160 972 l 477 972 q 663 896 586 972 q 739 711 739 819 q 663 521 739 597 q 477 444 586 444 l 220 444 l 220 42 q 207 12 220 24 q 178 0 195 0 z "},"q":{"ha":1107,"x_min":68,"x_max":1040,"o":"m 554 -188 q 524 -175 536 -188 q 512 -146 512 -163 l 512 2 q 287 81 387 14 q 127 254 186 148 q 68 486 68 359 q 80 516 68 504 q 110 528 92 528 q 139 516 127 528 q 152 486 152 504 q 254 218 152 331 q 512 87 357 106 l 512 176 q 524 205 512 193 q 554 218 536 218 q 583 205 571 218 q 595 176 595 193 l 595 87 q 853 218 751 106 q 956 486 956 331 q 901 689 956 597 q 756 834 847 780 q 554 888 665 888 q 524 901 536 888 q 512 930 512 913 q 524 960 512 948 q 554 972 536 972 q 798 907 688 972 q 974 731 908 841 q 1040 486 1040 621 q 980 254 1040 359 q 821 81 921 148 q 595 2 721 14 l 595 -146 q 583 -175 595 -163 q 554 -188 571 -188 z "},"r":{"ha":821,"x_min":136,"x_max":739,"o":"m 178 0 q 148 12 160 0 q 136 42 136 24 l 136 486 q 148 516 136 503 q 178 528 160 528 l 477 528 q 604 581 551 528 q 656 706 656 633 q 604 836 656 784 q 477 888 551 888 l 178 888 q 148 901 160 888 q 136 930 136 913 q 148 960 136 947 q 178 972 160 972 l 477 972 q 663 896 586 972 q 739 711 739 819 q 663 521 739 597 q 477 444 586 444 l 220 444 l 220 42 q 207 12 220 24 q 178 0 195 0 m 685 0 q 647 24 661 0 l 521 296 q 517 314 517 305 q 541 351 517 339 q 559 355 549 355 q 597 331 584 355 l 723 60 q 727 42 727 51 q 703 4 727 16 q 685 0 694 0 z "},"s":{"ha":848,"x_min":122,"x_max":726,"o":"m 424 0 q 394 12 407 0 q 382 42 382 24 q 394 72 382 59 q 424 84 407 84 q 578 137 514 84 q 642 264 642 189 q 615 365 642 330 q 538 417 589 399 q 414 449 487 435 q 313 472 364 458 q 219 512 262 486 q 149 586 176 539 q 122 708 122 633 q 211 895 122 817 q 424 972 299 972 q 454 960 441 972 q 466 930 466 947 q 454 901 466 913 q 424 888 441 888 q 270 836 334 888 q 206 708 206 783 q 232 612 206 645 q 308 561 258 578 q 430 531 358 544 q 532 508 480 522 q 627 466 583 493 q 699 390 671 438 q 726 264 726 342 q 637 77 726 155 q 424 0 549 0 z "},"t":{"ha":878,"x_min":68,"x_max":481,"o":"m 439 0 q 409 12 422 0 q 397 42 397 24 l 397 888 l 110 888 q 80 900 92 888 q 68 930 68 913 q 80 960 68 947 q 110 972 92 972 l 439 972 q 469 960 456 972 q 481 930 481 947 l 481 42 q 469 12 481 24 q 439 0 456 0 z "},"u":{"ha":869,"x_min":109,"x_max":760,"o":"m 437 0 q 665 95 570 0 q 760 323 760 189 l 760 930 q 748 960 760 947 q 718 972 735 972 q 688 960 701 972 q 676 930 676 947 l 676 323 q 606 154 676 224 q 437 84 536 84 q 262 154 332 84 q 193 323 193 224 l 193 930 q 180 960 193 947 q 151 972 168 972 q 121 960 133 972 q 109 930 109 947 l 109 323 q 203 95 109 189 q 437 0 298 0 z "},"v":{"ha":951,"x_min":68,"x_max":884,"o":"m 475 0 q 515 26 501 0 l 880 914 q 884 931 884 923 q 857 969 884 958 q 841 972 849 972 q 803 946 814 972 l 475 152 l 149 946 q 111 972 136 972 q 94 969 102 972 q 68 931 68 958 q 71 914 68 923 l 437 26 q 475 0 450 0 z "},"w":{"ha":1278,"x_min":136,"x_max":1142,"o":"m 1101 0 q 1126 9 1114 0 q 1142 42 1142 22 q 1133 68 1142 56 l 672 658 q 639 673 659 673 q 606 658 620 673 l 220 163 l 220 930 q 207 960 220 947 q 178 972 195 972 q 148 960 160 972 q 136 930 136 947 l 136 42 q 164 2 136 15 q 178 0 171 0 q 211 16 197 0 l 639 564 l 1067 16 q 1101 0 1080 0 z "},"x":{"ha":871,"x_min":95,"x_max":777,"o":"m 734 0 q 700 18 714 0 l 435 411 l 172 18 q 137 0 157 0 q 113 7 125 0 q 95 42 95 20 q 102 65 95 54 l 385 486 l 102 907 q 95 930 95 918 q 113 965 95 952 q 138 972 125 972 q 151 970 141 972 q 172 954 161 968 l 769 65 q 777 41 777 54 q 758 7 777 20 q 734 0 747 0 z "},"y":{"ha":817,"x_min":68,"x_max":749,"o":"m 408 444 q 374 463 388 444 l 75 907 q 68 930 68 918 q 86 965 68 952 q 111 972 98 972 q 124 970 114 972 q 144 954 134 968 l 408 562 l 673 954 q 707 972 686 972 q 731 965 719 972 q 749 931 749 952 q 742 907 749 919 l 444 463 q 408 444 429 444 m 408 0 q 379 12 391 0 q 367 42 367 24 l 367 311 q 379 340 367 328 q 408 353 391 353 q 438 340 426 353 q 450 311 450 328 l 450 42 q 438 12 450 24 q 408 0 426 0 z "},"z":{"ha":834,"x_min":115,"x_max":720,"o":"m 677 0 q 707 12 694 0 q 719 42 719 24 q 707 72 719 59 q 677 84 694 84 l 231 84 l 713 909 q 720 930 720 920 q 713 951 720 941 q 677 972 700 972 l 157 972 q 127 960 140 972 q 115 930 115 947 q 127 901 115 913 q 157 888 140 888 l 604 888 l 121 63 q 115 42 115 53 q 121 21 115 32 q 157 0 135 0 l 677 0 z "},"{":{"ha":428,"x_min":41,"x_max":387,"o":"m 345 0 q 375 12 363 0 q 387 42 387 24 q 375 72 387 59 q 345 84 363 84 q 247 124 287 84 q 207 220 207 164 q 189 425 207 364 q 162 486 178 464 q 189 549 178 509 q 207 752 207 610 q 247 848 207 808 q 345 888 287 888 q 375 901 363 888 q 387 930 387 913 q 375 960 387 947 q 345 972 363 972 q 188 908 252 972 q 123 752 123 843 q 101 547 123 594 q 83 528 92 528 q 53 516 65 528 q 41 486 41 503 q 53 456 41 469 q 83 444 65 444 q 107 408 97 444 q 123 220 123 355 q 188 65 123 130 q 345 0 252 0 z "},"|":{"ha":355,"x_min":136,"x_max":220,"o":"m 178 0 q 208 12 195 0 q 220 42 220 24 l 220 930 q 208 960 220 948 q 178 972 195 972 q 148 960 160 972 q 136 930 136 948 l 136 42 q 148 12 136 24 q 178 0 160 0 z "},"}":{"ha":428,"x_min":41,"x_max":387,"o":"m 83 0 q 240 65 176 0 q 305 220 305 130 q 321 408 305 355 q 345 444 331 444 q 375 456 363 444 q 387 486 387 469 q 375 516 387 503 q 345 528 363 528 q 327 547 336 528 q 305 752 305 594 q 240 908 305 843 q 83 972 176 972 q 53 960 65 972 q 41 930 41 947 q 53 901 41 913 q 83 888 65 888 q 181 848 141 888 q 221 752 221 808 q 238 549 221 610 q 266 486 249 509 q 238 425 249 464 q 221 220 221 364 q 181 124 221 164 q 83 84 141 84 q 53 72 65 84 q 41 42 41 59 q 53 12 41 24 q 83 0 65 0 z "},"~":{"ha":481,"x_min":68,"x_max":414,"o":"m 322 413 q 222 451 277 415 q 172 475 186 474 q 144 453 158 475 q 110 435 131 435 q 85 444 98 435 q 68 478 68 457 q 76 502 68 491 q 172 559 117 559 l 182 558 q 266 522 229 549 q 321 497 306 497 q 343 508 333 497 q 372 519 356 519 q 381 519 373 519 q 402 506 390 519 q 414 478 414 494 l 414 468 q 401 447 414 459 q 322 413 360 413 z "},"¡":{"ha":387,"x_min":68,"x_max":319,"o":"m 194 972 q 282 936 245 972 q 319 846 319 899 q 282 758 319 794 q 194 721 245 721 q 105 758 142 721 q 68 846 68 794 q 105 936 68 899 q 194 972 142 972 m 194 888 q 164 876 176 888 q 152 846 152 864 q 164 817 152 829 q 194 804 176 804 q 223 817 211 804 q 235 846 235 829 q 223 876 235 864 q 194 888 211 888 m 194 642 q 223 629 211 642 q 235 600 235 617 l 235 42 q 223 12 235 24 q 194 0 211 0 q 164 12 176 0 q 152 42 152 24 l 152 600 q 164 629 152 617 q 194 642 176 642 z "},"¢":{"ha":772,"x_min":0,"x_max":0,"o":""},"£":{"ha":688,"x_min":0,"x_max":0,"o":""},"¤":{"ha":688,"x_min":0,"x_max":0,"o":""},"¥":{"ha":856,"x_min":0,"x_max":0,"o":""},"¦":{"ha":688,"x_min":0,"x_max":0,"o":""},"§":{"ha":688,"x_min":0,"x_max":0,"o":""},"¨":{"ha":694,"x_min":0,"x_max":0,"o":""},"©":{"ha":1107,"x_min":68,"x_max":1040,"o":"m 554 0 q 310 66 420 0 q 134 242 199 132 q 68 486 68 352 q 134 730 68 620 q 310 906 199 840 q 554 972 420 972 q 798 906 688 972 q 974 730 908 840 q 1040 486 1040 620 q 974 242 1040 352 q 798 66 908 132 q 554 0 688 0 m 554 84 q 756 138 665 84 q 901 284 847 193 q 956 486 956 375 q 901 688 956 597 q 756 833 847 779 q 554 888 665 888 q 352 833 443 888 q 206 688 260 779 q 152 486 152 597 q 206 284 152 375 q 352 138 260 193 q 554 84 443 84 m 554 252 q 388 320 459 252 q 319 486 319 392 q 388 652 321 583 q 554 720 460 720 q 720 652 648 720 q 732 622 732 638 q 720 592 732 606 q 690 580 706 580 q 660 592 673 580 q 554 636 614 636 q 448 592 494 636 q 404 486 404 546 q 448 380 404 426 q 554 336 496 336 q 660 380 612 336 q 690 392 673 392 q 720 380 706 392 q 732 350 732 366 q 720 320 732 334 q 554 252 650 252 z "},"ª":{"ha":439,"x_min":0,"x_max":0,"o":""},"«":{"ha":922,"x_min":68,"x_max":854,"o":"m 408 266 q 445 286 430 266 q 450 307 450 297 q 430 344 450 331 l 192 486 l 430 627 q 450 664 450 640 q 445 685 450 675 q 408 706 432 706 q 387 700 397 706 l 88 522 q 68 486 68 508 q 88 450 68 464 l 387 272 q 408 266 397 266 m 812 266 q 849 286 834 266 q 854 307 854 297 q 834 344 854 331 l 596 486 l 834 627 q 854 664 854 640 q 849 685 854 675 q 812 706 836 706 q 791 700 802 706 l 492 522 q 472 486 472 508 q 492 450 472 464 l 791 272 q 812 266 802 266 z "},"¬":{"ha":688,"x_min":0,"x_max":0,"o":""},"®":{"ha":1107,"x_min":68,"x_max":1040,"o":"m 669 289 q 633 310 648 289 l 555 444 l 492 444 l 492 331 q 479 301 492 313 q 450 289 467 289 q 420 301 432 289 q 408 331 408 313 l 408 641 q 420 671 408 659 q 450 683 432 683 l 579 683 q 676 648 636 683 q 717 564 717 613 q 644 458 717 495 l 705 352 q 711 330 711 341 q 690 295 711 307 q 669 289 680 289 m 579 528 q 618 539 603 528 q 633 564 633 550 q 618 588 633 576 q 579 599 603 599 l 492 599 l 492 528 l 579 528 m 554 0 q 310 66 420 0 q 134 242 199 132 q 68 486 68 352 q 134 730 68 620 q 310 906 199 840 q 554 972 420 972 q 798 906 688 972 q 974 730 908 840 q 1040 486 1040 620 q 974 242 1040 352 q 798 66 908 132 q 554 0 688 0 m 554 84 q 756 138 665 84 q 901 284 847 193 q 956 486 956 375 q 901 688 956 597 q 756 833 847 779 q 554 888 665 888 q 352 833 443 888 q 206 688 260 779 q 152 486 152 597 q 206 284 152 375 q 352 138 260 193 q 554 84 443 84 z "},"¯":{"ha":454,"x_min":0,"x_max":0,"o":""},"°":{"ha":457,"x_min":0,"x_max":0,"o":""},"±":{"ha":688,"x_min":0,"x_max":0,"o":""},"²":{"ha":688,"x_min":0,"x_max":0,"o":""},"³":{"ha":688,"x_min":0,"x_max":0,"o":""},"´":{"ha":694,"x_min":0,"x_max":0,"o":""},"µ":{"ha":800,"x_min":0,"x_max":0,"o":""},"¶":{"ha":694,"x_min":0,"x_max":0,"o":""},"·":{"ha":345,"x_min":0,"x_max":0,"o":""},"∙":{"ha":345,"x_min":0,"x_max":0,"o":""},"¸":{"ha":694,"x_min":0,"x_max":0,"o":""},"¹":{"ha":143,"x_min":0,"x_max":0,"o":""},"º":{"ha":487,"x_min":0,"x_max":0,"o":""},"»":{"ha":922,"x_min":68,"x_max":854,"o":"m 514 266 q 535 272 525 266 l 834 450 q 854 486 854 464 q 834 522 854 508 l 535 700 q 514 706 525 706 q 477 685 490 706 q 472 664 472 675 q 492 627 472 640 l 730 486 l 492 344 q 472 307 472 331 q 477 286 472 297 q 514 266 492 266 m 110 266 q 131 272 121 266 l 430 450 q 450 486 450 464 q 430 522 450 508 l 131 700 q 111 706 121 706 q 73 685 86 706 q 68 664 68 675 q 88 627 68 640 l 326 486 l 88 344 q 68 307 68 331 q 73 286 68 297 q 110 266 88 266 z "},"¼":{"ha":1158,"x_min":0,"x_max":0,"o":""},"½":{"ha":1332,"x_min":0,"x_max":0,"o":""},"¾":{"ha":1158,"x_min":0,"x_max":0,"o":""},"¿":{"ha":618,"x_min":68,"x_max":550,"o":"m 309 972 q 398 936 361 972 q 435 846 435 899 q 398 758 435 794 q 309 721 361 721 q 220 758 257 721 q 183 846 183 794 q 220 936 183 899 q 309 972 257 972 m 309 888 q 279 876 292 888 q 267 846 267 864 q 279 817 267 829 q 309 804 292 804 q 338 817 326 804 q 351 846 351 829 q 338 876 351 864 q 309 888 326 888 m 309 642 q 338 629 326 642 q 351 600 351 617 q 333 509 351 547 q 290 442 316 471 q 237 389 264 413 q 176 325 201 357 q 152 241 152 292 q 198 130 152 176 q 309 84 244 84 q 420 130 374 84 q 466 241 466 176 q 478 271 466 258 q 508 283 491 283 q 538 271 526 283 q 550 241 550 258 q 479 71 550 142 q 309 0 409 0 q 139 71 210 0 q 68 241 68 142 q 85 331 68 294 q 128 397 102 369 q 180 450 153 426 q 242 515 218 482 q 267 600 267 548 q 279 629 267 617 q 309 642 292 642 z "},"À":{"ha":951,"x_min":68,"x_max":884,"o":"m 467 1050 q 429 1076 442 1050 l 357 1255 q 354 1271 354 1263 q 380 1310 354 1299 q 397 1313 389 1313 q 435 1286 422 1313 l 506 1107 q 509 1091 509 1099 q 483 1053 509 1064 q 467 1050 475 1050 m 842 0 q 857 3 850 0 q 884 41 884 14 q 880 58 884 50 l 515 946 q 475 972 501 972 q 437 946 450 972 l 71 58 q 68 41 68 50 q 94 3 68 14 q 111 0 102 0 q 149 26 137 0 l 475 820 l 803 26 q 842 0 817 0 z "},"Á":{"ha":951,"x_min":68,"x_max":884,"o":"m 484 1050 q 469 1053 476 1050 q 446 1076 452 1060 q 442 1092 442 1084 q 445 1107 442 1099 l 517 1286 q 539 1310 524 1303 q 555 1313 547 1313 q 571 1310 563 1313 q 597 1271 597 1299 q 595 1255 597 1263 l 523 1076 q 484 1050 509 1050 m 842 0 q 857 3 850 0 q 884 41 884 14 q 880 58 884 50 l 515 946 q 475 972 501 972 q 437 946 450 972 l 71 58 q 68 41 68 50 q 94 3 68 14 q 111 0 102 0 q 149 26 137 0 l 475 820 l 803 26 q 842 0 817 0 z "},"Â":{"ha":951,"x_min":68,"x_max":884,"o":"m 578 1088 q 549 1101 562 1088 l 475 1173 l 403 1101 q 373 1088 389 1088 q 344 1101 357 1088 q 332 1131 332 1114 q 344 1160 332 1147 l 446 1262 q 475 1274 460 1274 q 505 1262 492 1274 l 608 1160 q 620 1131 620 1147 q 607 1101 620 1114 q 578 1088 595 1088 m 842 0 q 857 3 850 0 q 884 41 884 14 q 880 58 884 50 l 515 946 q 475 972 501 972 q 437 946 450 972 l 71 58 q 68 41 68 50 q 94 3 68 14 q 111 0 102 0 q 149 26 137 0 l 475 820 l 803 26 q 842 0 817 0 z "},"Ã":{"ha":951,"x_min":68,"x_max":884,"o":"m 557 1075 q 456 1113 511 1077 q 407 1137 420 1136 q 378 1115 393 1137 q 345 1097 365 1097 q 320 1105 332 1097 q 302 1139 302 1119 q 311 1164 302 1152 q 407 1221 352 1221 l 416 1220 q 500 1184 464 1211 q 555 1159 540 1159 q 578 1170 568 1159 q 606 1181 591 1181 q 616 1181 608 1181 q 636 1168 625 1181 q 648 1140 648 1156 l 648 1130 q 635 1109 648 1121 q 557 1075 595 1075 m 842 0 q 857 3 850 0 q 884 41 884 14 q 880 58 884 50 l 515 946 q 475 972 501 972 q 437 946 450 972 l 71 58 q 68 41 68 50 q 94 3 68 14 q 111 0 102 0 q 149 26 137 0 l 475 820 l 803 26 q 842 0 817 0 z "},"Ä":{"ha":951,"x_min":68,"x_max":884,"o":"m 342 1088 q 306 1103 321 1088 q 291 1139 291 1118 q 306 1176 291 1160 q 342 1191 321 1191 q 378 1176 363 1191 q 393 1139 393 1160 q 378 1103 393 1118 q 342 1088 363 1088 m 609 1088 q 573 1103 588 1088 q 558 1139 558 1118 q 573 1176 558 1160 q 609 1191 588 1191 q 646 1176 631 1191 q 661 1139 661 1160 q 646 1103 661 1118 q 609 1088 631 1088 m 842 0 q 857 3 850 0 q 884 41 884 14 q 880 58 884 50 l 515 946 q 475 972 501 972 q 437 946 450 972 l 71 58 q 68 41 68 50 q 94 3 68 14 q 111 0 102 0 q 149 26 137 0 l 475 820 l 803 26 q 842 0 817 0 z "},"Å":{"ha":951,"x_min":68,"x_max":884,"o":"m 475 1034 q 401 1065 432 1034 q 371 1139 371 1096 q 401 1214 371 1183 q 475 1244 432 1244 q 550 1214 519 1244 q 581 1139 581 1183 q 550 1065 581 1096 q 475 1034 519 1034 m 475 1076 q 520 1095 502 1076 q 538 1139 538 1114 q 520 1184 538 1165 q 475 1202 502 1202 q 431 1184 450 1202 q 413 1139 413 1165 q 431 1095 413 1114 q 475 1076 450 1076 m 842 0 q 857 3 850 0 q 884 41 884 14 q 880 58 884 50 l 515 946 q 475 972 501 972 q 437 946 450 972 l 71 58 q 68 41 68 50 q 94 3 68 14 q 111 0 102 0 q 149 26 137 0 l 475 820 l 803 26 q 842 0 817 0 z "},"Æ":{"ha":1263,"x_min":68,"x_max":1195,"o":"m 1153 0 l 633 0 q 604 12 616 0 q 591 42 591 24 l 591 888 l 504 888 l 149 26 q 110 0 134 0 q 94 3 102 0 q 68 41 68 14 q 71 58 68 50 l 437 946 q 475 972 450 972 l 1153 972 q 1183 960 1171 972 q 1195 930 1195 947 q 1183 901 1195 913 q 1153 888 1171 888 l 675 888 l 675 528 l 1051 528 q 1081 516 1069 528 q 1093 486 1093 503 q 1081 456 1093 469 q 1051 444 1069 444 l 675 444 l 675 84 l 1153 84 q 1183 72 1171 84 q 1195 42 1195 59 q 1183 12 1195 24 q 1153 0 1171 0 z "},"Ç":{"ha":998,"x_min":68,"x_max":910,"o":"m 604 -231 l 507 -231 q 492 -224 498 -231 q 486 -210 486 -218 q 492 -195 486 -201 q 507 -189 498 -189 l 604 -189 q 647 -175 627 -189 q 667 -132 667 -162 q 647 -90 667 -104 q 604 -77 627 -77 l 557 -77 q 543 -71 549 -77 q 536 -56 536 -64 l 536 1 q 210 142 352 7 q 68 486 68 292 q 210 830 68 681 q 431 956 307 925 q 554 972 492 972 q 708 949 616 972 q 898 830 801 925 q 910 800 910 817 q 898 770 910 784 q 868 758 884 758 q 838 770 852 758 q 554 888 718 888 q 427 869 503 888 q 269 770 350 849 q 152 486 152 648 q 269 202 152 325 q 554 84 391 84 q 682 104 605 84 q 838 202 758 123 q 868 214 852 214 q 898 202 884 214 q 910 172 910 189 q 898 142 910 156 q 578 1 759 9 l 578 -35 l 604 -35 q 680 -62 650 -35 q 709 -132 709 -90 q 680 -203 709 -176 q 604 -231 650 -231 z "},"È":{"ha":848,"x_min":122,"x_max":726,"o":"m 437 1050 q 399 1076 412 1050 l 327 1255 q 324 1271 324 1263 q 351 1310 324 1299 q 367 1313 359 1313 q 405 1286 394 1313 l 477 1107 q 479 1092 479 1099 q 453 1053 479 1064 q 437 1050 446 1050 m 684 0 l 164 0 q 134 12 146 0 q 122 42 122 24 q 134 72 122 59 q 164 84 146 84 l 684 84 q 713 72 701 84 q 726 42 726 59 q 713 12 726 24 q 684 0 701 0 m 684 888 l 164 888 q 134 901 146 888 q 122 930 122 913 q 134 960 122 947 q 164 972 146 972 l 684 972 q 713 960 701 972 q 726 930 726 947 q 713 901 726 913 q 684 888 701 888 m 684 444 l 164 444 q 134 456 146 444 q 122 486 122 469 q 134 516 122 503 q 164 528 146 528 l 684 528 q 713 516 701 528 q 726 486 726 503 q 713 456 726 469 q 684 444 701 444 z "},"É":{"ha":848,"x_min":122,"x_max":726,"o":"m 437 1050 q 422 1053 430 1050 q 396 1091 396 1064 q 399 1107 396 1099 l 470 1286 q 509 1313 482 1313 q 525 1310 517 1313 q 551 1272 551 1299 q 548 1255 551 1264 l 477 1076 q 437 1050 463 1050 m 684 0 l 164 0 q 134 12 146 0 q 122 42 122 24 q 134 72 122 59 q 164 84 146 84 l 684 84 q 713 72 701 84 q 726 42 726 59 q 713 12 726 24 q 684 0 701 0 m 684 888 l 164 888 q 134 901 146 888 q 122 930 122 913 q 134 960 122 947 q 164 972 146 972 l 684 972 q 713 960 701 972 q 726 930 726 947 q 713 901 726 913 q 684 888 701 888 m 684 444 l 164 444 q 134 456 146 444 q 122 486 122 469 q 134 516 122 503 q 164 528 146 528 l 684 528 q 713 516 701 528 q 726 486 726 503 q 713 456 726 469 q 684 444 701 444 z "},"Ê":{"ha":848,"x_min":122,"x_max":726,"o":"m 540 1088 q 511 1101 524 1088 l 437 1173 l 365 1101 q 335 1088 352 1088 q 306 1101 318 1088 q 293 1131 293 1114 q 306 1160 293 1147 l 408 1262 q 437 1274 422 1274 q 467 1262 454 1274 l 570 1160 q 582 1131 582 1147 q 570 1101 582 1114 q 540 1088 556 1088 m 684 0 l 164 0 q 134 12 146 0 q 122 42 122 24 q 134 72 122 59 q 164 84 146 84 l 684 84 q 713 72 701 84 q 726 42 726 59 q 713 12 726 24 q 684 0 701 0 m 684 888 l 164 888 q 134 901 146 888 q 122 930 122 913 q 134 960 122 947 q 164 972 146 972 l 684 972 q 713 960 701 972 q 726 930 726 947 q 713 901 726 913 q 684 888 701 888 m 684 444 l 164 444 q 134 456 146 444 q 122 486 122 469 q 134 516 122 503 q 164 528 146 528 l 684 528 q 713 516 701 528 q 726 486 726 503 q 713 456 726 469 q 684 444 701 444 z "},"Ë":{"ha":848,"x_min":122,"x_max":726,"o":"m 304 1088 q 268 1103 283 1088 q 253 1139 253 1118 q 268 1176 253 1160 q 304 1191 283 1191 q 340 1176 326 1191 q 355 1139 355 1160 q 340 1103 355 1118 q 304 1088 326 1088 m 571 1088 q 535 1103 550 1088 q 520 1139 520 1118 q 535 1176 520 1160 q 571 1191 550 1191 q 608 1176 593 1191 q 623 1139 623 1160 q 608 1103 623 1118 q 571 1088 593 1088 m 684 0 l 164 0 q 134 12 146 0 q 122 42 122 24 q 134 72 122 59 q 164 84 146 84 l 684 84 q 713 72 701 84 q 726 42 726 59 q 713 12 726 24 q 684 0 701 0 m 684 888 l 164 888 q 134 901 146 888 q 122 930 122 913 q 134 960 122 947 q 164 972 146 972 l 684 972 q 713 960 701 972 q 726 930 726 947 q 713 901 726 913 q 684 888 701 888 m 684 444 l 164 444 q 134 456 146 444 q 122 486 122 469 q 134 516 122 503 q 164 528 146 528 l 684 528 q 713 516 701 528 q 726 486 726 503 q 713 456 726 469 q 684 444 701 444 z "},"Ì":{"ha":353,"x_min":62,"x_max":218,"o":"m 176 0 q 146 12 159 0 q 134 42 134 24 l 134 930 q 146 960 134 947 q 176 972 159 972 q 205 960 193 972 q 218 930 218 947 l 218 42 q 205 12 218 24 q 176 0 193 0 m 176 1050 q 137 1076 151 1050 l 65 1255 q 62 1271 62 1263 q 89 1310 62 1299 q 104 1312 97 1312 q 143 1286 132 1312 l 215 1107 q 218 1092 218 1099 q 191 1053 218 1064 q 176 1050 184 1050 z "},"Í":{"ha":353,"x_min":136,"x_max":291,"o":"m 178 0 q 148 12 160 0 q 136 42 136 24 l 136 930 q 148 960 136 947 q 178 972 160 972 q 207 960 195 972 q 220 930 220 947 l 220 42 q 207 12 220 24 q 178 0 195 0 m 178 1050 q 162 1053 170 1050 q 136 1092 136 1065 q 138 1107 136 1099 l 210 1286 q 249 1312 221 1312 q 264 1310 257 1312 q 291 1271 291 1299 q 288 1255 291 1263 l 216 1076 q 178 1050 203 1050 z "},"Î":{"ha":355,"x_min":33,"x_max":322,"o":"m 178 0 q 148 12 160 0 q 136 42 136 24 l 136 930 q 148 960 136 947 q 178 972 160 972 q 207 960 195 972 q 220 930 220 947 l 220 42 q 207 12 220 24 q 178 0 195 0 m 280 1084 q 250 1097 264 1084 l 178 1169 l 104 1097 q 75 1084 92 1084 q 46 1097 58 1084 q 33 1126 33 1109 q 45 1156 33 1143 l 148 1258 q 178 1270 161 1270 q 207 1258 193 1270 l 309 1156 q 322 1126 322 1143 q 310 1097 322 1109 q 280 1084 296 1084 z "},"Ï":{"ha":355,"x_min":-7,"x_max":362,"o":"m 178 0 q 148 12 160 0 q 136 42 136 24 l 136 930 q 148 960 136 947 q 178 972 160 972 q 207 960 195 972 q 219 930 219 947 l 219 42 q 207 12 219 24 q 178 0 195 0 m 44 1088 q 7 1103 22 1088 q -7 1139 -7 1118 q 7 1175 -7 1160 q 44 1190 22 1190 q 80 1175 65 1190 q 95 1139 95 1160 q 80 1103 95 1118 q 44 1088 65 1088 m 311 1088 q 275 1103 290 1088 q 260 1139 260 1118 q 275 1175 260 1160 q 311 1190 290 1190 q 347 1175 332 1190 q 362 1139 362 1160 q 347 1103 362 1118 q 311 1088 332 1088 z "},"Ð":{"ha":1029,"x_min":20,"x_max":961,"o":"m 479 0 l 198 0 q 168 12 180 0 q 156 42 156 24 q 168 72 156 59 q 198 84 180 84 l 479 84 q 679 138 589 84 q 823 282 770 191 q 877 481 877 372 q 823 690 877 600 q 679 834 770 781 q 479 888 589 888 l 198 888 q 168 901 180 888 q 156 930 156 913 q 168 960 156 947 q 198 972 180 972 l 479 972 q 722 907 612 972 q 896 733 831 842 q 961 490 961 623 q 896 239 961 349 q 722 65 831 130 q 479 0 612 0 m 481 486 l 62 486 q 33 498 45 486 q 20 528 20 511 q 33 557 20 545 q 62 570 45 570 l 481 570 q 511 557 499 570 q 524 528 524 545 q 511 498 524 511 q 481 486 499 486 z "},"Ñ":{"ha":974,"x_min":136,"x_max":838,"o":"m 796 0 q 762 18 776 0 l 220 797 l 220 42 q 207 12 220 24 q 178 0 195 0 q 148 12 160 0 q 136 42 136 24 l 136 930 q 165 970 136 958 q 178 972 172 972 q 212 954 198 972 l 754 176 l 754 930 q 767 960 754 947 q 796 972 779 972 q 826 960 814 972 q 838 930 838 947 l 838 42 q 809 2 838 14 q 796 0 802 0 m 568 1075 q 468 1113 521 1077 q 418 1137 432 1136 q 390 1115 404 1137 q 356 1097 376 1097 q 332 1105 343 1097 q 314 1139 314 1119 q 322 1164 314 1152 q 416 1220 363 1220 l 427 1219 q 512 1184 475 1211 q 567 1159 551 1159 q 590 1170 578 1159 q 617 1181 602 1181 q 627 1181 618 1181 q 648 1168 636 1181 q 660 1140 660 1156 q 660 1130 660 1139 q 646 1109 659 1121 q 568 1075 606 1075 z "},"Ò":{"ha":1107,"x_min":68,"x_max":1040,"o":"m 525 1050 q 486 1076 500 1050 l 414 1255 q 412 1271 412 1263 q 438 1310 412 1299 q 454 1312 446 1312 q 492 1286 481 1312 l 564 1107 q 567 1092 567 1099 q 541 1053 567 1065 q 525 1050 533 1050 m 554 0 q 798 66 688 0 q 974 242 908 132 q 1040 486 1040 352 q 974 730 1040 620 q 798 906 908 840 q 554 972 688 972 q 524 960 536 972 q 512 930 512 947 q 524 900 512 913 q 554 888 536 888 q 756 833 665 888 q 901 688 847 779 q 956 486 956 597 q 901 284 956 375 q 756 138 847 193 q 554 84 665 84 q 352 138 443 84 q 206 284 260 193 q 152 486 152 375 q 139 515 152 503 q 110 528 127 528 q 80 515 92 528 q 68 486 68 503 q 134 242 68 352 q 310 66 199 132 q 554 0 420 0 z "},"Ó":{"ha":1107,"x_min":68,"x_max":1040,"o":"m 553 1050 q 538 1053 546 1050 q 512 1092 512 1064 q 515 1107 512 1099 l 587 1286 q 625 1312 597 1312 q 641 1310 633 1312 q 667 1271 667 1299 q 665 1255 667 1263 l 593 1076 q 553 1050 578 1050 m 554 0 q 798 66 688 0 q 974 242 908 132 q 1040 486 1040 352 q 974 730 1040 620 q 798 906 908 840 q 554 972 688 972 q 524 960 536 972 q 512 930 512 947 q 524 900 512 913 q 554 888 536 888 q 756 833 665 888 q 901 688 847 779 q 956 486 956 597 q 901 284 956 375 q 756 138 847 193 q 554 84 665 84 q 352 138 443 84 q 206 284 260 193 q 152 486 152 375 q 139 515 152 503 q 110 528 127 528 q 80 515 92 528 q 68 486 68 503 q 134 242 68 352 q 310 66 199 132 q 554 0 420 0 z "},"Ô":{"ha":1107,"x_min":68,"x_max":1040,"o":"m 671 1088 q 641 1101 654 1088 l 568 1173 l 496 1101 q 466 1088 482 1088 q 436 1101 450 1088 q 424 1131 424 1114 q 436 1160 424 1147 l 538 1262 q 568 1274 552 1274 q 597 1262 585 1274 l 700 1160 q 713 1131 713 1147 q 700 1101 713 1114 q 671 1088 688 1088 m 554 0 q 798 66 688 0 q 974 242 908 132 q 1040 486 1040 352 q 974 730 1040 620 q 798 906 908 840 q 554 972 688 972 q 524 960 536 972 q 512 930 512 947 q 524 900 512 913 q 554 888 536 888 q 756 833 665 888 q 901 688 847 779 q 956 486 956 597 q 901 284 956 375 q 756 138 847 193 q 554 84 665 84 q 352 138 443 84 q 206 284 260 193 q 152 486 152 375 q 139 515 152 503 q 110 528 127 528 q 80 515 92 528 q 68 486 68 503 q 134 242 68 352 q 310 66 199 132 q 554 0 420 0 z "},"Õ":{"ha":1107,"x_min":68,"x_max":1040,"o":"m 635 1075 q 579 1088 605 1076 q 535 1112 554 1100 q 484 1136 498 1136 q 456 1115 470 1136 q 422 1097 444 1097 q 398 1105 410 1097 q 380 1139 380 1119 q 389 1164 380 1152 q 484 1220 429 1220 l 494 1219 q 579 1184 542 1211 q 633 1158 618 1158 q 657 1170 646 1158 q 686 1181 669 1181 q 715 1167 703 1181 q 727 1138 727 1154 q 713 1108 726 1121 q 635 1075 673 1075 m 554 0 q 798 66 688 0 q 974 242 908 132 q 1040 486 1040 352 q 974 730 1040 620 q 798 906 908 840 q 554 972 688 972 q 524 960 536 972 q 512 930 512 947 q 524 900 512 913 q 554 888 536 888 q 756 833 665 888 q 901 688 847 779 q 956 486 956 597 q 901 284 956 375 q 756 138 847 193 q 554 84 665 84 q 352 138 443 84 q 206 284 260 193 q 152 486 152 375 q 139 515 152 503 q 110 528 127 528 q 80 515 92 528 q 68 486 68 503 q 134 242 68 352 q 310 66 199 132 q 554 0 420 0 z "},"Ö":{"ha":1107,"x_min":68,"x_max":1040,"o":"m 420 1088 q 384 1103 399 1088 q 369 1139 369 1118 q 384 1175 369 1160 q 420 1190 399 1190 q 456 1175 441 1190 q 471 1139 471 1160 q 456 1103 471 1118 q 420 1088 441 1088 m 688 1088 q 651 1103 666 1088 q 636 1139 636 1118 q 651 1175 636 1160 q 688 1190 666 1190 q 724 1175 709 1190 q 739 1139 739 1160 q 724 1103 739 1118 q 688 1088 709 1088 m 554 0 q 798 66 688 0 q 974 242 908 132 q 1040 486 1040 352 q 974 730 1040 620 q 798 906 908 840 q 554 972 688 972 q 524 960 536 972 q 512 930 512 947 q 524 900 512 913 q 554 888 536 888 q 756 833 665 888 q 901 688 847 779 q 956 486 956 597 q 901 284 956 375 q 756 138 847 193 q 554 84 665 84 q 352 138 443 84 q 206 284 260 193 q 152 486 152 375 q 139 515 152 503 q 110 528 127 528 q 80 515 92 528 q 68 486 68 503 q 134 242 68 352 q 310 66 199 132 q 554 0 420 0 z "},"×":{"ha":688,"x_min":0,"x_max":0,"o":""},"Ø":{"ha":1108,"x_min":68,"x_max":1040,"o":"m 554 0 q 385 30 465 0 q 241 114 305 60 l 191 64 q 161 52 177 52 q 132 64 145 52 q 119 94 119 77 q 132 123 119 109 l 182 174 q 98 317 128 237 q 68 486 68 397 q 80 516 68 504 q 110 528 92 528 q 140 516 127 528 q 152 486 152 504 q 241 233 152 342 l 807 799 q 554 888 698 888 q 524 901 536 888 q 512 930 512 913 q 524 960 512 948 q 554 972 536 972 q 723 942 644 972 q 867 859 803 912 l 917 909 q 947 921 930 921 q 977 909 963 921 q 989 879 989 895 q 977 849 989 863 l 926 799 q 1010 655 980 735 q 1040 486 1040 576 q 975 242 1040 352 q 799 66 909 132 q 554 0 688 0 m 554 84 q 756 138 665 84 q 902 284 848 193 q 956 486 956 375 q 867 739 956 630 l 301 174 q 554 84 410 84 z "},"Ù":{"ha":869,"x_min":109,"x_max":760,"o":"m 437 0 q 203 95 298 0 q 109 323 109 189 l 109 930 q 121 960 109 947 q 151 972 133 972 q 180 960 168 972 q 193 930 193 947 l 193 323 q 262 154 193 224 q 431 84 332 84 q 606 154 536 84 q 676 323 676 224 l 676 930 q 688 960 676 947 q 718 972 701 972 q 748 960 735 972 q 760 930 760 947 l 760 323 q 665 95 760 189 q 437 0 570 0 m 434 1050 q 395 1076 409 1050 l 323 1255 q 321 1271 321 1263 q 347 1310 321 1299 q 363 1313 355 1313 q 401 1286 391 1313 l 473 1107 q 476 1092 476 1099 q 450 1053 476 1064 q 434 1050 442 1050 z "},"Ú":{"ha":869,"x_min":109,"x_max":760,"o":"m 437 0 q 203 95 298 0 q 109 323 109 189 l 109 930 q 121 960 109 947 q 151 972 133 972 q 180 960 168 972 q 193 930 193 947 l 193 323 q 262 154 193 224 q 431 84 332 84 q 606 154 536 84 q 676 323 676 224 l 676 930 q 688 960 676 947 q 718 972 701 972 q 748 960 735 972 q 760 930 760 947 l 760 323 q 665 95 760 189 q 437 0 570 0 m 434 1050 q 418 1053 427 1050 q 393 1091 393 1064 q 395 1107 393 1099 l 467 1286 q 505 1313 478 1313 q 522 1310 513 1313 q 548 1272 548 1299 q 545 1255 548 1264 l 473 1076 q 434 1050 459 1050 z "},"Û":{"ha":869,"x_min":109,"x_max":760,"o":"m 437 0 q 203 95 298 0 q 109 323 109 189 l 109 930 q 121 960 109 947 q 151 972 133 972 q 180 960 168 972 q 193 930 193 947 l 193 323 q 262 154 193 224 q 431 84 332 84 q 606 154 536 84 q 676 323 676 224 l 676 930 q 688 960 676 947 q 718 972 701 972 q 748 960 735 972 q 760 930 760 947 l 760 323 q 665 95 760 189 q 437 0 570 0 m 536 1088 q 507 1101 520 1088 l 434 1173 l 361 1101 q 332 1088 348 1088 q 302 1101 315 1088 q 290 1128 290 1113 q 302 1160 290 1147 l 405 1262 q 434 1274 418 1274 q 464 1262 450 1274 l 566 1160 q 578 1131 578 1147 q 566 1101 578 1114 q 536 1088 553 1088 z "},"Ü":{"ha":869,"x_min":109,"x_max":760,"o":"m 437 0 q 203 95 298 0 q 109 323 109 189 l 109 930 q 121 960 109 947 q 151 972 133 972 q 180 960 168 972 q 193 930 193 947 l 193 323 q 262 154 193 224 q 431 84 332 84 q 606 154 536 84 q 676 323 676 224 l 676 930 q 688 960 676 947 q 718 972 701 972 q 748 960 735 972 q 760 930 760 947 l 760 323 q 665 95 760 189 q 437 0 570 0 m 300 1088 q 264 1103 279 1088 q 250 1139 250 1118 q 264 1176 250 1160 q 300 1191 279 1191 q 337 1176 322 1191 q 352 1139 352 1160 q 337 1103 352 1118 q 300 1088 322 1088 m 568 1088 q 532 1103 547 1088 q 517 1139 517 1118 q 532 1176 517 1160 q 568 1191 547 1191 q 604 1176 589 1191 q 619 1139 619 1160 q 604 1103 619 1118 q 568 1088 589 1088 z "},"Ý":{"ha":817,"x_min":68,"x_max":749,"o":"m 408 1050 q 393 1053 401 1050 q 370 1076 376 1060 q 367 1092 367 1084 q 370 1107 367 1099 l 441 1286 q 479 1313 452 1313 q 519 1287 508 1313 q 522 1272 522 1280 q 519 1255 522 1264 l 448 1076 q 408 1050 433 1050 m 408 444 q 374 463 388 444 l 75 907 q 68 930 68 918 q 86 965 68 952 q 111 972 98 972 q 124 970 114 972 q 144 954 134 968 l 408 562 l 673 954 q 707 972 686 972 q 731 965 719 972 q 749 931 749 952 q 742 907 749 919 l 444 463 q 408 444 429 444 m 408 0 q 379 12 391 0 q 367 42 367 24 l 367 311 q 379 340 367 328 q 408 353 391 353 q 438 340 426 353 q 450 311 450 328 l 450 42 q 438 12 450 24 q 408 0 426 0 z "},"Þ":{"ha":807,"x_min":136,"x_max":739,"o":"m 178 0 q 207 12 195 0 q 220 42 220 24 l 220 222 l 477 222 q 663 299 586 222 q 739 484 739 376 q 663 673 739 597 q 477 750 586 750 l 220 750 l 220 930 q 207 960 220 947 q 178 972 195 972 q 148 960 160 972 q 136 930 136 947 l 136 708 q 148 679 136 691 q 178 666 160 666 l 477 666 q 604 614 551 666 q 656 488 656 562 q 604 358 656 410 q 477 306 551 306 l 178 306 q 148 294 160 306 q 136 264 136 281 l 136 42 q 148 12 136 24 q 178 0 160 0 z "},"ß":{"ha":748,"x_min":136,"x_max":680,"o":"m 475 0 q 620 60 559 0 q 680 207 680 121 q 583 383 680 316 q 421 506 433 477 q 452 551 426 518 q 512 640 483 587 q 543 768 541 693 q 484 912 543 852 q 338 972 421 972 q 195 913 254 972 q 136 771 136 854 q 148 742 136 754 q 178 730 160 730 q 207 742 195 730 q 220 771 220 754 q 254 854 220 820 q 338 888 288 888 q 425 853 388 888 q 459 769 459 818 q 435 675 457 715 q 386 603 412 635 q 351 553 365 577 q 336 503 336 530 q 350 462 336 486 q 407 402 363 439 q 538 311 451 366 q 596 207 596 272 q 561 120 596 155 q 475 84 525 84 l 355 84 q 326 72 338 84 q 314 42 314 59 q 326 12 314 24 q 355 0 338 0 l 475 0 z "},"à":{"ha":951,"x_min":68,"x_max":884,"o":"m 467 1050 q 429 1076 442 1050 l 357 1255 q 354 1271 354 1263 q 380 1310 354 1299 q 397 1313 389 1313 q 435 1286 422 1313 l 506 1107 q 509 1091 509 1099 q 483 1053 509 1064 q 467 1050 475 1050 m 842 0 q 857 3 850 0 q 884 41 884 14 q 880 58 884 50 l 515 946 q 475 972 501 972 q 437 946 450 972 l 71 58 q 68 41 68 50 q 94 3 68 14 q 111 0 102 0 q 149 26 137 0 l 475 820 l 803 26 q 842 0 817 0 z "},"á":{"ha":951,"x_min":68,"x_max":884,"o":"m 484 1050 q 469 1053 476 1050 q 446 1076 452 1060 q 442 1092 442 1084 q 445 1107 442 1099 l 517 1286 q 539 1310 524 1303 q 555 1313 547 1313 q 571 1310 563 1313 q 597 1271 597 1299 q 595 1255 597 1263 l 523 1076 q 484 1050 509 1050 m 842 0 q 857 3 850 0 q 884 41 884 14 q 880 58 884 50 l 515 946 q 475 972 501 972 q 437 946 450 972 l 71 58 q 68 41 68 50 q 94 3 68 14 q 111 0 102 0 q 149 26 137 0 l 475 820 l 803 26 q 842 0 817 0 z "},"â":{"ha":951,"x_min":68,"x_max":884,"o":"m 578 1088 q 549 1101 562 1088 l 475 1173 l 403 1101 q 373 1088 389 1088 q 344 1101 357 1088 q 332 1131 332 1114 q 344 1160 332 1147 l 446 1262 q 475 1274 460 1274 q 505 1262 492 1274 l 608 1160 q 620 1131 620 1147 q 607 1101 620 1114 q 578 1088 595 1088 m 842 0 q 857 3 850 0 q 884 41 884 14 q 880 58 884 50 l 515 946 q 475 972 501 972 q 437 946 450 972 l 71 58 q 68 41 68 50 q 94 3 68 14 q 111 0 102 0 q 149 26 137 0 l 475 820 l 803 26 q 842 0 817 0 z "},"ã":{"ha":951,"x_min":68,"x_max":884,"o":"m 557 1075 q 456 1113 511 1077 q 407 1137 420 1136 q 378 1115 393 1137 q 345 1097 365 1097 q 320 1105 332 1097 q 302 1139 302 1119 q 311 1164 302 1152 q 407 1221 352 1221 l 416 1220 q 500 1184 464 1211 q 555 1159 540 1159 q 578 1170 568 1159 q 606 1181 591 1181 q 616 1181 608 1181 q 636 1168 625 1181 q 648 1140 648 1156 l 648 1130 q 635 1109 648 1121 q 557 1075 595 1075 m 842 0 q 857 3 850 0 q 884 41 884 14 q 880 58 884 50 l 515 946 q 475 972 501 972 q 437 946 450 972 l 71 58 q 68 41 68 50 q 94 3 68 14 q 111 0 102 0 q 149 26 137 0 l 475 820 l 803 26 q 842 0 817 0 z "},"ä":{"ha":951,"x_min":68,"x_max":884,"o":"m 342 1088 q 306 1103 321 1088 q 291 1139 291 1118 q 306 1176 291 1160 q 342 1191 321 1191 q 378 1176 363 1191 q 393 1139 393 1160 q 378 1103 393 1118 q 342 1088 363 1088 m 609 1088 q 573 1103 588 1088 q 558 1139 558 1118 q 573 1176 558 1160 q 609 1191 588 1191 q 646 1176 631 1191 q 661 1139 661 1160 q 646 1103 661 1118 q 609 1088 631 1088 m 842 0 q 857 3 850 0 q 884 41 884 14 q 880 58 884 50 l 515 946 q 475 972 501 972 q 437 946 450 972 l 71 58 q 68 41 68 50 q 94 3 68 14 q 111 0 102 0 q 149 26 137 0 l 475 820 l 803 26 q 842 0 817 0 z "},"å":{"ha":951,"x_min":68,"x_max":884,"o":"m 475 1034 q 401 1065 432 1034 q 371 1139 371 1096 q 401 1214 371 1183 q 475 1244 432 1244 q 550 1214 519 1244 q 581 1139 581 1183 q 550 1065 581 1096 q 475 1034 519 1034 m 475 1076 q 520 1095 502 1076 q 538 1139 538 1114 q 520 1184 538 1165 q 475 1202 502 1202 q 431 1184 450 1202 q 413 1139 413 1165 q 431 1095 413 1114 q 475 1076 450 1076 m 842 0 q 857 3 850 0 q 884 41 884 14 q 880 58 884 50 l 515 946 q 475 972 501 972 q 437 946 450 972 l 71 58 q 68 41 68 50 q 94 3 68 14 q 111 0 102 0 q 149 26 137 0 l 475 820 l 803 26 q 842 0 817 0 z "},"æ":{"ha":1263,"x_min":68,"x_max":1195,"o":"m 1153 0 l 633 0 q 604 12 616 0 q 591 42 591 24 l 591 888 l 504 888 l 149 26 q 110 0 134 0 q 94 3 102 0 q 68 41 68 14 q 71 58 68 50 l 437 946 q 475 972 450 972 l 1153 972 q 1183 960 1171 972 q 1195 930 1195 947 q 1183 901 1195 913 q 1153 888 1171 888 l 675 888 l 675 528 l 1051 528 q 1081 516 1069 528 q 1093 486 1093 503 q 1081 456 1093 469 q 1051 444 1069 444 l 675 444 l 675 84 l 1153 84 q 1183 72 1171 84 q 1195 42 1195 59 q 1183 12 1195 24 q 1153 0 1171 0 z "},"ç":{"ha":998,"x_min":68,"x_max":910,"o":"m 604 -231 l 507 -231 q 492 -224 498 -231 q 486 -210 486 -218 q 492 -195 486 -201 q 507 -189 498 -189 l 604 -189 q 647 -175 627 -189 q 667 -132 667 -162 q 647 -90 667 -104 q 604 -77 627 -77 l 557 -77 q 543 -71 549 -77 q 536 -56 536 -64 l 536 1 q 210 142 352 7 q 68 486 68 292 q 210 830 68 681 q 431 956 307 925 q 554 972 492 972 q 708 949 616 972 q 898 830 801 925 q 910 800 910 817 q 898 770 910 784 q 868 758 884 758 q 838 770 852 758 q 554 888 718 888 q 427 869 503 888 q 269 770 350 849 q 152 486 152 648 q 269 202 152 325 q 554 84 391 84 q 682 104 605 84 q 838 202 758 123 q 868 214 852 214 q 898 202 884 214 q 910 172 910 189 q 898 142 910 156 q 578 1 759 9 l 578 -35 l 604 -35 q 680 -62 650 -35 q 709 -132 709 -90 q 680 -203 709 -176 q 604 -231 650 -231 z "},"è":{"ha":848,"x_min":122,"x_max":726,"o":"m 437 1050 q 399 1076 412 1050 l 327 1255 q 324 1271 324 1263 q 351 1310 324 1299 q 367 1313 359 1313 q 405 1286 394 1313 l 477 1107 q 479 1092 479 1099 q 453 1053 479 1064 q 437 1050 446 1050 m 684 0 l 164 0 q 134 12 146 0 q 122 42 122 24 q 134 72 122 59 q 164 84 146 84 l 684 84 q 713 72 701 84 q 726 42 726 59 q 713 12 726 24 q 684 0 701 0 m 684 888 l 164 888 q 134 901 146 888 q 122 930 122 913 q 134 960 122 947 q 164 972 146 972 l 684 972 q 713 960 701 972 q 726 930 726 947 q 713 901 726 913 q 684 888 701 888 m 684 444 l 164 444 q 134 456 146 444 q 122 486 122 469 q 134 516 122 503 q 164 528 146 528 l 684 528 q 713 516 701 528 q 726 486 726 503 q 713 456 726 469 q 684 444 701 444 z "},"é":{"ha":848,"x_min":122,"x_max":726,"o":"m 437 1050 q 422 1053 430 1050 q 396 1091 396 1064 q 399 1107 396 1099 l 470 1286 q 509 1313 482 1313 q 525 1310 517 1313 q 551 1272 551 1299 q 548 1255 551 1264 l 477 1076 q 437 1050 463 1050 m 684 0 l 164 0 q 134 12 146 0 q 122 42 122 24 q 134 72 122 59 q 164 84 146 84 l 684 84 q 713 72 701 84 q 726 42 726 59 q 713 12 726 24 q 684 0 701 0 m 684 888 l 164 888 q 134 901 146 888 q 122 930 122 913 q 134 960 122 947 q 164 972 146 972 l 684 972 q 713 960 701 972 q 726 930 726 947 q 713 901 726 913 q 684 888 701 888 m 684 444 l 164 444 q 134 456 146 444 q 122 486 122 469 q 134 516 122 503 q 164 528 146 528 l 684 528 q 713 516 701 528 q 726 486 726 503 q 713 456 726 469 q 684 444 701 444 z "},"ê":{"ha":848,"x_min":122,"x_max":726,"o":"m 540 1088 q 511 1101 524 1088 l 437 1173 l 365 1101 q 335 1088 352 1088 q 306 1101 318 1088 q 293 1131 293 1114 q 306 1160 293 1147 l 408 1262 q 437 1274 422 1274 q 467 1262 454 1274 l 570 1160 q 582 1131 582 1147 q 570 1101 582 1114 q 540 1088 556 1088 m 684 0 l 164 0 q 134 12 146 0 q 122 42 122 24 q 134 72 122 59 q 164 84 146 84 l 684 84 q 713 72 701 84 q 726 42 726 59 q 713 12 726 24 q 684 0 701 0 m 684 888 l 164 888 q 134 901 146 888 q 122 930 122 913 q 134 960 122 947 q 164 972 146 972 l 684 972 q 713 960 701 972 q 726 930 726 947 q 713 901 726 913 q 684 888 701 888 m 684 444 l 164 444 q 134 456 146 444 q 122 486 122 469 q 134 516 122 503 q 164 528 146 528 l 684 528 q 713 516 701 528 q 726 486 726 503 q 713 456 726 469 q 684 444 701 444 z "},"ë":{"ha":848,"x_min":122,"x_max":726,"o":"m 304 1088 q 268 1103 283 1088 q 253 1139 253 1118 q 268 1176 253 1160 q 304 1191 283 1191 q 340 1176 326 1191 q 355 1139 355 1160 q 340 1103 355 1118 q 304 1088 326 1088 m 571 1088 q 535 1103 550 1088 q 520 1139 520 1118 q 535 1176 520 1160 q 571 1191 550 1191 q 608 1176 593 1191 q 623 1139 623 1160 q 608 1103 623 1118 q 571 1088 593 1088 m 684 0 l 164 0 q 134 12 146 0 q 122 42 122 24 q 134 72 122 59 q 164 84 146 84 l 684 84 q 713 72 701 84 q 726 42 726 59 q 713 12 726 24 q 684 0 701 0 m 684 888 l 164 888 q 134 901 146 888 q 122 930 122 913 q 134 960 122 947 q 164 972 146 972 l 684 972 q 713 960 701 972 q 726 930 726 947 q 713 901 726 913 q 684 888 701 888 m 684 444 l 164 444 q 134 456 146 444 q 122 486 122 469 q 134 516 122 503 q 164 528 146 528 l 684 528 q 713 516 701 528 q 726 486 726 503 q 713 456 726 469 q 684 444 701 444 z "},"ì":{"ha":353,"x_min":62,"x_max":218,"o":"m 176 0 q 146 12 159 0 q 134 42 134 24 l 134 930 q 146 960 134 947 q 176 972 159 972 q 205 960 193 972 q 218 930 218 947 l 218 42 q 205 12 218 24 q 176 0 193 0 m 176 1050 q 137 1076 151 1050 l 65 1255 q 62 1271 62 1263 q 89 1310 62 1299 q 104 1312 97 1312 q 143 1286 132 1312 l 215 1107 q 218 1092 218 1099 q 191 1053 218 1064 q 176 1050 184 1050 z "},"í":{"ha":353,"x_min":136,"x_max":291,"o":"m 178 0 q 148 12 160 0 q 136 42 136 24 l 136 930 q 148 960 136 947 q 178 972 160 972 q 207 960 195 972 q 220 930 220 947 l 220 42 q 207 12 220 24 q 178 0 195 0 m 178 1050 q 162 1053 170 1050 q 136 1092 136 1065 q 138 1107 136 1099 l 210 1286 q 249 1312 221 1312 q 264 1310 257 1312 q 291 1271 291 1299 q 288 1255 291 1263 l 216 1076 q 178 1050 203 1050 z "},"î":{"ha":355,"x_min":33,"x_max":322,"o":"m 178 0 q 148 12 160 0 q 136 42 136 24 l 136 930 q 148 960 136 947 q 178 972 160 972 q 207 960 195 972 q 220 930 220 947 l 220 42 q 207 12 220 24 q 178 0 195 0 m 280 1084 q 250 1097 264 1084 l 178 1169 l 104 1097 q 75 1084 92 1084 q 46 1097 58 1084 q 33 1126 33 1109 q 45 1156 33 1143 l 148 1258 q 178 1270 161 1270 q 207 1258 193 1270 l 309 1156 q 322 1126 322 1143 q 310 1097 322 1109 q 280 1084 296 1084 z "},"ï":{"ha":355,"x_min":-7,"x_max":362,"o":"m 178 0 q 148 12 160 0 q 136 42 136 24 l 136 930 q 148 960 136 947 q 178 972 160 972 q 207 960 195 972 q 219 930 219 947 l 219 42 q 207 12 219 24 q 178 0 195 0 m 44 1088 q 7 1103 22 1088 q -7 1139 -7 1118 q 7 1175 -7 1160 q 44 1190 22 1190 q 80 1175 65 1190 q 95 1139 95 1160 q 80 1103 95 1118 q 44 1088 65 1088 m 311 1088 q 275 1103 290 1088 q 260 1139 260 1118 q 275 1175 260 1160 q 311 1190 290 1190 q 347 1175 332 1190 q 362 1139 362 1160 q 347 1103 362 1118 q 311 1088 332 1088 z "},"ð":{"ha":1029,"x_min":20,"x_max":961,"o":"m 479 0 l 198 0 q 168 12 180 0 q 156 42 156 24 q 168 72 156 59 q 198 84 180 84 l 479 84 q 679 138 589 84 q 823 282 770 191 q 877 481 877 372 q 823 690 877 600 q 679 834 770 781 q 479 888 589 888 l 198 888 q 168 901 180 888 q 156 930 156 913 q 168 960 156 947 q 198 972 180 972 l 479 972 q 722 907 612 972 q 896 733 831 842 q 961 490 961 623 q 896 239 961 349 q 722 65 831 130 q 479 0 612 0 m 481 486 l 62 486 q 33 498 45 486 q 20 528 20 511 q 33 557 20 545 q 62 570 45 570 l 481 570 q 511 557 499 570 q 524 528 524 545 q 511 498 524 511 q 481 486 499 486 z "},"ñ":{"ha":974,"x_min":136,"x_max":838,"o":"m 796 0 q 762 18 776 0 l 220 797 l 220 42 q 207 12 220 24 q 178 0 195 0 q 148 12 160 0 q 136 42 136 24 l 136 930 q 165 970 136 958 q 178 972 172 972 q 212 954 198 972 l 754 176 l 754 930 q 767 960 754 947 q 796 972 779 972 q 826 960 814 972 q 838 930 838 947 l 838 42 q 809 2 838 14 q 796 0 802 0 m 568 1075 q 468 1113 521 1077 q 418 1137 432 1136 q 390 1115 404 1137 q 356 1097 376 1097 q 332 1105 343 1097 q 314 1139 314 1119 q 322 1164 314 1152 q 416 1220 363 1220 l 427 1219 q 512 1184 475 1211 q 567 1159 551 1159 q 590 1170 578 1159 q 617 1181 602 1181 q 627 1181 618 1181 q 648 1168 636 1181 q 660 1140 660 1156 q 660 1130 660 1139 q 646 1109 659 1121 q 568 1075 606 1075 z "},"ò":{"ha":1107,"x_min":68,"x_max":1040,"o":"m 525 1050 q 486 1076 500 1050 l 414 1255 q 412 1271 412 1263 q 438 1310 412 1299 q 454 1312 446 1312 q 492 1286 481 1312 l 564 1107 q 567 1092 567 1099 q 541 1053 567 1065 q 525 1050 533 1050 m 554 0 q 798 66 688 0 q 974 242 908 132 q 1040 486 1040 352 q 974 730 1040 620 q 798 906 908 840 q 554 972 688 972 q 524 960 536 972 q 512 930 512 947 q 524 900 512 913 q 554 888 536 888 q 756 833 665 888 q 901 688 847 779 q 956 486 956 597 q 901 284 956 375 q 756 138 847 193 q 554 84 665 84 q 352 138 443 84 q 206 284 260 193 q 152 486 152 375 q 139 515 152 503 q 110 528 127 528 q 80 515 92 528 q 68 486 68 503 q 134 242 68 352 q 310 66 199 132 q 554 0 420 0 z "},"ó":{"ha":1107,"x_min":68,"x_max":1040,"o":"m 553 1050 q 538 1053 546 1050 q 512 1092 512 1064 q 515 1107 512 1099 l 587 1286 q 625 1312 597 1312 q 641 1310 633 1312 q 667 1271 667 1299 q 665 1255 667 1263 l 593 1076 q 553 1050 578 1050 m 554 0 q 798 66 688 0 q 974 242 908 132 q 1040 486 1040 352 q 974 730 1040 620 q 798 906 908 840 q 554 972 688 972 q 524 960 536 972 q 512 930 512 947 q 524 900 512 913 q 554 888 536 888 q 756 833 665 888 q 901 688 847 779 q 956 486 956 597 q 901 284 956 375 q 756 138 847 193 q 554 84 665 84 q 352 138 443 84 q 206 284 260 193 q 152 486 152 375 q 139 515 152 503 q 110 528 127 528 q 80 515 92 528 q 68 486 68 503 q 134 242 68 352 q 310 66 199 132 q 554 0 420 0 z "},"ô":{"ha":1107,"x_min":68,"x_max":1040,"o":"m 671 1088 q 641 1101 654 1088 l 568 1173 l 496 1101 q 466 1088 482 1088 q 436 1101 450 1088 q 424 1131 424 1114 q 436 1160 424 1147 l 538 1262 q 568 1274 552 1274 q 597 1262 585 1274 l 700 1160 q 713 1131 713 1147 q 700 1101 713 1114 q 671 1088 688 1088 m 554 0 q 798 66 688 0 q 974 242 908 132 q 1040 486 1040 352 q 974 730 1040 620 q 798 906 908 840 q 554 972 688 972 q 524 960 536 972 q 512 930 512 947 q 524 900 512 913 q 554 888 536 888 q 756 833 665 888 q 901 688 847 779 q 956 486 956 597 q 901 284 956 375 q 756 138 847 193 q 554 84 665 84 q 352 138 443 84 q 206 284 260 193 q 152 486 152 375 q 139 515 152 503 q 110 528 127 528 q 80 515 92 528 q 68 486 68 503 q 134 242 68 352 q 310 66 199 132 q 554 0 420 0 z "},"õ":{"ha":1107,"x_min":68,"x_max":1040,"o":"m 635 1075 q 579 1088 605 1076 q 535 1112 554 1100 q 484 1136 498 1136 q 456 1115 470 1136 q 422 1097 444 1097 q 398 1105 410 1097 q 380 1139 380 1119 q 389 1164 380 1152 q 484 1220 429 1220 l 494 1219 q 579 1184 542 1211 q 633 1158 618 1158 q 657 1170 646 1158 q 686 1181 669 1181 q 715 1167 703 1181 q 727 1138 727 1154 q 713 1108 726 1121 q 635 1075 673 1075 m 554 0 q 798 66 688 0 q 974 242 908 132 q 1040 486 1040 352 q 974 730 1040 620 q 798 906 908 840 q 554 972 688 972 q 524 960 536 972 q 512 930 512 947 q 524 900 512 913 q 554 888 536 888 q 756 833 665 888 q 901 688 847 779 q 956 486 956 597 q 901 284 956 375 q 756 138 847 193 q 554 84 665 84 q 352 138 443 84 q 206 284 260 193 q 152 486 152 375 q 139 515 152 503 q 110 528 127 528 q 80 515 92 528 q 68 486 68 503 q 134 242 68 352 q 310 66 199 132 q 554 0 420 0 z "},"ö":{"ha":1107,"x_min":68,"x_max":1040,"o":"m 420 1088 q 384 1103 399 1088 q 369 1139 369 1118 q 384 1175 369 1160 q 420 1190 399 1190 q 456 1175 441 1190 q 471 1139 471 1160 q 456 1103 471 1118 q 420 1088 441 1088 m 688 1088 q 651 1103 666 1088 q 636 1139 636 1118 q 651 1175 636 1160 q 688 1190 666 1190 q 724 1175 709 1190 q 739 1139 739 1160 q 724 1103 739 1118 q 688 1088 709 1088 m 554 0 q 798 66 688 0 q 974 242 908 132 q 1040 486 1040 352 q 974 730 1040 620 q 798 906 908 840 q 554 972 688 972 q 524 960 536 972 q 512 930 512 947 q 524 900 512 913 q 554 888 536 888 q 756 833 665 888 q 901 688 847 779 q 956 486 956 597 q 901 284 956 375 q 756 138 847 193 q 554 84 665 84 q 352 138 443 84 q 206 284 260 193 q 152 486 152 375 q 139 515 152 503 q 110 528 127 528 q 80 515 92 528 q 68 486 68 503 q 134 242 68 352 q 310 66 199 132 q 554 0 420 0 z "},"÷":{"ha":688,"x_min":0,"x_max":0,"o":""},"ø":{"ha":1108,"x_min":68,"x_max":1040,"o":"m 554 0 q 385 30 465 0 q 241 114 305 60 l 191 64 q 161 52 177 52 q 132 64 145 52 q 119 94 119 77 q 132 123 119 109 l 182 174 q 98 317 128 237 q 68 486 68 397 q 80 516 68 504 q 110 528 92 528 q 140 516 127 528 q 152 486 152 504 q 241 233 152 342 l 807 799 q 554 888 698 888 q 524 901 536 888 q 512 930 512 913 q 524 960 512 948 q 554 972 536 972 q 723 942 644 972 q 867 859 803 912 l 917 909 q 947 921 930 921 q 977 909 963 921 q 989 879 989 895 q 977 849 989 863 l 926 799 q 1010 655 980 735 q 1040 486 1040 576 q 975 242 1040 352 q 799 66 909 132 q 554 0 688 0 m 554 84 q 756 138 665 84 q 902 284 848 193 q 956 486 956 375 q 867 739 956 630 l 301 174 q 554 84 410 84 z "},"ù":{"ha":869,"x_min":109,"x_max":760,"o":"m 437 0 q 203 95 298 0 q 109 323 109 189 l 109 930 q 121 960 109 947 q 151 972 133 972 q 180 960 168 972 q 193 930 193 947 l 193 323 q 262 154 193 224 q 431 84 332 84 q 606 154 536 84 q 676 323 676 224 l 676 930 q 688 960 676 947 q 718 972 701 972 q 748 960 735 972 q 760 930 760 947 l 760 323 q 665 95 760 189 q 437 0 570 0 m 434 1050 q 395 1076 409 1050 l 323 1255 q 321 1271 321 1263 q 347 1310 321 1299 q 363 1313 355 1313 q 401 1286 391 1313 l 473 1107 q 476 1092 476 1099 q 450 1053 476 1064 q 434 1050 442 1050 z "},"ú":{"ha":869,"x_min":109,"x_max":760,"o":"m 437 0 q 203 95 298 0 q 109 323 109 189 l 109 930 q 121 960 109 947 q 151 972 133 972 q 180 960 168 972 q 193 930 193 947 l 193 323 q 262 154 193 224 q 431 84 332 84 q 606 154 536 84 q 676 323 676 224 l 676 930 q 688 960 676 947 q 718 972 701 972 q 748 960 735 972 q 760 930 760 947 l 760 323 q 665 95 760 189 q 437 0 570 0 m 434 1050 q 418 1053 427 1050 q 393 1091 393 1064 q 395 1107 393 1099 l 467 1286 q 505 1313 478 1313 q 522 1310 513 1313 q 548 1272 548 1299 q 545 1255 548 1264 l 473 1076 q 434 1050 459 1050 z "},"û":{"ha":869,"x_min":109,"x_max":760,"o":"m 437 0 q 203 95 298 0 q 109 323 109 189 l 109 930 q 121 960 109 947 q 151 972 133 972 q 180 960 168 972 q 193 930 193 947 l 193 323 q 262 154 193 224 q 431 84 332 84 q 606 154 536 84 q 676 323 676 224 l 676 930 q 688 960 676 947 q 718 972 701 972 q 748 960 735 972 q 760 930 760 947 l 760 323 q 665 95 760 189 q 437 0 570 0 m 536 1088 q 507 1101 520 1088 l 434 1173 l 361 1101 q 332 1088 348 1088 q 302 1101 315 1088 q 290 1128 290 1113 q 302 1160 290 1147 l 405 1262 q 434 1274 418 1274 q 464 1262 450 1274 l 566 1160 q 578 1131 578 1147 q 566 1101 578 1114 q 536 1088 553 1088 z "},"ü":{"ha":869,"x_min":109,"x_max":760,"o":"m 437 0 q 203 95 298 0 q 109 323 109 189 l 109 930 q 121 960 109 947 q 151 972 133 972 q 180 960 168 972 q 193 930 193 947 l 193 323 q 262 154 193 224 q 431 84 332 84 q 606 154 536 84 q 676 323 676 224 l 676 930 q 688 960 676 947 q 718 972 701 972 q 748 960 735 972 q 760 930 760 947 l 760 323 q 665 95 760 189 q 437 0 570 0 m 300 1088 q 264 1103 279 1088 q 250 1139 250 1118 q 264 1176 250 1160 q 300 1191 279 1191 q 337 1176 322 1191 q 352 1139 352 1160 q 337 1103 352 1118 q 300 1088 322 1088 m 568 1088 q 532 1103 547 1088 q 517 1139 517 1118 q 532 1176 517 1160 q 568 1191 547 1191 q 604 1176 589 1191 q 619 1139 619 1160 q 604 1103 619 1118 q 568 1088 589 1088 z "},"ý":{"ha":817,"x_min":68,"x_max":749,"o":"m 408 1050 q 393 1053 401 1050 q 370 1076 376 1060 q 367 1092 367 1084 q 370 1107 367 1099 l 441 1286 q 479 1313 452 1313 q 519 1287 508 1313 q 522 1272 522 1280 q 519 1255 522 1264 l 448 1076 q 408 1050 433 1050 m 408 444 q 374 463 388 444 l 75 907 q 68 930 68 918 q 86 965 68 952 q 111 972 98 972 q 124 970 114 972 q 144 954 134 968 l 408 562 l 673 954 q 707 972 686 972 q 731 965 719 972 q 749 931 749 952 q 742 907 749 919 l 444 463 q 408 444 429 444 m 408 0 q 379 12 391 0 q 367 42 367 24 l 367 311 q 379 340 367 328 q 408 353 391 353 q 438 340 426 353 q 450 311 450 328 l 450 42 q 438 12 450 24 q 408 0 426 0 z "},"þ":{"ha":807,"x_min":136,"x_max":739,"o":"m 178 0 q 207 12 195 0 q 220 42 220 24 l 220 222 l 477 222 q 663 299 586 222 q 739 484 739 376 q 663 673 739 597 q 477 750 586 750 l 220 750 l 220 930 q 207 960 220 947 q 178 972 195 972 q 148 960 160 972 q 136 930 136 947 l 136 708 q 148 679 136 691 q 178 666 160 666 l 477 666 q 604 614 551 666 q 656 488 656 562 q 604 358 656 410 q 477 306 551 306 l 178 306 q 148 294 160 306 q 136 264 136 281 l 136 42 q 148 12 136 24 q 178 0 160 0 z "},"ÿ":{"ha":817,"x_min":68,"x_max":749,"o":"m 275 1088 q 239 1103 254 1088 q 224 1139 224 1118 q 239 1176 224 1160 q 275 1191 254 1191 q 311 1176 296 1191 q 326 1139 326 1160 q 311 1103 326 1118 q 275 1088 296 1088 m 542 1088 q 506 1103 521 1088 q 491 1139 491 1118 q 506 1176 491 1160 q 542 1191 521 1191 q 578 1176 564 1191 q 593 1139 593 1160 q 578 1103 593 1118 q 542 1088 564 1088 m 408 444 q 374 463 388 444 l 75 907 q 68 930 68 918 q 86 965 68 952 q 111 972 98 972 q 124 970 114 972 q 144 954 134 968 l 408 562 l 673 954 q 707 972 686 972 q 731 965 719 972 q 749 931 749 952 q 742 907 749 919 l 444 463 q 408 444 429 444 m 408 0 q 379 12 391 0 q 367 42 367 24 l 367 311 q 379 340 367 328 q 408 353 391 353 q 438 340 426 353 q 450 311 450 328 l 450 42 q 438 12 450 24 q 408 0 426 0 z "},"ı":{"ha":355,"x_min":136,"x_max":220,"o":"m 178 0 q 208 12 195 0 q 220 42 220 24 l 220 930 q 208 960 220 948 q 178 972 195 972 q 148 960 160 972 q 136 930 136 948 l 136 42 q 148 12 136 24 q 178 0 160 0 z "},"ˆ":{"ha":694,"x_min":0,"x_max":0,"o":""},"ˇ":{"ha":694,"x_min":0,"x_max":0,"o":""},"ˉ":{"ha":694,"x_min":0,"x_max":0,"o":""},"˘":{"ha":694,"x_min":0,"x_max":0,"o":""},"˙":{"ha":694,"x_min":0,"x_max":0,"o":""},"˚":{"ha":694,"x_min":0,"x_max":0,"o":""},"˛":{"ha":694,"x_min":0,"x_max":0,"o":""},"˜":{"ha":694,"x_min":0,"x_max":0,"o":""},"˝":{"ha":694,"x_min":0,"x_max":0,"o":""},"–":{"ha":778,"x_min":68,"x_max":710,"o":"m 110 444 q 80 456 92 444 q 68 486 68 468 q 80 515 68 503 q 110 528 92 528 l 668 528 q 698 515 686 528 q 710 486 710 503 q 698 456 710 468 q 668 444 686 444 l 110 444 z "},"—":{"ha":1117,"x_min":68,"x_max":1049,"o":"m 110 444 q 80 456 92 444 q 68 486 68 468 q 80 515 68 503 q 110 528 92 528 l 1007 528 q 1037 515 1025 528 q 1049 486 1049 503 q 1037 456 1049 468 q 1007 444 1025 444 l 110 444 z "},"‘":{"ha":220,"x_min":68,"x_max":151,"o":"m 110 689 q 80 701 92 689 q 68 731 68 713 l 68 930 q 80 960 68 948 q 110 972 92 972 q 139 960 127 972 q 151 930 151 948 l 151 731 q 139 701 151 713 q 110 689 127 689 z "},"’":{"ha":220,"x_min":68,"x_max":151,"o":"m 110 689 q 80 701 92 689 q 68 731 68 713 l 68 930 q 80 960 68 948 q 110 972 92 972 q 139 960 127 972 q 151 930 151 948 l 151 731 q 139 701 151 713 q 110 689 127 689 z "},"‚":{"ha":220,"x_min":68,"x_max":151,"o":"m 110 -283 q 80 -271 92 -283 q 68 -241 68 -259 l 68 -42 q 80 -12 68 -24 q 110 0 92 0 q 139 -12 127 0 q 151 -42 151 -24 l 151 -241 q 139 -271 151 -259 q 110 -283 127 -283 z "},"“":{"ha":383,"x_min":68,"x_max":315,"o":"m 110 689 q 80 701 92 689 q 68 731 68 713 l 68 930 q 80 960 68 948 q 110 972 92 972 q 139 960 127 972 q 152 930 152 948 l 152 731 q 139 701 152 713 q 110 689 127 689 m 273 689 q 243 701 256 689 q 231 731 231 713 l 231 930 q 243 960 231 948 q 273 972 256 972 q 303 960 291 972 q 315 930 315 948 l 315 731 q 303 701 315 713 q 273 689 291 689 z "},"”":{"ha":383,"x_min":68,"x_max":315,"o":"m 110 689 q 80 701 92 689 q 68 731 68 713 l 68 930 q 80 960 68 948 q 110 972 92 972 q 139 960 127 972 q 152 930 152 948 l 152 731 q 139 701 152 713 q 110 689 127 689 m 273 689 q 243 701 256 689 q 231 731 231 713 l 231 930 q 243 960 231 948 q 273 972 256 972 q 303 960 291 972 q 315 930 315 948 l 315 731 q 303 701 315 713 q 273 689 291 689 z "},"„":{"ha":383,"x_min":68,"x_max":315,"o":"m 110 -283 q 80 -271 92 -283 q 68 -241 68 -259 l 68 -42 q 80 -12 68 -24 q 110 0 92 0 q 139 -12 127 0 q 152 -42 152 -24 l 152 -241 q 139 -271 152 -259 q 110 -283 127 -283 m 273 -283 q 243 -271 256 -283 q 231 -241 231 -259 l 231 -42 q 243 -12 231 -24 q 273 0 256 0 q 303 -12 291 0 q 315 -42 315 -24 l 315 -241 q 303 -271 315 -259 q 273 -283 291 -283 z "},"†":{"ha":688,"x_min":0,"x_max":0,"o":""},"‡":{"ha":688,"x_min":0,"x_max":0,"o":""},"•":{"ha":694,"x_min":0,"x_max":0,"o":""},"…":{"ha":1201,"x_min":68,"x_max":1133,"o":"m 194 0 q 282 37 245 0 q 319 126 319 74 q 282 215 319 178 q 194 252 245 252 q 105 215 142 252 q 68 126 68 178 q 105 37 68 74 q 194 0 142 0 m 194 84 q 164 96 176 84 q 152 126 152 109 q 164 155 152 143 q 194 168 176 168 q 223 155 211 168 q 235 126 235 143 q 223 96 235 109 q 194 84 211 84 m 601 0 q 689 37 652 0 q 726 126 726 74 q 689 215 726 178 q 601 252 652 252 q 512 215 549 252 q 475 126 475 178 q 512 37 475 74 q 601 0 549 0 m 601 84 q 571 96 583 84 q 559 126 559 109 q 571 155 559 143 q 601 168 583 168 q 630 155 618 168 q 642 126 642 143 q 630 96 642 109 q 601 84 618 84 m 1008 0 q 1096 37 1059 0 q 1133 126 1133 74 q 1096 215 1133 178 q 1008 252 1059 252 q 919 215 956 252 q 882 126 882 178 q 919 37 882 74 q 1008 0 956 0 m 1008 84 q 978 96 990 84 q 966 126 966 109 q 978 155 966 143 q 1008 168 990 168 q 1037 155 1025 168 q 1049 126 1049 143 q 1037 96 1049 109 q 1008 84 1025 84 z "},"‹":{"ha":518,"x_min":68,"x_max":450,"o":"m 408 266 q 445 286 430 266 q 450 307 450 297 q 430 344 450 331 l 192 486 l 430 627 q 450 664 450 640 q 445 685 450 675 q 408 706 432 706 q 387 700 397 706 l 88 522 q 68 486 68 508 q 88 450 68 464 l 387 272 q 408 266 397 266 z "},"›":{"ha":518,"x_min":68,"x_max":450,"o":"m 110 266 q 131 272 121 266 l 430 450 q 450 486 450 464 q 430 522 450 508 l 131 700 q 111 706 121 706 q 73 685 86 706 q 68 664 68 675 q 88 627 68 640 l 326 486 l 88 344 q 68 307 68 331 q 73 286 68 297 q 110 266 88 266 z "},"⁄":{"ha":747,"x_min":41,"x_max":707,"o":"m 82 0 q 59 7 71 0 q 41 43 41 20 q 47 65 41 54 l 630 954 q 665 972 644 972 q 688 966 677 972 q 707 930 707 952 q 700 907 707 918 l 117 19 q 82 0 102 0 z "},"∕":{"ha":747,"x_min":41,"x_max":707,"o":"m 82 0 q 59 7 71 0 q 41 43 41 20 q 47 65 41 54 l 630 954 q 665 972 644 972 q 688 966 677 972 q 707 930 707 952 q 700 907 707 918 l 117 19 q 82 0 102 0 z "},"₣":{"ha":688,"x_min":0,"x_max":0,"o":""},"₤":{"ha":688,"x_min":0,"x_max":0,"o":""},"₧":{"ha":1375,"x_min":0,"x_max":0,"o":""},"€":{"ha":688,"x_min":0,"x_max":0,"o":""},"№":{"ha":1535,"x_min":136,"x_max":1468,"o":"m 796 0 q 809 2 802 0 q 838 42 838 14 l 838 930 q 826 960 838 947 q 796 972 814 972 q 767 960 779 972 q 754 930 754 947 l 754 176 l 212 954 q 178 972 198 972 q 165 970 172 972 q 136 930 136 958 l 136 42 q 148 12 136 24 q 178 0 160 0 q 207 12 195 0 q 220 42 220 24 l 220 797 l 762 18 q 796 0 776 0 m 1426 158 q 1455 170 1443 158 q 1468 200 1468 182 q 1455 229 1468 217 q 1426 241 1443 241 l 1010 241 q 981 229 993 241 q 968 200 968 217 q 981 170 968 182 q 1010 158 993 158 l 1426 158 m 1218 351 q 1394 424 1321 351 q 1468 601 1468 497 q 1394 777 1468 704 q 1218 850 1321 850 q 1042 777 1115 850 q 968 601 968 704 q 1042 424 968 497 q 1218 351 1115 351 m 1218 435 q 1101 484 1149 435 q 1053 601 1053 532 q 1101 718 1053 669 q 1218 766 1149 766 q 1335 718 1286 766 q 1383 601 1383 669 q 1335 484 1383 532 q 1218 435 1286 435 z "},"™":{"ha":638,"x_min":54,"x_max":584,"o":"m 161 694 q 152 698 155 694 q 149 706 149 701 l 149 949 l 66 949 q 58 952 61 949 q 54 960 54 956 q 58 969 54 966 q 66 972 61 972 l 255 972 q 263 969 260 972 q 267 960 267 966 q 263 952 267 956 q 255 949 260 949 l 172 949 l 172 706 q 169 698 172 701 q 161 694 165 694 m 572 694 q 581 698 577 694 q 584 706 584 701 l 584 960 q 575 972 584 968 q 572 972 574 972 q 562 967 566 972 l 440 779 l 318 967 q 308 972 314 972 q 304 972 307 972 q 296 960 296 968 l 296 706 q 299 698 296 701 q 308 694 303 694 q 316 698 313 694 q 320 706 320 701 l 320 920 l 430 751 q 440 745 434 745 q 450 751 446 745 l 560 920 l 560 706 q 564 698 560 701 q 572 694 567 694 z "},"∂":{"ha":688,"x_min":0,"x_max":0,"o":""},"∆":{"ha":733,"x_min":0,"x_max":0,"o":""},"∏":{"ha":1027,"x_min":0,"x_max":0,"o":""},"∑":{"ha":818,"x_min":0,"x_max":0,"o":""},"−":{"ha":688,"x_min":0,"x_max":0,"o":""},"√":{"ha":688,"x_min":0,"x_max":0,"o":""},"∞":{"ha":688,"x_min":0,"x_max":0,"o":""},"∫":{"ha":451,"x_min":0,"x_max":0,"o":""},"≈":{"ha":688,"x_min":0,"x_max":0,"o":""},"≤":{"ha":688,"x_min":0,"x_max":0,"o":""},"≥":{"ha":688,"x_min":0,"x_max":0,"o":""},"":{"ha":728,"x_min":0,"x_max":0,"o":""},"ﬁ":{"ha":728,"x_min":0,"x_max":0,"o":""},"":{"ha":733,"x_min":0,"x_max":0,"o":""},"ﬂ":{"ha":733,"x_min":0,"x_max":0,"o":""},"Ā":{"ha":951,"x_min":68,"x_max":884,"o":"m 608 1097 l 343 1097 q 313 1109 326 1097 q 301 1139 301 1122 q 313 1169 301 1157 q 343 1181 326 1181 l 608 1181 q 638 1169 626 1181 q 650 1139 650 1157 q 638 1109 650 1122 q 608 1097 626 1097 m 842 0 q 857 3 850 0 q 884 41 884 14 q 880 58 884 50 l 515 946 q 475 972 501 972 q 437 946 450 972 l 71 58 q 68 41 68 50 q 94 3 68 14 q 111 0 102 0 q 149 26 137 0 l 475 820 l 803 26 q 842 0 817 0 z "},"Ă":{"ha":951,"x_min":68,"x_max":884,"o":"m 475 1088 q 374 1131 416 1088 q 332 1232 332 1173 q 344 1262 332 1250 q 374 1274 357 1274 q 404 1262 391 1274 q 416 1232 416 1250 q 433 1190 416 1208 q 475 1173 451 1173 q 518 1190 500 1173 q 536 1232 536 1208 q 548 1262 536 1250 q 578 1274 560 1274 q 607 1262 595 1274 q 619 1232 619 1250 q 577 1131 619 1173 q 475 1088 535 1088 m 842 0 q 857 3 850 0 q 884 41 884 14 q 880 58 884 50 l 515 946 q 475 972 501 972 q 437 946 450 972 l 71 58 q 68 41 68 50 q 94 3 68 14 q 111 0 102 0 q 149 26 137 0 l 475 820 l 803 26 q 842 0 817 0 z "},"Ą":{"ha":951,"x_min":68,"x_max":905,"o":"m 863 -168 l 822 -168 q 757 -141 784 -168 q 730 -75 730 -114 q 746 -22 730 -47 l 794 47 l 475 821 l 149 26 q 111 1 136 1 q 94 3 102 1 q 68 42 68 16 q 71 58 68 50 l 437 947 q 475 972 450 972 q 515 947 501 972 l 880 58 q 881 56 881 57 l 882 56 l 882 54 l 882 52 l 884 45 l 884 41 q 883 38 884 39 l 883 34 l 882 34 l 882 30 l 881 27 q 880 26 880 27 l 880 24 l 879 24 l 876 18 l 846 -26 q 813 -75 813 -73 q 816 -82 813 -79 q 863 -84 819 -84 q 893 -97 881 -84 q 905 -126 905 -109 q 893 -156 905 -144 q 863 -168 881 -168 z "},"Ć":{"ha":998,"x_min":68,"x_max":910,"o":"m 554 0 q 371 36 460 0 q 210 142 282 71 q 68 486 68 288 q 92 640 68 548 q 210 829 115 732 q 554 972 356 972 q 708 948 616 972 q 897 829 800 924 q 910 800 910 816 q 897 770 910 784 q 868 758 884 758 q 838 770 852 758 q 554 888 719 888 q 426 869 503 888 q 269 770 349 849 q 152 486 152 651 q 171 358 152 435 q 269 201 191 281 q 554 84 389 84 q 682 103 605 84 q 838 201 758 123 q 868 214 852 214 q 897 201 884 214 q 910 172 910 188 q 897 142 910 156 q 736 36 825 71 q 554 0 647 0 m 560 1050 q 545 1053 553 1050 q 519 1091 519 1065 q 522 1107 519 1099 l 593 1286 q 616 1309 600 1303 q 632 1312 624 1312 q 671 1287 660 1312 q 674 1272 674 1280 q 671 1255 674 1263 l 600 1076 q 560 1050 585 1050 z "},"Ĉ":{"ha":998,"x_min":68,"x_max":910,"o":"m 554 0 q 371 36 460 0 q 210 142 282 71 q 68 486 68 291 q 210 829 68 681 q 554 972 356 972 q 708 948 616 972 q 898 829 801 924 q 910 800 910 816 q 898 770 910 784 q 868 758 884 758 q 838 770 852 758 q 554 888 719 888 q 427 869 503 888 q 269 770 350 849 q 152 486 152 647 q 269 201 152 325 q 554 84 390 84 q 682 103 605 84 q 838 201 758 123 q 868 214 852 214 q 898 201 884 214 q 910 172 910 188 q 898 142 910 156 q 737 36 826 71 q 554 0 648 0 m 648 1088 q 618 1101 631 1088 l 545 1173 l 473 1101 q 443 1088 460 1088 q 413 1101 426 1088 q 401 1131 401 1114 q 413 1160 401 1147 l 515 1262 q 545 1274 529 1274 q 575 1262 562 1274 l 677 1160 q 690 1131 690 1147 q 677 1101 690 1114 q 648 1088 664 1088 z "},"Ċ":{"ha":998,"x_min":68,"x_max":910,"o":"m 554 0 q 371 36 460 0 q 210 142 282 71 q 68 486 68 291 q 210 829 68 681 q 554 972 356 972 q 708 948 616 972 q 898 829 801 924 q 910 800 910 816 q 898 770 910 784 q 868 758 884 758 q 838 770 852 758 q 554 888 719 888 q 427 869 503 888 q 269 770 350 849 q 152 486 152 647 q 269 201 152 325 q 554 84 390 84 q 682 103 605 84 q 838 201 758 123 q 868 214 852 214 q 898 201 884 214 q 910 172 910 188 q 898 142 910 156 q 737 36 826 71 q 554 0 648 0 m 579 1082 l 519 1082 q 500 1090 508 1082 q 492 1109 492 1098 l 492 1169 q 500 1189 492 1181 q 519 1197 508 1197 l 579 1197 q 599 1189 591 1197 q 607 1169 607 1181 l 607 1109 q 599 1090 607 1098 q 579 1082 591 1082 z "},"Č":{"ha":998,"x_min":68,"x_max":910,"o":"m 554 0 q 371 36 460 0 q 210 142 282 71 q 68 486 68 288 q 92 640 68 548 q 210 829 115 732 q 554 972 356 972 q 708 948 616 972 q 897 829 800 924 q 910 800 910 816 q 897 770 910 784 q 868 758 884 758 q 838 770 852 758 q 554 888 719 888 q 426 869 503 888 q 269 770 349 849 q 152 486 152 651 q 171 358 152 435 q 269 201 191 281 q 554 84 389 84 q 682 103 605 84 q 838 201 758 123 q 868 214 852 214 q 897 201 884 214 q 910 172 910 188 q 897 142 910 156 q 736 36 825 71 q 554 0 647 0 m 553 1088 q 524 1101 537 1088 l 421 1202 q 409 1232 409 1215 q 421 1261 409 1249 q 451 1274 434 1274 q 480 1262 467 1274 l 553 1190 l 626 1262 q 656 1274 639 1274 q 685 1262 672 1274 q 697 1234 697 1249 l 697 1224 q 685 1202 697 1215 l 583 1101 q 553 1088 569 1088 z "},"Ď":{"ha":1008,"x_min":136,"x_max":941,"o":"m 440 1088 q 410 1101 424 1088 l 308 1202 q 296 1232 296 1215 q 308 1262 296 1249 q 338 1274 321 1274 q 368 1262 354 1274 l 440 1190 l 513 1262 q 543 1274 526 1274 q 572 1262 559 1274 q 585 1232 585 1249 q 572 1202 585 1215 l 469 1101 q 440 1088 456 1088 m 459 0 q 701 65 592 0 q 876 239 810 130 q 941 481 941 349 q 876 733 941 623 q 701 907 810 842 q 459 972 592 972 l 178 972 q 148 960 160 972 q 136 930 136 947 q 148 901 136 913 q 178 888 160 888 l 459 888 q 659 834 569 888 q 803 690 749 781 q 857 490 857 600 q 803 282 857 372 q 659 138 749 191 q 459 84 569 84 l 178 84 q 148 72 160 84 q 136 42 136 59 q 148 12 136 24 q 178 0 160 0 l 459 0 z "},"Đ":{"ha":1029,"x_min":20,"x_max":961,"o":"m 479 0 l 198 0 q 168 12 180 0 q 156 42 156 24 q 168 72 156 59 q 198 84 180 84 l 479 84 q 679 138 589 84 q 823 282 770 191 q 877 481 877 372 q 823 690 877 600 q 679 834 770 781 q 479 888 589 888 l 198 888 q 168 901 180 888 q 156 930 156 913 q 168 960 156 947 q 198 972 180 972 l 479 972 q 722 907 612 972 q 896 733 831 842 q 961 490 961 623 q 896 239 961 349 q 722 65 831 130 q 479 0 612 0 m 481 486 l 62 486 q 33 498 45 486 q 20 528 20 511 q 33 557 20 545 q 62 570 45 570 l 481 570 q 511 557 499 570 q 524 528 524 545 q 511 498 524 511 q 481 486 499 486 z "},"Ē":{"ha":848,"x_min":122,"x_max":726,"o":"m 570 1097 l 305 1097 q 275 1109 288 1097 q 263 1139 263 1122 q 275 1169 263 1157 q 305 1181 288 1181 l 570 1181 q 600 1169 587 1181 q 612 1139 612 1157 q 600 1109 612 1122 q 570 1097 587 1097 m 684 0 l 164 0 q 134 12 146 0 q 122 42 122 24 q 134 72 122 59 q 164 84 146 84 l 684 84 q 713 72 701 84 q 726 42 726 59 q 713 12 726 24 q 684 0 701 0 m 684 888 l 164 888 q 134 901 146 888 q 122 930 122 913 q 134 960 122 947 q 164 972 146 972 l 684 972 q 713 960 701 972 q 726 930 726 947 q 713 901 726 913 q 684 888 701 888 m 684 444 l 164 444 q 134 456 146 444 q 122 486 122 469 q 134 516 122 503 q 164 528 146 528 l 684 528 q 713 516 701 528 q 726 486 726 503 q 713 456 726 469 q 684 444 701 444 z "},"Ĕ":{"ha":848,"x_min":122,"x_max":726,"o":"m 437 1088 q 336 1131 378 1088 q 294 1232 294 1173 q 306 1262 294 1250 q 336 1274 318 1274 q 366 1262 353 1274 q 378 1232 378 1250 q 395 1190 378 1208 q 437 1173 413 1173 q 480 1190 463 1173 q 498 1232 498 1208 q 510 1262 498 1250 q 539 1274 522 1274 q 569 1262 557 1274 q 581 1232 581 1250 q 539 1131 581 1173 q 437 1088 497 1088 m 684 0 l 164 0 q 134 12 146 0 q 122 42 122 24 q 134 72 122 59 q 164 84 146 84 l 684 84 q 713 72 701 84 q 726 42 726 59 q 713 12 726 24 q 684 0 701 0 m 684 888 l 164 888 q 134 901 146 888 q 122 930 122 913 q 134 960 122 947 q 164 972 146 972 l 684 972 q 713 960 701 972 q 726 930 726 947 q 713 901 726 913 q 684 888 701 888 m 684 444 l 164 444 q 134 456 146 444 q 122 486 122 469 q 134 516 122 503 q 164 528 146 528 l 684 528 q 713 516 701 528 q 726 486 726 503 q 713 456 726 469 q 684 444 701 444 z "},"Ė":{"ha":848,"x_min":122,"x_max":726,"o":"m 468 1082 l 408 1082 q 388 1090 396 1082 q 380 1109 380 1098 l 380 1169 q 388 1189 380 1181 q 408 1197 396 1197 l 468 1197 q 487 1189 479 1197 q 495 1169 495 1181 l 495 1109 q 487 1090 495 1098 q 468 1082 479 1082 m 684 0 l 164 0 q 134 12 146 0 q 122 42 122 24 q 134 72 122 59 q 164 84 146 84 l 684 84 q 713 72 701 84 q 726 42 726 59 q 713 12 726 24 q 684 0 701 0 m 684 888 l 164 888 q 134 901 146 888 q 122 930 122 913 q 134 960 122 947 q 164 972 146 972 l 684 972 q 713 960 701 972 q 726 930 726 947 q 713 901 726 913 q 684 888 701 888 m 684 444 l 164 444 q 134 456 146 444 q 122 486 122 469 q 134 516 122 503 q 164 528 146 528 l 684 528 q 713 516 701 528 q 726 486 726 503 q 713 456 726 469 q 684 444 701 444 z "},"Ę":{"ha":850,"x_min":122,"x_max":748,"o":"m 684 888 l 164 888 q 134 901 146 888 q 122 930 122 913 q 134 960 122 948 q 164 972 146 972 l 684 972 q 713 960 701 972 q 726 930 726 948 q 713 901 726 913 q 684 888 701 888 m 684 444 l 164 444 q 134 456 146 444 q 122 486 122 469 q 134 516 122 504 q 164 528 146 528 l 684 528 q 713 516 701 528 q 726 486 726 504 q 713 456 726 469 q 684 444 701 444 m 706 -168 l 665 -168 q 599 -141 626 -168 q 572 -75 572 -114 q 589 -22 572 -47 l 604 0 l 164 0 q 134 12 146 0 q 122 42 122 24 q 134 72 122 60 q 164 84 146 84 l 688 84 q 695 82 694 83 q 696 82 696 82 q 697 82 696 82 q 699 81 698 81 q 701 80 700 81 q 702 80 701 80 q 704 79 703 79 q 706 78 705 79 q 708 77 707 77 q 710 75 709 76 q 712 74 711 75 q 713 72 713 73 q 715 70 714 71 q 717 68 715 69 q 724 54 722 62 q 725 51 725 52 q 725 49 725 50 q 726 47 726 48 q 726 41 726 45 q 725 33 726 35 q 724 30 724 31 q 724 28 724 29 q 723 27 724 28 q 723 26 723 26 q 722 24 722 25 q 721 22 722 23 q 720 20 720 21 q 688 -26 720 20 q 656 -75 656 -73 q 658 -82 656 -79 q 706 -84 661 -84 q 736 -97 724 -84 q 748 -126 748 -109 q 736 -156 748 -144 q 706 -168 724 -168 z "},"Ě":{"ha":848,"x_min":122,"x_max":726,"o":"m 437 1088 q 408 1101 422 1088 l 306 1202 q 293 1232 293 1215 q 306 1262 293 1249 q 335 1274 318 1274 q 365 1262 352 1274 l 437 1190 l 511 1262 q 540 1274 524 1274 q 569 1262 557 1274 q 582 1232 582 1249 q 570 1202 582 1215 l 467 1101 q 437 1088 454 1088 m 684 0 l 164 0 q 134 12 146 0 q 122 42 122 24 q 134 72 122 59 q 164 84 146 84 l 684 84 q 713 72 701 84 q 726 42 726 59 q 713 12 726 24 q 684 0 701 0 m 684 888 l 164 888 q 134 901 146 888 q 122 930 122 913 q 134 960 122 947 q 164 972 146 972 l 684 972 q 713 960 701 972 q 726 930 726 947 q 713 901 726 913 q 684 888 701 888 m 684 444 l 164 444 q 134 456 146 444 q 122 486 122 469 q 134 516 122 503 q 164 528 146 528 l 684 528 q 713 516 701 528 q 726 486 726 503 q 713 456 726 469 q 684 444 701 444 z "},"Ĝ":{"ha":998,"x_min":68,"x_max":910,"o":"m 554 0 q 371 36 460 0 q 210 142 282 71 q 68 486 68 288 q 92 640 68 548 q 210 829 115 732 q 554 972 359 972 q 897 829 749 972 q 910 800 910 816 q 897 770 910 784 q 868 758 884 758 q 838 770 852 758 q 554 888 715 888 q 269 770 393 888 q 152 486 152 651 q 171 358 152 435 q 269 201 191 281 q 555 84 392 84 q 826 190 706 84 l 826 367 q 838 397 826 385 q 868 409 850 409 q 898 397 885 409 q 910 367 910 385 l 910 172 l 909 165 l 909 161 l 908 161 q 907 158 908 159 l 906 155 l 906 154 l 905 154 q 905 152 905 153 q 904 151 905 151 l 902 147 l 901 147 l 901 146 l 898 142 l 897 142 q 736 36 825 71 q 554 0 647 0 m 645 1088 q 615 1101 628 1088 l 543 1173 l 470 1101 q 440 1088 456 1088 q 410 1101 424 1088 q 398 1131 398 1114 q 410 1160 398 1147 l 513 1262 q 543 1274 526 1274 q 572 1262 559 1274 l 674 1160 q 687 1131 687 1147 q 674 1101 687 1114 q 645 1088 662 1088 z "},"Ğ":{"ha":998,"x_min":68,"x_max":910,"o":"m 554 0 q 371 36 460 0 q 210 142 282 71 q 68 486 68 288 q 92 640 68 548 q 210 829 115 732 q 554 972 359 972 q 897 829 749 972 q 910 800 910 816 q 897 770 910 784 q 868 758 884 758 q 838 770 852 758 q 554 888 715 888 q 269 770 393 888 q 152 486 152 651 q 171 358 152 435 q 269 201 191 281 q 553 84 392 84 q 826 190 705 84 l 826 367 q 838 397 826 385 q 868 409 850 409 q 898 397 885 409 q 910 367 910 385 l 910 172 l 909 165 l 909 161 l 908 161 q 907 158 908 159 l 906 155 l 906 154 q 905 153 905 154 q 905 152 905 153 q 904 151 905 151 l 902 147 l 901 147 l 901 146 l 898 142 l 897 142 q 736 36 825 71 q 554 0 647 0 m 545 1088 q 443 1131 485 1088 q 401 1232 401 1173 q 413 1262 401 1249 q 443 1274 425 1274 q 472 1262 460 1274 q 484 1232 484 1249 q 502 1190 484 1207 q 545 1172 519 1172 q 587 1190 569 1172 q 604 1232 604 1207 q 616 1262 604 1249 q 646 1274 629 1274 q 676 1262 664 1274 q 688 1232 688 1249 q 646 1131 688 1173 q 545 1088 604 1088 z "},"Ġ":{"ha":998,"x_min":68,"x_max":910,"o":"m 554 0 q 371 36 460 0 q 210 142 282 71 q 68 486 68 288 q 92 640 68 548 q 210 829 115 732 q 554 972 359 972 q 897 829 749 972 q 910 800 910 816 q 897 770 910 784 q 868 758 884 758 q 838 770 852 758 q 554 888 715 888 q 269 770 393 888 q 152 486 152 651 q 171 358 152 435 q 269 201 191 281 q 553 84 392 84 q 826 190 705 84 l 826 367 q 838 397 826 385 q 868 409 850 409 q 898 397 885 409 q 910 367 910 385 l 910 172 l 909 165 l 909 161 l 908 161 q 907 158 908 159 l 906 155 l 906 154 l 905 154 q 905 152 905 153 q 904 151 905 151 l 902 147 l 901 147 l 901 146 l 898 142 l 897 142 q 736 36 825 71 q 554 0 647 0 m 585 1082 l 525 1082 q 505 1090 513 1082 q 497 1109 497 1098 l 497 1169 q 505 1189 497 1181 q 525 1197 513 1197 l 585 1197 q 604 1189 596 1197 q 612 1169 612 1181 l 612 1109 q 604 1090 612 1098 q 585 1082 596 1082 z "},"Ģ":{"ha":998,"x_min":68,"x_max":910,"o":"m 554 1 q 371 36 460 1 q 210 142 282 71 q 68 486 68 288 q 92 641 68 548 q 210 830 115 733 q 554 972 359 972 q 897 830 749 972 q 910 800 910 817 q 897 770 910 784 q 868 758 884 758 q 838 770 852 758 q 554 888 715 888 q 269 770 393 888 q 152 486 152 651 q 171 359 152 435 q 269 202 191 282 q 553 84 393 84 q 826 190 705 84 l 826 367 q 838 397 826 385 q 868 409 850 409 q 898 397 885 409 q 910 367 910 385 q 909 168 910 170 l 909 166 q 909 164 909 165 l 909 162 l 909 161 q 907 159 908 159 l 907 157 l 904 151 q 902 148 902 148 q 901 147 902 147 l 898 143 l 898 142 l 897 142 q 736 36 825 71 q 554 1 647 1 m 588 -444 q 551 -420 562 -444 q 547 -402 547 -412 q 557 -362 547 -395 l 565 -336 l 564 -336 q 475 -299 511 -336 q 438 -210 438 -262 q 475 -121 438 -158 q 564 -84 511 -84 q 653 -121 616 -84 q 690 -210 690 -158 q 677 -263 690 -239 l 628 -414 q 588 -444 614 -444 m 564 -252 q 593 -240 581 -252 q 606 -210 606 -227 q 593 -180 606 -193 q 564 -168 581 -168 q 534 -180 547 -168 q 522 -210 522 -193 q 534 -240 522 -227 q 564 -252 547 -252 z "},"Ĥ":{"ha":917,"x_min":136,"x_max":781,"o":"m 561 1088 q 532 1101 545 1088 l 458 1173 l 386 1101 q 356 1088 373 1088 q 327 1101 339 1088 q 314 1131 314 1114 q 327 1160 314 1147 l 429 1262 q 458 1274 443 1274 q 488 1262 475 1274 l 591 1160 q 603 1131 603 1147 q 591 1101 603 1114 q 561 1088 577 1088 m 739 0 q 710 12 722 0 q 698 42 698 24 l 698 930 q 710 960 698 947 q 739 972 722 972 q 769 960 757 972 q 781 930 781 947 l 781 42 q 769 12 781 24 q 739 0 757 0 m 178 0 q 148 12 160 0 q 136 42 136 24 l 136 930 q 148 960 136 947 q 178 972 160 972 q 207 960 195 972 q 220 930 220 947 l 220 533 l 458 533 q 488 521 476 533 q 500 491 500 509 q 488 461 500 473 q 458 449 476 449 l 220 449 l 220 42 q 207 12 220 24 q 178 0 195 0 z "},"Ħ":{"ha":924,"x_min":41,"x_max":884,"o":"m 743 0 q 713 12 726 0 q 701 42 701 24 l 701 662 l 223 662 l 223 533 l 462 533 q 492 521 479 533 q 504 491 504 509 q 492 461 504 474 q 462 449 479 449 l 223 449 l 223 42 q 211 12 223 24 q 181 0 198 0 q 151 12 163 0 q 139 42 139 24 l 139 662 l 83 662 q 53 674 65 662 q 41 704 41 687 q 53 734 41 722 q 83 746 65 746 l 139 746 l 139 930 q 151 960 139 948 q 181 972 163 972 q 211 960 198 972 q 223 930 223 948 l 223 746 l 701 746 l 701 930 q 713 960 701 948 q 743 972 726 972 q 773 960 761 972 q 785 930 785 948 l 785 746 l 842 746 q 871 734 859 746 q 884 704 884 722 q 871 674 884 687 q 842 662 859 662 l 785 662 l 785 42 q 773 12 785 24 q 743 0 761 0 z "},"Ĩ":{"ha":354,"x_min":4,"x_max":350,"o":"m 177 0 q 147 12 159 0 q 135 42 135 24 l 135 930 q 147 960 135 947 q 177 972 159 972 q 207 960 195 972 q 219 930 219 947 l 219 42 q 207 12 219 24 q 177 0 195 0 m 258 1075 q 203 1087 229 1075 q 158 1112 177 1100 q 107 1136 122 1136 q 80 1114 94 1136 q 46 1097 66 1097 q 22 1105 33 1097 q 4 1139 4 1118 q 12 1164 4 1152 q 107 1220 53 1220 l 118 1219 q 202 1183 165 1211 q 256 1158 241 1158 q 279 1170 269 1158 q 307 1181 292 1181 l 317 1181 q 339 1168 326 1181 q 350 1139 350 1155 q 350 1129 350 1138 q 336 1108 349 1121 q 258 1075 296 1075 z "},"Ī":{"ha":355,"x_min":3,"x_max":352,"o":"m 177 0 q 148 12 160 0 q 136 42 136 24 l 136 930 q 148 960 136 947 q 177 972 160 972 q 207 960 195 972 q 219 930 219 947 l 219 42 q 207 12 219 24 q 177 0 195 0 m 310 1097 l 45 1097 q 15 1109 27 1097 q 3 1139 3 1122 q 15 1169 3 1156 q 45 1181 27 1181 l 310 1181 q 340 1169 328 1181 q 352 1139 352 1156 q 340 1109 352 1122 q 310 1097 328 1097 z "},"Ĭ":{"ha":355,"x_min":34,"x_max":321,"o":"m 178 0 q 148 12 160 0 q 136 42 136 24 l 136 930 q 148 960 136 947 q 178 972 160 972 q 208 960 195 972 q 220 930 220 947 l 220 42 q 208 12 220 24 q 178 0 195 0 m 178 1088 q 76 1131 118 1088 q 34 1232 34 1173 q 46 1262 34 1249 q 76 1274 58 1274 q 105 1262 93 1274 q 118 1232 118 1249 q 136 1190 118 1207 q 178 1172 153 1172 q 220 1190 203 1172 q 237 1232 237 1207 q 250 1262 237 1249 q 279 1274 262 1274 q 309 1262 297 1274 q 321 1232 321 1249 q 279 1131 321 1173 q 178 1088 237 1088 z "},"Į":{"ha":356,"x_min":65,"x_max":241,"o":"m 199 -168 l 157 -168 q 92 -140 119 -168 q 65 -75 65 -113 q 81 -22 65 -46 l 136 56 l 136 930 q 148 960 136 948 q 177 972 160 972 q 207 960 195 972 q 219 930 219 948 l 219 39 l 218 35 q 218 32 218 33 q 217 31 218 31 q 217 29 217 30 q 217 28 217 28 q 216 26 216 27 q 215 25 216 26 q 214 23 215 24 q 213 21 214 22 q 181 -26 212 20 q 149 -75 149 -72 q 152 -81 149 -79 q 199 -83 154 -83 q 229 -96 217 -83 q 241 -125 241 -109 q 229 -155 241 -143 q 199 -168 217 -168 z "},"İ":{"ha":359,"x_min":122,"x_max":237,"o":"m 180 0 q 150 12 162 0 q 138 42 138 24 l 138 930 q 150 960 138 947 q 180 972 162 972 q 210 960 197 972 q 222 930 222 947 l 222 42 q 210 12 222 24 q 180 0 197 0 m 210 1082 l 150 1082 q 130 1090 138 1082 q 122 1109 122 1098 l 122 1169 q 130 1189 122 1181 q 150 1197 138 1197 l 210 1197 q 229 1189 221 1197 q 237 1169 237 1181 l 237 1109 q 229 1090 237 1098 q 210 1082 221 1082 z "},"Ĳ":{"ha":1070,"x_min":136,"x_max":935,"o":"m 178 0 q 148 13 160 0 q 136 42 136 25 l 136 930 q 148 960 136 947 q 178 972 160 972 q 207 960 195 972 q 220 930 220 947 l 220 42 q 207 13 220 25 q 178 0 195 0 m 647 0 l 616 0 q 414 84 498 0 q 331 286 331 168 q 343 317 331 305 q 372 330 355 330 q 402 317 390 330 q 414 286 414 305 q 473 143 414 202 q 616 84 532 84 l 647 84 q 791 144 731 84 q 850 288 850 203 l 850 930 q 863 960 850 947 q 892 972 876 972 q 922 960 910 972 q 935 930 935 947 l 935 288 q 850 84 935 169 q 647 0 766 0 z "},"Ĵ":{"ha":807,"x_min":68,"x_max":775,"o":"m 385 0 l 353 0 q 151 84 235 0 q 68 286 68 168 q 80 317 68 305 q 110 330 92 330 q 139 317 127 330 q 152 286 152 305 q 211 143 152 202 q 353 84 270 84 l 385 84 q 528 144 469 84 q 588 288 588 203 l 588 930 q 600 960 588 947 q 630 972 612 972 q 659 960 647 972 q 671 930 671 947 l 671 288 q 587 84 671 169 q 385 0 503 0 m 734 1088 q 704 1101 717 1088 l 631 1173 l 558 1101 q 529 1088 545 1088 q 499 1101 513 1088 q 487 1131 487 1114 q 499 1160 487 1147 l 602 1262 q 631 1274 615 1274 q 661 1262 647 1274 l 763 1160 q 775 1129 775 1147 q 763 1101 775 1113 q 734 1088 750 1088 z "},"Ķ":{"ha":933,"x_min":136,"x_max":865,"o":"m 491 -444 q 478 -441 484 -444 q 449 -401 449 -431 q 469 -336 449 -394 l 467 -336 q 467 -336 467 -336 q 377 -299 414 -336 q 340 -210 340 -262 q 377 -121 340 -158 q 467 -84 414 -84 q 555 -121 518 -84 q 592 -210 592 -158 q 581 -263 592 -239 l 531 -414 q 491 -444 517 -444 m 467 -252 q 496 -240 484 -252 q 509 -210 509 -228 q 496 -181 509 -193 q 467 -168 484 -168 q 437 -181 449 -168 q 425 -210 425 -193 q 437 -240 425 -228 q 467 -252 449 -252 m 178 0 q 148 12 160 0 q 136 42 136 24 l 136 930 q 148 960 136 947 q 178 972 160 972 q 207 960 195 972 q 220 930 220 947 l 220 42 q 207 12 220 24 q 178 0 195 0 m 823 1 q 791 15 805 1 l 411 458 q 401 486 401 471 q 411 513 401 500 l 791 958 q 823 972 805 972 q 850 962 838 972 q 865 930 865 949 q 855 903 865 916 l 498 486 l 855 70 q 865 43 865 58 q 865 32 865 41 q 851 12 864 22 q 823 1 838 1 z "},"Ĺ":{"ha":739,"x_min":136,"x_max":671,"o":"m 629 0 l 178 0 q 148 12 160 0 q 136 42 136 24 l 136 930 q 148 960 136 947 q 178 972 160 972 q 207 960 195 972 q 220 930 220 947 l 220 84 l 629 84 q 659 72 647 84 q 671 42 671 59 q 659 12 671 24 q 629 0 647 0 m 178 1050 q 162 1053 170 1050 q 136 1092 136 1065 q 138 1107 136 1099 l 210 1286 q 249 1312 221 1312 q 264 1310 257 1312 q 291 1271 291 1299 q 288 1255 291 1263 l 216 1076 q 178 1050 203 1050 z "},"Ļ":{"ha":739,"x_min":136,"x_max":671,"o":"m 629 0 l 178 0 q 148 12 160 0 q 136 42 136 24 l 136 930 q 148 960 136 947 q 178 972 160 972 q 207 960 195 972 q 220 930 220 947 l 220 84 l 629 84 q 659 72 647 84 q 671 42 671 59 q 659 12 671 24 q 629 0 647 0 m 428 -444 q 415 -442 422 -444 q 386 -402 386 -431 q 406 -336 386 -395 l 404 -337 q 314 -300 351 -337 q 277 -211 277 -263 q 314 -122 277 -159 q 404 -85 351 -85 q 493 -122 456 -85 q 530 -211 530 -159 q 517 -264 530 -239 l 468 -415 q 428 -444 454 -444 m 404 -253 q 433 -240 421 -253 q 446 -211 446 -228 q 433 -181 446 -193 q 404 -169 421 -169 q 374 -181 386 -169 q 361 -211 361 -193 q 374 -240 361 -228 q 404 -253 386 -253 z "},"Ľ":{"ha":739,"x_min":136,"x_max":671,"o":"m 629 0 l 178 0 q 148 12 160 0 q 136 42 136 24 l 136 930 q 148 960 136 947 q 178 972 160 972 q 207 960 195 972 q 220 930 220 947 l 220 84 l 629 84 q 659 72 647 84 q 671 42 671 59 q 659 12 671 24 q 629 0 647 0 m 570 613 q 533 636 545 613 q 528 654 528 645 q 539 694 528 661 q 547 721 547 719 q 457 758 494 721 q 420 846 420 794 q 457 936 420 899 q 545 972 494 972 q 634 936 597 972 q 671 846 671 899 q 660 793 671 818 l 610 642 q 570 613 597 613 m 545 804 q 575 817 563 804 q 587 846 587 829 q 575 876 587 864 q 545 888 563 888 q 516 876 528 888 q 504 846 504 864 q 516 817 504 829 q 545 804 528 804 z "},"Ŀ":{"ha":739,"x_min":136,"x_max":671,"o":"m 629 0 l 178 0 q 148 12 160 0 q 136 42 136 24 l 136 930 q 148 960 136 947 q 178 972 160 972 q 207 960 195 972 q 220 930 220 947 l 220 84 l 629 84 q 659 72 647 84 q 671 42 671 59 q 659 12 671 24 q 629 0 647 0 m 489 554 l 429 554 q 409 562 417 554 q 401 582 401 570 l 401 642 q 409 662 401 654 q 429 669 417 669 l 489 669 q 508 662 500 669 q 516 642 516 654 l 516 582 q 508 562 516 570 q 489 554 500 554 z "},"Ł":{"ha":765,"x_min":41,"x_max":697,"o":"m 655 0 l 203 0 q 174 12 186 0 q 161 42 161 24 l 161 291 l 111 243 q 83 232 98 232 q 53 245 66 232 q 41 273 41 258 q 41 283 41 275 q 54 304 41 292 l 161 406 l 161 930 q 174 960 161 947 q 203 972 186 972 q 233 960 221 972 q 245 930 245 947 l 245 484 l 456 682 q 484 693 469 693 l 494 693 q 516 680 503 693 q 527 652 527 667 q 527 642 527 651 q 514 621 526 633 l 245 369 l 245 84 l 655 84 q 685 72 673 84 q 697 42 697 59 q 685 12 697 24 q 655 0 673 0 z "},"Ń":{"ha":974,"x_min":136,"x_max":838,"o":"m 796 0 q 762 18 776 0 l 220 797 l 220 42 q 207 12 220 24 q 178 0 195 0 q 148 12 160 0 q 136 42 136 24 l 136 930 q 165 970 136 958 q 178 972 172 972 q 212 954 198 972 l 754 176 l 754 930 q 767 960 754 947 q 796 972 779 972 q 826 960 814 972 q 838 930 838 947 l 838 42 q 809 2 838 14 q 796 0 802 0 m 487 1050 q 471 1053 479 1050 q 448 1076 455 1060 q 445 1091 445 1083 q 448 1107 445 1099 l 519 1286 q 558 1313 532 1313 q 597 1287 587 1313 q 600 1271 600 1279 q 597 1255 600 1263 l 526 1076 q 487 1050 512 1050 z "},"Ņ":{"ha":974,"x_min":136,"x_max":838,"o":"m 796 1 q 762 18 776 1 l 220 797 l 220 42 q 207 13 220 25 q 178 1 195 1 q 148 13 160 1 q 136 42 136 25 l 136 930 q 165 970 136 958 q 178 972 172 972 q 212 955 199 972 l 754 176 l 754 930 q 767 960 754 948 q 796 972 779 972 q 826 960 814 972 q 838 930 838 948 l 838 42 q 809 2 838 15 q 796 1 802 1 m 528 -450 q 515 -448 522 -450 q 486 -408 486 -437 q 506 -342 486 -400 l 505 -342 q 504 -342 505 -342 q 415 -306 452 -342 q 378 -216 378 -269 q 415 -127 378 -164 q 504 -90 452 -90 q 592 -127 555 -90 q 629 -216 629 -164 q 618 -269 629 -245 l 568 -420 q 528 -450 555 -450 m 504 -258 q 533 -245 521 -258 q 546 -216 546 -233 q 533 -186 546 -199 q 504 -174 521 -174 q 474 -186 486 -174 q 462 -216 462 -199 q 474 -245 462 -233 q 504 -258 486 -258 z "},"Ň":{"ha":974,"x_min":136,"x_max":838,"o":"m 796 0 q 762 18 776 0 l 220 797 l 220 42 q 207 12 220 24 q 178 0 195 0 q 148 12 160 0 q 136 42 136 24 l 136 930 q 165 970 136 958 q 178 972 172 972 q 212 954 198 972 l 754 176 l 754 930 q 767 960 754 947 q 796 972 779 972 q 826 960 814 972 q 838 930 838 947 l 838 42 q 809 2 838 14 q 796 0 802 0 m 487 1088 q 457 1101 471 1088 l 355 1202 q 342 1232 342 1215 q 355 1262 342 1249 q 385 1274 368 1274 q 414 1262 401 1274 l 487 1190 l 559 1262 q 589 1274 572 1274 q 619 1262 606 1274 q 631 1232 631 1249 q 619 1202 631 1215 l 517 1101 q 487 1088 503 1088 z "},"Ŋ":{"ha":974,"x_min":136,"x_max":838,"o":"m 656 -252 q 625 -239 637 -252 q 613 -210 613 -227 q 625 -180 613 -193 q 656 -168 637 -168 q 725 -139 696 -168 q 754 -70 754 -110 l 754 28 l 220 797 l 220 42 q 207 12 220 24 q 178 0 195 0 q 148 12 160 0 q 136 42 136 24 l 136 930 q 165 970 136 958 q 178 972 172 972 q 212 954 198 972 l 754 176 l 754 930 q 767 960 754 948 q 796 972 779 972 q 826 960 814 972 q 838 930 838 948 l 838 -70 q 785 -198 838 -145 q 656 -252 732 -252 z "},"Ō":{"ha":1107,"x_min":68,"x_max":1040,"o":"m 686 1097 l 421 1097 q 391 1109 404 1097 q 379 1139 379 1122 q 391 1169 379 1156 q 421 1181 404 1181 l 686 1181 q 716 1169 704 1181 q 728 1139 728 1156 q 716 1109 728 1122 q 686 1097 704 1097 m 554 0 q 798 66 688 0 q 974 242 908 132 q 1040 486 1040 352 q 974 730 1040 620 q 798 906 908 840 q 554 972 688 972 q 524 960 536 972 q 512 930 512 947 q 524 900 512 913 q 554 888 536 888 q 756 833 665 888 q 901 688 847 779 q 956 486 956 597 q 901 284 956 375 q 756 138 847 193 q 554 84 665 84 q 352 138 443 84 q 206 284 260 193 q 152 486 152 375 q 139 515 152 503 q 110 528 127 528 q 80 515 92 528 q 68 486 68 503 q 134 242 68 352 q 310 66 199 132 q 554 0 420 0 z "},"Ŏ":{"ha":1107,"x_min":68,"x_max":1040,"o":"m 554 1088 q 452 1131 494 1088 q 410 1232 410 1173 q 422 1262 410 1249 q 452 1274 435 1274 q 481 1262 469 1274 q 494 1232 494 1249 q 511 1190 494 1207 q 554 1172 529 1172 q 596 1190 578 1172 q 614 1232 614 1207 q 626 1262 614 1249 q 656 1274 638 1274 q 685 1262 673 1274 q 698 1232 698 1249 q 655 1131 698 1173 q 554 1088 613 1088 m 554 0 q 798 66 688 0 q 974 242 908 132 q 1040 486 1040 352 q 974 730 1040 620 q 798 906 908 840 q 554 972 688 972 q 524 960 536 972 q 512 930 512 947 q 524 900 512 913 q 554 888 536 888 q 756 833 665 888 q 901 688 847 779 q 956 486 956 597 q 901 284 956 375 q 756 138 847 193 q 554 84 665 84 q 352 138 443 84 q 206 284 260 193 q 152 486 152 375 q 139 515 152 503 q 110 528 127 528 q 80 515 92 528 q 68 486 68 503 q 134 242 68 352 q 310 66 199 132 q 554 0 420 0 z "},"Ő":{"ha":1107,"x_min":68,"x_max":1040,"o":"m 482 1050 q 467 1053 474 1050 q 440 1092 440 1065 q 443 1107 440 1099 l 515 1286 q 554 1312 526 1312 q 570 1310 562 1312 q 595 1271 595 1299 q 593 1255 595 1263 l 521 1076 q 482 1050 507 1050 m 680 1050 q 665 1053 673 1050 q 639 1091 639 1065 q 642 1107 639 1099 l 713 1286 q 752 1312 725 1312 q 768 1310 760 1312 q 794 1272 794 1299 q 791 1255 794 1263 l 720 1076 q 680 1050 705 1050 m 554 0 q 798 66 688 0 q 974 242 908 132 q 1040 486 1040 352 q 974 730 1040 620 q 798 906 908 840 q 554 972 688 972 q 524 960 536 972 q 512 930 512 947 q 524 900 512 913 q 554 888 536 888 q 756 833 665 888 q 901 688 847 779 q 956 486 956 597 q 901 284 956 375 q 756 138 847 193 q 554 84 665 84 q 352 138 443 84 q 206 284 260 193 q 152 486 152 375 q 139 515 152 503 q 110 528 127 528 q 80 515 92 528 q 68 486 68 503 q 134 242 68 352 q 310 66 199 132 q 554 0 420 0 z "},"Œ":{"ha":1628,"x_min":68,"x_max":1560,"o":"m 1518 0 l 998 0 q 968 12 980 0 q 956 42 956 24 l 956 214 q 784 58 889 116 q 553 0 679 0 q 310 66 420 0 q 134 242 199 132 q 68 486 68 352 q 80 516 68 503 q 110 528 92 528 q 139 516 127 528 q 152 486 152 503 q 206 284 152 375 q 352 138 260 193 q 553 84 443 84 q 756 138 665 84 q 901 284 847 193 q 956 486 956 375 q 901 688 956 597 q 756 834 847 779 q 553 888 665 888 q 524 901 536 888 q 512 930 512 913 q 524 960 512 947 q 553 972 536 972 q 784 914 679 972 q 956 759 889 857 l 956 930 q 968 960 956 947 q 998 972 980 972 l 1518 972 q 1547 960 1535 972 q 1560 930 1560 947 q 1547 901 1560 913 q 1518 888 1535 888 l 1040 888 l 1040 528 l 1416 528 q 1446 516 1433 528 q 1458 486 1458 503 q 1446 456 1458 469 q 1416 444 1433 444 l 1040 444 l 1040 84 l 1518 84 q 1547 72 1535 84 q 1560 42 1560 59 q 1547 12 1560 24 q 1518 0 1535 0 z "},"Ŕ":{"ha":821,"x_min":136,"x_max":739,"o":"m 397 1050 q 381 1053 389 1050 q 359 1076 365 1060 q 355 1092 355 1084 q 358 1107 355 1099 l 430 1286 q 468 1313 441 1313 q 507 1287 496 1313 q 511 1272 511 1280 q 507 1255 511 1264 l 436 1076 q 397 1050 422 1050 m 178 0 q 148 12 160 0 q 136 42 136 24 l 136 486 q 148 516 136 503 q 178 528 160 528 l 477 528 q 604 581 551 528 q 656 706 656 633 q 604 836 656 784 q 477 888 551 888 l 178 888 q 148 901 160 888 q 136 930 136 913 q 148 960 136 947 q 178 972 160 972 l 477 972 q 663 896 586 972 q 739 711 739 819 q 663 521 739 597 q 477 444 586 444 l 220 444 l 220 42 q 207 12 220 24 q 178 0 195 0 m 685 0 q 647 24 661 0 l 521 296 q 517 314 517 305 q 541 351 517 339 q 559 355 549 355 q 597 331 584 355 l 723 60 q 727 42 727 51 q 703 4 727 16 q 685 0 694 0 z "},"Ŗ":{"ha":821,"x_min":136,"x_max":739,"o":"m 463 -450 q 449 -448 456 -450 q 420 -409 420 -437 q 431 -368 420 -402 q 439 -342 439 -344 l 437 -342 q 349 -306 386 -342 q 312 -216 312 -269 q 349 -127 312 -164 q 437 -90 386 -90 q 527 -127 490 -90 q 564 -216 564 -164 q 551 -269 564 -245 l 502 -420 q 463 -450 489 -450 m 437 -258 q 467 -246 455 -258 q 479 -216 479 -233 q 467 -186 479 -199 q 437 -174 455 -174 q 408 -186 420 -174 q 395 -216 395 -199 q 408 -246 395 -233 q 437 -258 420 -258 m 178 0 q 148 12 160 0 q 136 42 136 24 l 136 486 q 148 516 136 503 q 178 528 160 528 l 477 528 q 604 581 551 528 q 656 706 656 633 q 604 836 656 784 q 477 888 551 888 l 178 888 q 148 901 160 888 q 136 930 136 913 q 148 960 136 947 q 178 972 160 972 l 477 972 q 663 896 586 972 q 739 711 739 819 q 663 521 739 597 q 477 444 586 444 l 220 444 l 220 42 q 207 12 220 24 q 178 0 195 0 m 685 0 q 647 24 661 0 l 521 296 q 517 314 517 305 q 541 351 517 339 q 559 355 549 355 q 597 331 584 355 l 723 60 q 727 42 727 51 q 703 4 727 16 q 685 0 694 0 z "},"Ř":{"ha":821,"x_min":136,"x_max":739,"o":"m 379 1088 q 349 1101 363 1088 l 247 1202 q 235 1232 235 1215 q 247 1262 235 1249 q 277 1274 260 1274 q 306 1262 293 1274 l 379 1190 l 452 1262 q 481 1274 465 1274 q 510 1262 498 1274 q 523 1234 523 1250 l 523 1224 q 511 1202 523 1215 l 408 1101 q 379 1088 395 1088 m 178 0 q 148 12 160 0 q 136 42 136 24 l 136 486 q 148 516 136 503 q 178 528 160 528 l 477 528 q 604 581 551 528 q 656 706 656 633 q 604 836 656 784 q 477 888 551 888 l 178 888 q 148 901 160 888 q 136 930 136 913 q 148 960 136 947 q 178 972 160 972 l 477 972 q 663 896 586 972 q 739 711 739 819 q 663 521 739 597 q 477 444 586 444 l 220 444 l 220 42 q 207 12 220 24 q 178 0 195 0 m 685 0 q 647 24 661 0 l 521 296 q 517 314 517 305 q 541 351 517 339 q 559 355 549 355 q 597 331 584 355 l 723 60 q 727 42 727 51 q 703 4 727 16 q 685 0 694 0 z "},"Ś":{"ha":848,"x_min":122,"x_max":726,"o":"m 424 1050 q 408 1053 416 1050 q 382 1091 382 1064 q 385 1107 382 1099 l 456 1286 q 495 1313 469 1313 q 511 1310 503 1313 q 538 1272 538 1299 q 534 1255 538 1264 l 463 1076 q 424 1050 449 1050 m 424 0 q 394 12 407 0 q 382 42 382 24 q 394 72 382 59 q 424 84 407 84 q 578 137 514 84 q 642 264 642 189 q 615 365 642 330 q 538 417 589 399 q 414 449 487 435 q 313 472 364 458 q 219 512 262 486 q 149 586 176 539 q 122 708 122 633 q 211 895 122 817 q 424 972 299 972 q 454 960 441 972 q 466 930 466 947 q 454 901 466 913 q 424 888 441 888 q 270 836 334 888 q 206 708 206 783 q 232 612 206 645 q 308 561 258 578 q 430 531 358 544 q 532 508 480 522 q 627 466 583 493 q 699 390 671 438 q 726 264 726 342 q 637 77 726 155 q 424 0 549 0 z "},"Ŝ":{"ha":848,"x_min":122,"x_max":726,"o":"m 526 1088 q 497 1101 511 1088 l 424 1173 l 351 1101 q 321 1088 338 1088 q 292 1101 304 1088 q 279 1131 279 1114 q 292 1160 279 1147 l 395 1262 q 424 1274 408 1274 q 454 1262 440 1274 l 556 1160 q 568 1131 568 1147 q 556 1101 568 1114 q 526 1088 543 1088 m 424 0 q 394 12 407 0 q 382 42 382 24 q 394 72 382 59 q 424 84 407 84 q 578 137 514 84 q 642 264 642 189 q 615 365 642 330 q 538 417 589 399 q 414 449 487 435 q 313 472 364 458 q 219 512 262 486 q 149 586 176 539 q 122 708 122 633 q 211 895 122 817 q 424 972 299 972 q 454 960 441 972 q 466 930 466 947 q 454 901 466 913 q 424 888 441 888 q 270 836 334 888 q 206 708 206 783 q 232 612 206 645 q 308 561 258 578 q 430 531 358 544 q 532 508 480 522 q 627 466 583 493 q 699 390 671 438 q 726 264 726 342 q 637 77 726 155 q 424 0 549 0 z "},"Ş":{"ha":848,"x_min":122,"x_max":726,"o":"m 471 -231 l 374 -231 q 359 -224 366 -231 q 353 -210 353 -218 q 359 -195 353 -201 q 374 -189 366 -189 l 471 -189 q 514 -175 494 -189 q 534 -132 534 -161 q 514 -90 534 -103 q 471 -77 494 -77 l 424 -77 q 410 -71 416 -77 q 404 -56 404 -64 l 404 6 q 382 42 382 19 q 394 72 382 60 q 424 84 407 84 q 578 137 514 84 q 642 264 642 190 q 615 366 642 331 q 538 418 589 400 q 414 449 487 436 q 313 472 364 458 q 219 513 262 486 q 149 586 176 540 q 122 709 122 633 q 211 895 122 818 q 424 972 299 972 q 454 960 441 972 q 466 930 466 948 q 454 901 466 913 q 424 889 441 889 q 270 836 334 889 q 206 709 206 783 q 232 612 206 646 q 308 562 258 579 q 430 532 358 545 q 532 508 480 522 q 627 466 583 494 q 699 391 671 439 q 726 264 726 342 q 646 85 726 160 q 445 1 566 11 l 445 -35 l 471 -35 q 547 -62 517 -35 q 576 -132 576 -90 q 547 -203 576 -176 q 471 -231 517 -231 z "},"Š":{"ha":848,"x_min":122,"x_max":726,"o":"m 424 1088 q 395 1101 408 1088 l 292 1202 q 279 1232 279 1215 q 292 1262 279 1249 q 321 1274 304 1274 q 351 1262 338 1274 l 424 1190 l 497 1262 q 526 1274 510 1274 q 556 1262 543 1274 q 568 1232 568 1249 q 556 1202 568 1215 l 454 1101 q 424 1088 440 1088 m 424 0 q 394 12 407 0 q 382 42 382 24 q 394 72 382 59 q 424 84 407 84 q 578 137 514 84 q 642 264 642 189 q 615 365 642 330 q 538 417 589 399 q 414 449 487 435 q 313 472 364 458 q 219 512 262 486 q 149 586 176 539 q 122 708 122 633 q 211 895 122 817 q 424 972 299 972 q 454 960 441 972 q 466 930 466 947 q 454 901 466 913 q 424 888 441 888 q 270 836 334 888 q 206 708 206 783 q 232 612 206 645 q 308 561 258 578 q 430 531 358 544 q 532 508 480 522 q 627 466 583 493 q 699 390 671 438 q 726 264 726 342 q 637 77 726 155 q 424 0 549 0 z "},"Ţ":{"ha":878,"x_min":68,"x_max":591,"o":"m 486 -231 l 389 -231 q 374 -224 380 -231 q 368 -210 368 -218 q 374 -195 368 -201 q 389 -189 380 -189 l 486 -189 q 529 -175 509 -189 q 549 -132 549 -161 q 529 -90 549 -103 q 486 -77 509 -77 l 439 -77 q 424 -71 430 -77 q 418 -56 418 -64 l 418 6 q 397 42 397 19 l 397 888 l 110 888 q 80 901 92 888 q 68 930 68 913 q 80 960 68 947 q 110 972 92 972 l 439 972 q 469 960 456 972 q 481 930 481 947 l 481 42 q 460 6 481 19 l 460 -35 l 486 -35 q 562 -62 532 -35 q 591 -132 591 -90 q 562 -203 591 -176 q 486 -231 532 -231 z "},"Ť":{"ha":878,"x_min":68,"x_max":583,"o":"m 439 1088 q 410 1101 423 1088 l 307 1202 q 295 1234 295 1215 q 307 1262 295 1249 q 336 1274 319 1274 q 366 1262 353 1274 l 439 1190 l 512 1262 q 541 1274 525 1274 q 571 1261 558 1274 q 583 1232 583 1249 q 571 1202 583 1215 l 469 1101 q 439 1088 455 1088 m 439 0 q 409 12 422 0 q 397 42 397 24 l 397 888 l 110 888 q 80 900 92 888 q 68 930 68 913 q 80 960 68 947 q 110 972 92 972 l 439 972 q 469 960 456 972 q 481 930 481 947 l 481 42 q 469 12 481 24 q 439 0 456 0 z "},"Ŧ":{"ha":878,"x_min":68,"x_max":669,"o":"m 439 0 q 409 12 422 0 q 397 42 397 24 l 397 444 l 251 444 q 221 456 233 444 q 209 486 209 469 q 221 515 209 503 q 251 528 233 528 l 397 528 l 397 888 l 110 888 q 80 900 92 888 q 68 930 68 913 q 80 960 68 947 q 110 972 92 972 l 439 972 q 469 960 456 972 q 481 930 481 947 l 481 528 l 627 528 q 657 515 644 528 q 669 486 669 503 q 657 456 669 469 q 627 444 644 444 l 481 444 l 481 42 q 469 12 481 24 q 439 0 456 0 z "},"Ũ":{"ha":869,"x_min":109,"x_max":760,"o":"m 437 0 q 203 95 298 0 q 109 323 109 189 l 109 930 q 121 960 109 947 q 151 972 133 972 q 180 960 168 972 q 193 930 193 947 l 193 323 q 262 154 193 224 q 431 84 332 84 q 606 154 536 84 q 676 323 676 224 l 676 930 q 688 960 676 947 q 718 972 701 972 q 748 960 735 972 q 760 930 760 947 l 760 323 q 665 95 760 189 q 437 0 570 0 m 515 1075 q 460 1087 486 1075 q 415 1113 435 1100 q 366 1137 379 1136 q 337 1115 351 1137 q 303 1097 323 1097 q 279 1105 290 1097 q 261 1139 261 1119 q 269 1164 261 1152 q 366 1221 311 1221 l 375 1220 q 459 1184 422 1211 q 514 1159 498 1159 q 536 1170 526 1159 q 565 1181 549 1181 q 575 1181 566 1181 q 595 1168 583 1181 q 607 1140 607 1156 q 607 1130 607 1139 q 594 1109 606 1121 q 515 1075 553 1075 z "},"Ū":{"ha":869,"x_min":109,"x_max":760,"o":"m 437 0 q 203 95 298 0 q 109 323 109 189 l 109 930 q 121 960 109 947 q 151 972 133 972 q 180 960 168 972 q 193 930 193 947 l 193 323 q 262 154 193 224 q 431 84 332 84 q 606 154 536 84 q 676 323 676 224 l 676 930 q 688 960 676 947 q 718 972 701 972 q 748 960 735 972 q 760 930 760 947 l 760 323 q 665 95 760 189 q 437 0 570 0 m 567 1097 l 302 1097 q 272 1109 284 1097 q 260 1139 260 1122 q 272 1169 260 1157 q 302 1181 284 1181 l 567 1181 q 596 1169 584 1181 q 609 1139 609 1157 q 596 1109 609 1122 q 567 1097 584 1097 z "},"Ŭ":{"ha":869,"x_min":109,"x_max":760,"o":"m 437 0 q 203 95 298 0 q 109 323 109 189 l 109 930 q 121 960 109 947 q 151 972 133 972 q 180 960 168 972 q 193 930 193 947 l 193 323 q 262 154 193 224 q 431 84 332 84 q 606 154 536 84 q 676 323 676 224 l 676 930 q 688 960 676 947 q 718 972 701 972 q 748 960 735 972 q 760 930 760 947 l 760 323 q 665 95 760 189 q 437 0 570 0 m 434 1088 q 333 1131 375 1088 q 290 1232 290 1173 q 302 1262 290 1250 q 332 1274 315 1274 q 362 1262 350 1274 q 374 1232 374 1250 q 392 1190 374 1208 q 434 1173 410 1173 q 477 1190 459 1173 q 494 1232 494 1208 q 507 1262 494 1250 q 536 1274 519 1274 q 566 1262 553 1274 q 578 1232 578 1250 q 536 1131 578 1173 q 434 1088 494 1088 z "},"Ů":{"ha":869,"x_min":109,"x_max":760,"o":"m 437 0 q 203 95 298 0 q 109 323 109 189 l 109 930 q 121 960 109 947 q 151 972 133 972 q 180 960 168 972 q 193 930 193 947 l 193 323 q 262 154 193 224 q 431 84 332 84 q 606 154 536 84 q 676 323 676 224 l 676 930 q 688 960 676 947 q 718 972 701 972 q 748 960 735 972 q 760 930 760 947 l 760 323 q 665 95 760 189 q 437 0 570 0 m 434 1034 q 360 1065 391 1034 q 330 1139 330 1096 q 360 1214 330 1183 q 434 1244 391 1244 q 508 1214 477 1244 q 539 1139 539 1183 q 508 1065 539 1096 q 434 1034 477 1034 m 434 1076 q 479 1095 460 1076 q 497 1139 497 1114 q 479 1184 497 1165 q 434 1202 460 1202 q 390 1184 408 1202 q 372 1139 372 1165 q 390 1095 372 1114 q 434 1076 408 1076 z "},"Ű":{"ha":869,"x_min":109,"x_max":760,"o":"m 437 0 q 203 95 298 0 q 109 323 109 189 l 109 930 q 121 960 109 947 q 151 972 133 972 q 180 960 168 972 q 193 930 193 947 l 193 323 q 262 154 193 224 q 431 84 332 84 q 606 154 536 84 q 676 323 676 224 l 676 930 q 688 960 676 947 q 718 972 701 972 q 748 960 735 972 q 760 930 760 947 l 760 323 q 665 95 760 189 q 437 0 570 0 m 346 1050 q 330 1053 338 1050 q 307 1076 314 1060 q 304 1092 304 1084 q 307 1107 304 1099 l 378 1286 q 417 1313 391 1313 q 456 1287 446 1313 q 459 1271 459 1279 q 456 1255 459 1263 l 385 1076 q 346 1050 371 1050 m 544 1050 q 528 1053 536 1050 q 503 1091 503 1064 q 505 1107 503 1099 l 576 1286 q 615 1313 589 1313 q 631 1310 623 1313 q 658 1272 658 1299 q 654 1255 658 1264 l 583 1076 q 544 1050 569 1050 z "},"Ų":{"ha":869,"x_min":109,"x_max":760,"o":"m 572 -150 l 531 -150 q 466 -123 493 -150 q 438 -57 438 -96 q 458 1 438 -27 q 437 0 448 0 q 203 95 298 0 q 109 323 109 189 l 109 930 q 121 960 109 948 q 151 972 133 972 q 180 960 168 972 q 193 930 193 948 l 193 323 q 262 154 193 224 q 431 84 332 84 q 606 154 536 84 q 676 323 676 224 l 676 930 q 688 960 676 948 q 718 972 701 972 q 748 960 735 972 q 760 930 760 948 l 760 323 q 712 153 760 229 q 584 36 663 77 l 524 -52 q 522 -57 522 -54 q 525 -63 522 -60 q 572 -66 528 -66 q 602 -78 590 -66 q 614 -108 614 -90 q 602 -137 614 -125 q 572 -150 590 -150 z "},"Ŵ":{"ha":1278,"x_min":136,"x_max":1142,"o":"m 741 1088 q 711 1101 725 1088 l 639 1173 l 566 1101 q 536 1088 553 1088 q 507 1101 519 1088 q 494 1131 494 1114 q 507 1160 494 1147 l 609 1262 q 639 1274 623 1274 q 669 1262 655 1274 l 771 1160 q 783 1131 783 1147 q 771 1101 783 1114 q 741 1088 758 1088 m 1101 0 q 1126 9 1114 0 q 1142 42 1142 22 q 1133 68 1142 56 l 672 658 q 639 673 659 673 q 606 658 620 673 l 220 163 l 220 930 q 207 960 220 947 q 178 972 195 972 q 148 960 160 972 q 136 930 136 947 l 136 42 q 164 2 136 15 q 178 0 171 0 q 211 16 197 0 l 639 564 l 1067 16 q 1101 0 1080 0 z "},"Ŷ":{"ha":817,"x_min":68,"x_max":749,"o":"m 511 1088 q 481 1101 495 1088 l 408 1173 l 336 1101 q 306 1088 323 1088 q 277 1101 290 1088 q 264 1131 264 1114 q 277 1160 264 1147 l 379 1262 q 408 1274 393 1274 q 438 1262 425 1274 l 541 1160 q 553 1131 553 1147 q 541 1101 553 1114 q 511 1088 527 1088 m 408 444 q 374 463 388 444 l 75 907 q 68 930 68 918 q 86 965 68 952 q 111 972 98 972 q 124 970 114 972 q 144 954 134 968 l 408 562 l 673 954 q 707 972 686 972 q 731 965 719 972 q 749 931 749 952 q 742 907 749 919 l 444 463 q 408 444 429 444 m 408 0 q 379 12 391 0 q 367 42 367 24 l 367 311 q 379 340 367 328 q 408 353 391 353 q 438 340 426 353 q 450 311 450 328 l 450 42 q 438 12 450 24 q 408 0 426 0 z "},"Ÿ":{"ha":817,"x_min":68,"x_max":749,"o":"m 275 1088 q 239 1103 254 1088 q 224 1139 224 1118 q 239 1176 224 1160 q 275 1191 254 1191 q 311 1176 296 1191 q 326 1139 326 1160 q 311 1103 326 1118 q 275 1088 296 1088 m 542 1088 q 506 1103 521 1088 q 491 1139 491 1118 q 506 1176 491 1160 q 542 1191 521 1191 q 578 1176 564 1191 q 593 1139 593 1160 q 578 1103 593 1118 q 542 1088 564 1088 m 408 444 q 374 463 388 444 l 75 907 q 68 930 68 918 q 86 965 68 952 q 111 972 98 972 q 124 970 114 972 q 144 954 134 968 l 408 562 l 673 954 q 707 972 686 972 q 731 965 719 972 q 749 931 749 952 q 742 907 749 919 l 444 463 q 408 444 429 444 m 408 0 q 379 12 391 0 q 367 42 367 24 l 367 311 q 379 340 367 328 q 408 353 391 353 q 438 340 426 353 q 450 311 450 328 l 450 42 q 438 12 450 24 q 408 0 426 0 z "},"Ź":{"ha":834,"x_min":115,"x_max":720,"o":"m 677 0 l 157 0 q 121 21 135 0 q 115 42 115 32 q 121 63 115 53 l 604 888 l 157 888 q 127 901 140 888 q 115 930 115 913 q 127 960 115 947 q 157 972 140 972 l 677 972 q 713 951 700 972 q 720 930 720 941 q 713 909 720 920 l 231 84 l 677 84 q 707 72 694 84 q 719 42 719 59 q 707 12 719 24 q 677 0 694 0 m 417 1050 q 401 1053 410 1050 q 376 1091 376 1064 q 378 1107 376 1099 l 450 1286 q 488 1313 462 1313 q 505 1310 496 1313 q 531 1272 531 1299 q 528 1255 531 1264 l 456 1076 q 417 1050 442 1050 z "},"Ż":{"ha":834,"x_min":115,"x_max":720,"o":"m 677 0 l 157 0 q 121 21 135 0 q 115 42 115 32 q 121 63 115 53 l 604 888 l 157 888 q 127 901 140 888 q 115 930 115 913 q 127 960 115 947 q 157 972 140 972 l 677 972 q 713 951 700 972 q 720 930 720 941 q 713 909 720 920 l 231 84 l 677 84 q 707 72 694 84 q 719 42 719 59 q 707 12 719 24 q 677 0 694 0 m 448 1082 l 387 1082 q 368 1090 376 1082 q 359 1109 359 1098 l 359 1169 q 368 1189 359 1181 q 387 1197 376 1197 l 448 1197 q 467 1189 458 1197 q 475 1169 475 1181 l 475 1109 q 467 1090 475 1098 q 448 1082 458 1082 z "},"Ž":{"ha":834,"x_min":115,"x_max":720,"o":"m 677 0 l 157 0 q 121 21 135 0 q 115 42 115 32 q 121 63 115 53 l 604 888 l 157 888 q 127 901 140 888 q 115 930 115 913 q 127 960 115 947 q 157 972 140 972 l 677 972 q 713 951 700 972 q 720 930 720 941 q 713 909 720 920 l 231 84 l 677 84 q 707 72 694 84 q 719 42 719 59 q 707 12 719 24 q 677 0 694 0 m 417 1088 q 388 1101 401 1088 l 286 1202 q 273 1232 273 1215 q 285 1262 273 1249 q 315 1274 298 1274 q 345 1262 332 1274 l 417 1190 l 490 1262 q 519 1274 503 1274 q 549 1262 536 1274 q 562 1232 562 1249 q 549 1202 562 1215 l 447 1101 q 417 1088 433 1088 z "},"ā":{"ha":951,"x_min":68,"x_max":884,"o":"m 608 1097 l 343 1097 q 313 1109 326 1097 q 301 1139 301 1122 q 313 1169 301 1157 q 343 1181 326 1181 l 608 1181 q 638 1169 626 1181 q 650 1139 650 1157 q 638 1109 650 1122 q 608 1097 626 1097 m 842 0 q 857 3 850 0 q 884 41 884 14 q 880 58 884 50 l 515 946 q 475 972 501 972 q 437 946 450 972 l 71 58 q 68 41 68 50 q 94 3 68 14 q 111 0 102 0 q 149 26 137 0 l 475 820 l 803 26 q 842 0 817 0 z "},"ă":{"ha":951,"x_min":68,"x_max":884,"o":"m 475 1088 q 374 1131 416 1088 q 332 1232 332 1173 q 344 1262 332 1250 q 374 1274 357 1274 q 404 1262 391 1274 q 416 1232 416 1250 q 433 1190 416 1208 q 475 1173 451 1173 q 518 1190 500 1173 q 536 1232 536 1208 q 548 1262 536 1250 q 578 1274 560 1274 q 607 1262 595 1274 q 619 1232 619 1250 q 577 1131 619 1173 q 475 1088 535 1088 m 842 0 q 857 3 850 0 q 884 41 884 14 q 880 58 884 50 l 515 946 q 475 972 501 972 q 437 946 450 972 l 71 58 q 68 41 68 50 q 94 3 68 14 q 111 0 102 0 q 149 26 137 0 l 475 820 l 803 26 q 842 0 817 0 z "},"ą":{"ha":951,"x_min":68,"x_max":905,"o":"m 863 -168 l 822 -168 q 757 -141 784 -168 q 730 -75 730 -114 q 746 -22 730 -47 l 794 47 l 475 821 l 149 26 q 111 1 136 1 q 94 3 102 1 q 68 42 68 16 q 71 58 68 50 l 437 947 q 475 972 450 972 q 515 947 501 972 l 880 58 q 881 56 881 57 l 882 56 l 882 54 l 882 52 l 884 45 l 884 41 q 883 38 884 39 l 883 34 l 882 34 l 882 30 l 881 27 q 880 26 880 27 l 880 24 l 879 24 l 876 18 l 846 -26 q 813 -75 813 -73 q 816 -82 813 -79 q 863 -84 819 -84 q 893 -97 881 -84 q 905 -126 905 -109 q 893 -156 905 -144 q 863 -168 881 -168 z "},"ć":{"ha":998,"x_min":68,"x_max":910,"o":"m 554 0 q 371 36 460 0 q 210 142 282 71 q 68 486 68 288 q 92 640 68 548 q 210 829 115 732 q 554 972 356 972 q 708 948 616 972 q 897 829 800 924 q 910 800 910 816 q 897 770 910 784 q 868 758 884 758 q 838 770 852 758 q 554 888 719 888 q 426 869 503 888 q 269 770 349 849 q 152 486 152 651 q 171 358 152 435 q 269 201 191 281 q 554 84 389 84 q 682 103 605 84 q 838 201 758 123 q 868 214 852 214 q 897 201 884 214 q 910 172 910 188 q 897 142 910 156 q 736 36 825 71 q 554 0 647 0 m 560 1050 q 545 1053 553 1050 q 519 1091 519 1065 q 522 1107 519 1099 l 593 1286 q 616 1309 600 1303 q 632 1312 624 1312 q 671 1287 660 1312 q 674 1272 674 1280 q 671 1255 674 1263 l 600 1076 q 560 1050 585 1050 z "},"ĉ":{"ha":998,"x_min":68,"x_max":910,"o":"m 554 0 q 371 36 460 0 q 210 142 282 71 q 68 486 68 291 q 210 829 68 681 q 554 972 356 972 q 708 948 616 972 q 898 829 801 924 q 910 800 910 816 q 898 770 910 784 q 868 758 884 758 q 838 770 852 758 q 554 888 719 888 q 427 869 503 888 q 269 770 350 849 q 152 486 152 647 q 269 201 152 325 q 554 84 390 84 q 682 103 605 84 q 838 201 758 123 q 868 214 852 214 q 898 201 884 214 q 910 172 910 188 q 898 142 910 156 q 737 36 826 71 q 554 0 648 0 m 648 1088 q 618 1101 631 1088 l 545 1173 l 473 1101 q 443 1088 460 1088 q 413 1101 426 1088 q 401 1131 401 1114 q 413 1160 401 1147 l 515 1262 q 545 1274 529 1274 q 575 1262 562 1274 l 677 1160 q 690 1131 690 1147 q 677 1101 690 1114 q 648 1088 664 1088 z "},"ċ":{"ha":998,"x_min":68,"x_max":910,"o":"m 554 0 q 371 36 460 0 q 210 142 282 71 q 68 486 68 291 q 210 829 68 681 q 554 972 356 972 q 708 948 616 972 q 898 829 801 924 q 910 800 910 816 q 898 770 910 784 q 868 758 884 758 q 838 770 852 758 q 554 888 719 888 q 427 869 503 888 q 269 770 350 849 q 152 486 152 647 q 269 201 152 325 q 554 84 390 84 q 682 103 605 84 q 838 201 758 123 q 868 214 852 214 q 898 201 884 214 q 910 172 910 188 q 898 142 910 156 q 737 36 826 71 q 554 0 648 0 m 579 1082 l 519 1082 q 500 1090 508 1082 q 492 1109 492 1098 l 492 1169 q 500 1189 492 1181 q 519 1197 508 1197 l 579 1197 q 599 1189 591 1197 q 607 1169 607 1181 l 607 1109 q 599 1090 607 1098 q 579 1082 591 1082 z "},"č":{"ha":998,"x_min":68,"x_max":910,"o":"m 554 0 q 371 36 460 0 q 210 142 282 71 q 68 486 68 288 q 92 640 68 548 q 210 829 115 732 q 554 972 356 972 q 708 948 616 972 q 897 829 800 924 q 910 800 910 816 q 897 770 910 784 q 868 758 884 758 q 838 770 852 758 q 554 888 719 888 q 426 869 503 888 q 269 770 349 849 q 152 486 152 651 q 171 358 152 435 q 269 201 191 281 q 554 84 389 84 q 682 103 605 84 q 838 201 758 123 q 868 214 852 214 q 897 201 884 214 q 910 172 910 188 q 897 142 910 156 q 736 36 825 71 q 554 0 647 0 m 553 1088 q 524 1101 537 1088 l 421 1202 q 409 1232 409 1215 q 421 1261 409 1249 q 451 1274 434 1274 q 480 1262 467 1274 l 553 1190 l 626 1262 q 656 1274 639 1274 q 685 1262 672 1274 q 697 1234 697 1249 l 697 1224 q 685 1202 697 1215 l 583 1101 q 553 1088 569 1088 z "},"ď":{"ha":1008,"x_min":136,"x_max":941,"o":"m 440 1088 q 410 1101 424 1088 l 308 1202 q 296 1232 296 1215 q 308 1262 296 1249 q 338 1274 321 1274 q 368 1262 354 1274 l 440 1190 l 513 1262 q 543 1274 526 1274 q 572 1262 559 1274 q 585 1232 585 1249 q 572 1202 585 1215 l 469 1101 q 440 1088 456 1088 m 459 0 q 701 65 592 0 q 876 239 810 130 q 941 481 941 349 q 876 733 941 623 q 701 907 810 842 q 459 972 592 972 l 178 972 q 148 960 160 972 q 136 930 136 947 q 148 901 136 913 q 178 888 160 888 l 459 888 q 659 834 569 888 q 803 690 749 781 q 857 490 857 600 q 803 282 857 372 q 659 138 749 191 q 459 84 569 84 l 178 84 q 148 72 160 84 q 136 42 136 59 q 148 12 136 24 q 178 0 160 0 l 459 0 z "},"đ":{"ha":1029,"x_min":20,"x_max":961,"o":"m 479 0 l 198 0 q 168 12 180 0 q 156 42 156 24 q 168 72 156 59 q 198 84 180 84 l 479 84 q 679 138 589 84 q 823 282 770 191 q 877 481 877 372 q 823 690 877 600 q 679 834 770 781 q 479 888 589 888 l 198 888 q 168 901 180 888 q 156 930 156 913 q 168 960 156 947 q 198 972 180 972 l 479 972 q 722 907 612 972 q 896 733 831 842 q 961 490 961 623 q 896 239 961 349 q 722 65 831 130 q 479 0 612 0 m 481 486 l 62 486 q 33 498 45 486 q 20 528 20 511 q 33 557 20 545 q 62 570 45 570 l 481 570 q 511 557 499 570 q 524 528 524 545 q 511 498 524 511 q 481 486 499 486 z "},"ē":{"ha":848,"x_min":122,"x_max":726,"o":"m 570 1097 l 305 1097 q 275 1109 288 1097 q 263 1139 263 1122 q 275 1169 263 1157 q 305 1181 288 1181 l 570 1181 q 600 1169 587 1181 q 612 1139 612 1157 q 600 1109 612 1122 q 570 1097 587 1097 m 684 0 l 164 0 q 134 12 146 0 q 122 42 122 24 q 134 72 122 59 q 164 84 146 84 l 684 84 q 713 72 701 84 q 726 42 726 59 q 713 12 726 24 q 684 0 701 0 m 684 888 l 164 888 q 134 901 146 888 q 122 930 122 913 q 134 960 122 947 q 164 972 146 972 l 684 972 q 713 960 701 972 q 726 930 726 947 q 713 901 726 913 q 684 888 701 888 m 684 444 l 164 444 q 134 456 146 444 q 122 486 122 469 q 134 516 122 503 q 164 528 146 528 l 684 528 q 713 516 701 528 q 726 486 726 503 q 713 456 726 469 q 684 444 701 444 z "},"ĕ":{"ha":848,"x_min":122,"x_max":726,"o":"m 437 1088 q 336 1131 378 1088 q 294 1232 294 1173 q 306 1262 294 1250 q 336 1274 318 1274 q 366 1262 353 1274 q 378 1232 378 1250 q 395 1190 378 1208 q 437 1173 413 1173 q 480 1190 463 1173 q 498 1232 498 1208 q 510 1262 498 1250 q 539 1274 522 1274 q 569 1262 557 1274 q 581 1232 581 1250 q 539 1131 581 1173 q 437 1088 497 1088 m 684 0 l 164 0 q 134 12 146 0 q 122 42 122 24 q 134 72 122 59 q 164 84 146 84 l 684 84 q 713 72 701 84 q 726 42 726 59 q 713 12 726 24 q 684 0 701 0 m 684 888 l 164 888 q 134 901 146 888 q 122 930 122 913 q 134 960 122 947 q 164 972 146 972 l 684 972 q 713 960 701 972 q 726 930 726 947 q 713 901 726 913 q 684 888 701 888 m 684 444 l 164 444 q 134 456 146 444 q 122 486 122 469 q 134 516 122 503 q 164 528 146 528 l 684 528 q 713 516 701 528 q 726 486 726 503 q 713 456 726 469 q 684 444 701 444 z "},"ė":{"ha":848,"x_min":122,"x_max":726,"o":"m 468 1082 l 408 1082 q 388 1090 396 1082 q 380 1109 380 1098 l 380 1169 q 388 1189 380 1181 q 408 1197 396 1197 l 468 1197 q 487 1189 479 1197 q 495 1169 495 1181 l 495 1109 q 487 1090 495 1098 q 468 1082 479 1082 m 684 0 l 164 0 q 134 12 146 0 q 122 42 122 24 q 134 72 122 59 q 164 84 146 84 l 684 84 q 713 72 701 84 q 726 42 726 59 q 713 12 726 24 q 684 0 701 0 m 684 888 l 164 888 q 134 901 146 888 q 122 930 122 913 q 134 960 122 947 q 164 972 146 972 l 684 972 q 713 960 701 972 q 726 930 726 947 q 713 901 726 913 q 684 888 701 888 m 684 444 l 164 444 q 134 456 146 444 q 122 486 122 469 q 134 516 122 503 q 164 528 146 528 l 684 528 q 713 516 701 528 q 726 486 726 503 q 713 456 726 469 q 684 444 701 444 z "},"ę":{"ha":850,"x_min":122,"x_max":748,"o":"m 684 888 l 164 888 q 134 901 146 888 q 122 930 122 913 q 134 960 122 948 q 164 972 146 972 l 684 972 q 713 960 701 972 q 726 930 726 948 q 713 901 726 913 q 684 888 701 888 m 684 444 l 164 444 q 134 456 146 444 q 122 486 122 469 q 134 516 122 504 q 164 528 146 528 l 684 528 q 713 516 701 528 q 726 486 726 504 q 713 456 726 469 q 684 444 701 444 m 706 -168 l 665 -168 q 599 -141 626 -168 q 572 -75 572 -114 q 589 -22 572 -47 l 604 0 l 164 0 q 134 12 146 0 q 122 42 122 24 q 134 72 122 60 q 164 84 146 84 l 688 84 q 695 82 694 83 q 696 82 696 82 q 697 82 696 82 q 699 81 698 81 q 701 80 700 81 q 702 80 701 80 q 704 79 703 79 q 706 78 705 79 q 708 77 707 77 q 710 75 709 76 q 712 74 711 75 q 713 72 713 73 q 715 70 714 71 q 717 68 715 69 q 724 54 722 62 q 725 51 725 52 q 725 49 725 50 q 726 47 726 48 q 726 41 726 45 q 725 33 726 35 q 724 30 724 31 q 724 28 724 29 q 723 27 724 28 q 723 26 723 26 q 722 24 722 25 q 721 22 722 23 q 720 20 720 21 q 688 -26 720 20 q 656 -75 656 -73 q 658 -82 656 -79 q 706 -84 661 -84 q 736 -97 724 -84 q 748 -126 748 -109 q 736 -156 748 -144 q 706 -168 724 -168 z "},"ě":{"ha":848,"x_min":122,"x_max":726,"o":"m 437 1088 q 408 1101 422 1088 l 306 1202 q 293 1232 293 1215 q 306 1262 293 1249 q 335 1274 318 1274 q 365 1262 352 1274 l 437 1190 l 511 1262 q 540 1274 524 1274 q 569 1262 557 1274 q 582 1232 582 1249 q 570 1202 582 1215 l 467 1101 q 437 1088 454 1088 m 684 0 l 164 0 q 134 12 146 0 q 122 42 122 24 q 134 72 122 59 q 164 84 146 84 l 684 84 q 713 72 701 84 q 726 42 726 59 q 713 12 726 24 q 684 0 701 0 m 684 888 l 164 888 q 134 901 146 888 q 122 930 122 913 q 134 960 122 947 q 164 972 146 972 l 684 972 q 713 960 701 972 q 726 930 726 947 q 713 901 726 913 q 684 888 701 888 m 684 444 l 164 444 q 134 456 146 444 q 122 486 122 469 q 134 516 122 503 q 164 528 146 528 l 684 528 q 713 516 701 528 q 726 486 726 503 q 713 456 726 469 q 684 444 701 444 z "},"ĝ":{"ha":998,"x_min":68,"x_max":910,"o":"m 554 0 q 371 36 460 0 q 210 142 282 71 q 68 486 68 288 q 92 640 68 548 q 210 829 115 732 q 554 972 359 972 q 897 829 749 972 q 910 800 910 816 q 897 770 910 784 q 868 758 884 758 q 838 770 852 758 q 554 888 715 888 q 269 770 393 888 q 152 486 152 651 q 171 358 152 435 q 269 201 191 281 q 555 84 392 84 q 826 190 706 84 l 826 367 q 838 397 826 385 q 868 409 850 409 q 898 397 885 409 q 910 367 910 385 l 910 172 l 909 165 l 909 161 l 908 161 q 907 158 908 159 l 906 155 l 906 154 l 905 154 q 905 152 905 153 q 904 151 905 151 l 902 147 l 901 147 l 901 146 l 898 142 l 897 142 q 736 36 825 71 q 554 0 647 0 m 645 1088 q 615 1101 628 1088 l 543 1173 l 470 1101 q 440 1088 456 1088 q 410 1101 424 1088 q 398 1131 398 1114 q 410 1160 398 1147 l 513 1262 q 543 1274 526 1274 q 572 1262 559 1274 l 674 1160 q 687 1131 687 1147 q 674 1101 687 1114 q 645 1088 662 1088 z "},"ğ":{"ha":998,"x_min":68,"x_max":910,"o":"m 554 0 q 371 36 460 0 q 210 142 282 71 q 68 486 68 288 q 92 640 68 548 q 210 829 115 732 q 554 972 359 972 q 897 829 749 972 q 910 800 910 816 q 897 770 910 784 q 868 758 884 758 q 838 770 852 758 q 554 888 715 888 q 269 770 393 888 q 152 486 152 651 q 171 358 152 435 q 269 201 191 281 q 553 84 392 84 q 826 190 705 84 l 826 367 q 838 397 826 385 q 868 409 850 409 q 898 397 885 409 q 910 367 910 385 l 910 172 l 909 165 l 909 161 l 908 161 q 907 158 908 159 l 906 155 l 906 154 q 905 153 905 154 q 905 152 905 153 q 904 151 905 151 l 902 147 l 901 147 l 901 146 l 898 142 l 897 142 q 736 36 825 71 q 554 0 647 0 m 545 1088 q 443 1131 485 1088 q 401 1232 401 1173 q 413 1262 401 1249 q 443 1274 425 1274 q 472 1262 460 1274 q 484 1232 484 1249 q 502 1190 484 1207 q 545 1172 519 1172 q 587 1190 569 1172 q 604 1232 604 1207 q 616 1262 604 1249 q 646 1274 629 1274 q 676 1262 664 1274 q 688 1232 688 1249 q 646 1131 688 1173 q 545 1088 604 1088 z "},"ġ":{"ha":998,"x_min":68,"x_max":910,"o":"m 554 0 q 371 36 460 0 q 210 142 282 71 q 68 486 68 288 q 92 640 68 548 q 210 829 115 732 q 554 972 359 972 q 897 829 749 972 q 910 800 910 816 q 897 770 910 784 q 868 758 884 758 q 838 770 852 758 q 554 888 715 888 q 269 770 393 888 q 152 486 152 651 q 171 358 152 435 q 269 201 191 281 q 553 84 392 84 q 826 190 705 84 l 826 367 q 838 397 826 385 q 868 409 850 409 q 898 397 885 409 q 910 367 910 385 l 910 172 l 909 165 l 909 161 l 908 161 q 907 158 908 159 l 906 155 l 906 154 l 905 154 q 905 152 905 153 q 904 151 905 151 l 902 147 l 901 147 l 901 146 l 898 142 l 897 142 q 736 36 825 71 q 554 0 647 0 m 585 1082 l 525 1082 q 505 1090 513 1082 q 497 1109 497 1098 l 497 1169 q 505 1189 497 1181 q 525 1197 513 1197 l 585 1197 q 604 1189 596 1197 q 612 1169 612 1181 l 612 1109 q 604 1090 612 1098 q 585 1082 596 1082 z "},"ģ":{"ha":998,"x_min":68,"x_max":910,"o":"m 554 1 q 371 36 460 1 q 210 142 282 71 q 68 486 68 288 q 92 641 68 548 q 210 830 115 733 q 554 972 359 972 q 897 830 749 972 q 910 800 910 817 q 897 770 910 784 q 868 758 884 758 q 838 770 852 758 q 554 888 715 888 q 269 770 393 888 q 152 486 152 651 q 171 359 152 435 q 269 202 191 282 q 553 84 393 84 q 826 190 705 84 l 826 367 q 838 397 826 385 q 868 409 850 409 q 898 397 885 409 q 910 367 910 385 q 909 168 910 170 l 909 166 q 909 164 909 165 l 909 162 l 909 161 q 907 159 908 159 l 907 157 l 904 151 q 902 148 902 148 q 901 147 902 147 l 898 143 l 898 142 l 897 142 q 736 36 825 71 q 554 1 647 1 m 588 -444 q 551 -420 562 -444 q 547 -402 547 -412 q 557 -362 547 -395 l 565 -336 l 564 -336 q 475 -299 511 -336 q 438 -210 438 -262 q 475 -121 438 -158 q 564 -84 511 -84 q 653 -121 616 -84 q 690 -210 690 -158 q 677 -263 690 -239 l 628 -414 q 588 -444 614 -444 m 564 -252 q 593 -240 581 -252 q 606 -210 606 -227 q 593 -180 606 -193 q 564 -168 581 -168 q 534 -180 547 -168 q 522 -210 522 -193 q 534 -240 522 -227 q 564 -252 547 -252 z "},"ĥ":{"ha":917,"x_min":136,"x_max":781,"o":"m 561 1088 q 532 1101 545 1088 l 458 1173 l 386 1101 q 356 1088 373 1088 q 327 1101 339 1088 q 314 1131 314 1114 q 327 1160 314 1147 l 429 1262 q 458 1274 443 1274 q 488 1262 475 1274 l 591 1160 q 603 1131 603 1147 q 591 1101 603 1114 q 561 1088 577 1088 m 739 0 q 710 12 722 0 q 698 42 698 24 l 698 930 q 710 960 698 947 q 739 972 722 972 q 769 960 757 972 q 781 930 781 947 l 781 42 q 769 12 781 24 q 739 0 757 0 m 178 0 q 148 12 160 0 q 136 42 136 24 l 136 930 q 148 960 136 947 q 178 972 160 972 q 207 960 195 972 q 220 930 220 947 l 220 533 l 458 533 q 488 521 476 533 q 500 491 500 509 q 488 461 500 473 q 458 449 476 449 l 220 449 l 220 42 q 207 12 220 24 q 178 0 195 0 z "},"ħ":{"ha":924,"x_min":41,"x_max":884,"o":"m 743 0 q 713 12 726 0 q 701 42 701 24 l 701 662 l 223 662 l 223 533 l 462 533 q 492 521 479 533 q 504 491 504 509 q 492 461 504 474 q 462 449 479 449 l 223 449 l 223 42 q 211 12 223 24 q 181 0 198 0 q 151 12 163 0 q 139 42 139 24 l 139 662 l 83 662 q 53 674 65 662 q 41 704 41 687 q 53 734 41 722 q 83 746 65 746 l 139 746 l 139 930 q 151 960 139 948 q 181 972 163 972 q 211 960 198 972 q 223 930 223 948 l 223 746 l 701 746 l 701 930 q 713 960 701 948 q 743 972 726 972 q 773 960 761 972 q 785 930 785 948 l 785 746 l 842 746 q 871 734 859 746 q 884 704 884 722 q 871 674 884 687 q 842 662 859 662 l 785 662 l 785 42 q 773 12 785 24 q 743 0 761 0 z "},"ĩ":{"ha":354,"x_min":4,"x_max":350,"o":"m 177 0 q 147 12 159 0 q 135 42 135 24 l 135 930 q 147 960 135 947 q 177 972 159 972 q 207 960 195 972 q 219 930 219 947 l 219 42 q 207 12 219 24 q 177 0 195 0 m 258 1075 q 203 1087 229 1075 q 158 1112 177 1100 q 107 1136 122 1136 q 80 1114 94 1136 q 46 1097 66 1097 q 22 1105 33 1097 q 4 1139 4 1118 q 12 1164 4 1152 q 107 1220 53 1220 l 118 1219 q 202 1183 165 1211 q 256 1158 241 1158 q 279 1170 269 1158 q 307 1181 292 1181 l 317 1181 q 339 1168 326 1181 q 350 1139 350 1155 q 350 1129 350 1138 q 336 1108 349 1121 q 258 1075 296 1075 z "},"ī":{"ha":355,"x_min":3,"x_max":352,"o":"m 177 0 q 148 12 160 0 q 136 42 136 24 l 136 930 q 148 960 136 947 q 177 972 160 972 q 207 960 195 972 q 219 930 219 947 l 219 42 q 207 12 219 24 q 177 0 195 0 m 310 1097 l 45 1097 q 15 1109 27 1097 q 3 1139 3 1122 q 15 1169 3 1156 q 45 1181 27 1181 l 310 1181 q 340 1169 328 1181 q 352 1139 352 1156 q 340 1109 352 1122 q 310 1097 328 1097 z "},"ĭ":{"ha":355,"x_min":34,"x_max":321,"o":"m 178 0 q 148 12 160 0 q 136 42 136 24 l 136 930 q 148 960 136 947 q 178 972 160 972 q 208 960 195 972 q 220 930 220 947 l 220 42 q 208 12 220 24 q 178 0 195 0 m 178 1088 q 76 1131 118 1088 q 34 1232 34 1173 q 46 1262 34 1249 q 76 1274 58 1274 q 105 1262 93 1274 q 118 1232 118 1249 q 136 1190 118 1207 q 178 1172 153 1172 q 220 1190 203 1172 q 237 1232 237 1207 q 250 1262 237 1249 q 279 1274 262 1274 q 309 1262 297 1274 q 321 1232 321 1249 q 279 1131 321 1173 q 178 1088 237 1088 z "},"į":{"ha":356,"x_min":65,"x_max":241,"o":"m 199 -168 l 157 -168 q 92 -140 119 -168 q 65 -75 65 -113 q 81 -22 65 -46 l 136 56 l 136 930 q 148 960 136 948 q 177 972 160 972 q 207 960 195 972 q 219 930 219 948 l 219 39 l 218 35 q 218 32 218 33 q 217 31 218 31 q 217 29 217 30 q 217 28 217 28 q 216 26 216 27 q 215 25 216 26 q 214 23 215 24 q 213 21 214 22 q 181 -26 212 20 q 149 -75 149 -72 q 152 -81 149 -79 q 199 -83 154 -83 q 229 -96 217 -83 q 241 -125 241 -109 q 229 -155 241 -143 q 199 -168 217 -168 z "},"ĳ":{"ha":1070,"x_min":136,"x_max":935,"o":"m 178 0 q 148 13 160 0 q 136 42 136 25 l 136 930 q 148 960 136 947 q 178 972 160 972 q 207 960 195 972 q 220 930 220 947 l 220 42 q 207 13 220 25 q 178 0 195 0 m 647 0 l 616 0 q 414 84 498 0 q 331 286 331 168 q 343 317 331 305 q 372 330 355 330 q 402 317 390 330 q 414 286 414 305 q 473 143 414 202 q 616 84 532 84 l 647 84 q 791 144 731 84 q 850 288 850 203 l 850 930 q 863 960 850 947 q 892 972 876 972 q 922 960 910 972 q 935 930 935 947 l 935 288 q 850 84 935 169 q 647 0 766 0 z "},"ĵ":{"ha":807,"x_min":68,"x_max":775,"o":"m 385 0 l 353 0 q 151 84 235 0 q 68 286 68 168 q 80 317 68 305 q 110 330 92 330 q 139 317 127 330 q 152 286 152 305 q 211 143 152 202 q 353 84 270 84 l 385 84 q 528 144 469 84 q 588 288 588 203 l 588 930 q 600 960 588 947 q 630 972 612 972 q 659 960 647 972 q 671 930 671 947 l 671 288 q 587 84 671 169 q 385 0 503 0 m 734 1088 q 704 1101 717 1088 l 631 1173 l 558 1101 q 529 1088 545 1088 q 499 1101 513 1088 q 487 1131 487 1114 q 499 1160 487 1147 l 602 1262 q 631 1274 615 1274 q 661 1262 647 1274 l 763 1160 q 775 1129 775 1147 q 763 1101 775 1113 q 734 1088 750 1088 z "},"ķ":{"ha":933,"x_min":136,"x_max":865,"o":"m 491 -444 q 478 -441 484 -444 q 449 -401 449 -431 q 469 -336 449 -394 l 467 -336 q 467 -336 467 -336 q 377 -299 414 -336 q 340 -210 340 -262 q 377 -121 340 -158 q 467 -84 414 -84 q 555 -121 518 -84 q 592 -210 592 -158 q 581 -263 592 -239 l 531 -414 q 491 -444 517 -444 m 467 -252 q 496 -240 484 -252 q 509 -210 509 -228 q 496 -181 509 -193 q 467 -168 484 -168 q 437 -181 449 -168 q 425 -210 425 -193 q 437 -240 425 -228 q 467 -252 449 -252 m 178 0 q 148 12 160 0 q 136 42 136 24 l 136 930 q 148 960 136 947 q 178 972 160 972 q 207 960 195 972 q 220 930 220 947 l 220 42 q 207 12 220 24 q 178 0 195 0 m 823 1 q 791 15 805 1 l 411 458 q 401 486 401 471 q 411 513 401 500 l 791 958 q 823 972 805 972 q 850 962 838 972 q 865 930 865 949 q 855 903 865 916 l 498 486 l 855 70 q 865 43 865 58 q 865 32 865 41 q 851 12 864 22 q 823 1 838 1 z "},"ĺ":{"ha":739,"x_min":136,"x_max":671,"o":"m 629 0 l 178 0 q 148 12 160 0 q 136 42 136 24 l 136 930 q 148 960 136 947 q 178 972 160 972 q 207 960 195 972 q 220 930 220 947 l 220 84 l 629 84 q 659 72 647 84 q 671 42 671 59 q 659 12 671 24 q 629 0 647 0 m 178 1050 q 162 1053 170 1050 q 136 1092 136 1065 q 138 1107 136 1099 l 210 1286 q 249 1312 221 1312 q 264 1310 257 1312 q 291 1271 291 1299 q 288 1255 291 1263 l 216 1076 q 178 1050 203 1050 z "},"ļ":{"ha":739,"x_min":136,"x_max":671,"o":"m 629 0 l 178 0 q 148 12 160 0 q 136 42 136 24 l 136 930 q 148 960 136 947 q 178 972 160 972 q 207 960 195 972 q 220 930 220 947 l 220 84 l 629 84 q 659 72 647 84 q 671 42 671 59 q 659 12 671 24 q 629 0 647 0 m 428 -444 q 415 -442 422 -444 q 386 -402 386 -431 q 406 -336 386 -395 l 404 -337 q 314 -300 351 -337 q 277 -211 277 -263 q 314 -122 277 -159 q 404 -85 351 -85 q 493 -122 456 -85 q 530 -211 530 -159 q 517 -264 530 -239 l 468 -415 q 428 -444 454 -444 m 404 -253 q 433 -240 421 -253 q 446 -211 446 -228 q 433 -181 446 -193 q 404 -169 421 -169 q 374 -181 386 -169 q 361 -211 361 -193 q 374 -240 361 -228 q 404 -253 386 -253 z "},"ľ":{"ha":739,"x_min":136,"x_max":671,"o":"m 629 0 l 178 0 q 148 12 160 0 q 136 42 136 24 l 136 930 q 148 960 136 947 q 178 972 160 972 q 207 960 195 972 q 220 930 220 947 l 220 84 l 629 84 q 659 72 647 84 q 671 42 671 59 q 659 12 671 24 q 629 0 647 0 m 570 613 q 533 636 545 613 q 528 654 528 645 q 539 694 528 661 q 547 721 547 719 q 457 758 494 721 q 420 846 420 794 q 457 936 420 899 q 545 972 494 972 q 634 936 597 972 q 671 846 671 899 q 660 793 671 818 l 610 642 q 570 613 597 613 m 545 804 q 575 817 563 804 q 587 846 587 829 q 575 876 587 864 q 545 888 563 888 q 516 876 528 888 q 504 846 504 864 q 516 817 504 829 q 545 804 528 804 z "},"ŀ":{"ha":739,"x_min":136,"x_max":671,"o":"m 629 0 l 178 0 q 148 12 160 0 q 136 42 136 24 l 136 930 q 148 960 136 947 q 178 972 160 972 q 207 960 195 972 q 220 930 220 947 l 220 84 l 629 84 q 659 72 647 84 q 671 42 671 59 q 659 12 671 24 q 629 0 647 0 m 489 554 l 429 554 q 409 562 417 554 q 401 582 401 570 l 401 642 q 409 662 401 654 q 429 669 417 669 l 489 669 q 508 662 500 669 q 516 642 516 654 l 516 582 q 508 562 516 570 q 489 554 500 554 z "},"ł":{"ha":765,"x_min":41,"x_max":697,"o":"m 655 0 l 203 0 q 174 12 186 0 q 161 42 161 24 l 161 291 l 111 243 q 83 232 98 232 q 53 245 66 232 q 41 273 41 258 q 41 283 41 275 q 54 304 41 292 l 161 406 l 161 930 q 174 960 161 947 q 203 972 186 972 q 233 960 221 972 q 245 930 245 947 l 245 484 l 456 682 q 484 693 469 693 l 494 693 q 516 680 503 693 q 527 652 527 667 q 527 642 527 651 q 514 621 526 633 l 245 369 l 245 84 l 655 84 q 685 72 673 84 q 697 42 697 59 q 685 12 697 24 q 655 0 673 0 z "},"ń":{"ha":974,"x_min":136,"x_max":838,"o":"m 796 0 q 762 18 776 0 l 220 797 l 220 42 q 207 12 220 24 q 178 0 195 0 q 148 12 160 0 q 136 42 136 24 l 136 930 q 165 970 136 958 q 178 972 172 972 q 212 954 198 972 l 754 176 l 754 930 q 767 960 754 947 q 796 972 779 972 q 826 960 814 972 q 838 930 838 947 l 838 42 q 809 2 838 14 q 796 0 802 0 m 487 1050 q 471 1053 479 1050 q 448 1076 455 1060 q 445 1091 445 1083 q 448 1107 445 1099 l 519 1286 q 558 1313 532 1313 q 597 1287 587 1313 q 600 1271 600 1279 q 597 1255 600 1263 l 526 1076 q 487 1050 512 1050 z "},"ņ":{"ha":974,"x_min":136,"x_max":838,"o":"m 796 1 q 762 18 776 1 l 220 797 l 220 42 q 207 13 220 25 q 178 1 195 1 q 148 13 160 1 q 136 42 136 25 l 136 930 q 165 970 136 958 q 178 972 172 972 q 212 955 199 972 l 754 176 l 754 930 q 767 960 754 948 q 796 972 779 972 q 826 960 814 972 q 838 930 838 948 l 838 42 q 809 2 838 15 q 796 1 802 1 m 528 -450 q 515 -448 522 -450 q 486 -408 486 -437 q 506 -342 486 -400 l 505 -342 q 504 -342 505 -342 q 415 -306 452 -342 q 378 -216 378 -269 q 415 -127 378 -164 q 504 -90 452 -90 q 592 -127 555 -90 q 629 -216 629 -164 q 618 -269 629 -245 l 568 -420 q 528 -450 555 -450 m 504 -258 q 533 -245 521 -258 q 546 -216 546 -233 q 533 -186 546 -199 q 504 -174 521 -174 q 474 -186 486 -174 q 462 -216 462 -199 q 474 -245 462 -233 q 504 -258 486 -258 z "},"ň":{"ha":974,"x_min":136,"x_max":838,"o":"m 796 0 q 762 18 776 0 l 220 797 l 220 42 q 207 12 220 24 q 178 0 195 0 q 148 12 160 0 q 136 42 136 24 l 136 930 q 165 970 136 958 q 178 972 172 972 q 212 954 198 972 l 754 176 l 754 930 q 767 960 754 947 q 796 972 779 972 q 826 960 814 972 q 838 930 838 947 l 838 42 q 809 2 838 14 q 796 0 802 0 m 487 1088 q 457 1101 471 1088 l 355 1202 q 342 1232 342 1215 q 355 1262 342 1249 q 385 1274 368 1274 q 414 1262 401 1274 l 487 1190 l 559 1262 q 589 1274 572 1274 q 619 1262 606 1274 q 631 1232 631 1249 q 619 1202 631 1215 l 517 1101 q 487 1088 503 1088 z "},"ŋ":{"ha":974,"x_min":136,"x_max":838,"o":"m 656 -252 q 625 -239 637 -252 q 613 -210 613 -227 q 625 -180 613 -193 q 656 -168 637 -168 q 725 -139 696 -168 q 754 -70 754 -110 l 754 28 l 220 797 l 220 42 q 207 12 220 24 q 178 0 195 0 q 148 12 160 0 q 136 42 136 24 l 136 930 q 165 970 136 958 q 178 972 172 972 q 212 954 198 972 l 754 176 l 754 930 q 767 960 754 948 q 796 972 779 972 q 826 960 814 972 q 838 930 838 948 l 838 -70 q 785 -198 838 -145 q 656 -252 732 -252 z "},"ō":{"ha":1107,"x_min":68,"x_max":1040,"o":"m 686 1097 l 421 1097 q 391 1109 404 1097 q 379 1139 379 1122 q 391 1169 379 1156 q 421 1181 404 1181 l 686 1181 q 716 1169 704 1181 q 728 1139 728 1156 q 716 1109 728 1122 q 686 1097 704 1097 m 554 0 q 798 66 688 0 q 974 242 908 132 q 1040 486 1040 352 q 974 730 1040 620 q 798 906 908 840 q 554 972 688 972 q 524 960 536 972 q 512 930 512 947 q 524 900 512 913 q 554 888 536 888 q 756 833 665 888 q 901 688 847 779 q 956 486 956 597 q 901 284 956 375 q 756 138 847 193 q 554 84 665 84 q 352 138 443 84 q 206 284 260 193 q 152 486 152 375 q 139 515 152 503 q 110 528 127 528 q 80 515 92 528 q 68 486 68 503 q 134 242 68 352 q 310 66 199 132 q 554 0 420 0 z "},"ŏ":{"ha":1107,"x_min":68,"x_max":1040,"o":"m 554 1088 q 452 1131 494 1088 q 410 1232 410 1173 q 422 1262 410 1249 q 452 1274 435 1274 q 481 1262 469 1274 q 494 1232 494 1249 q 511 1190 494 1207 q 554 1172 529 1172 q 596 1190 578 1172 q 614 1232 614 1207 q 626 1262 614 1249 q 656 1274 638 1274 q 685 1262 673 1274 q 698 1232 698 1249 q 655 1131 698 1173 q 554 1088 613 1088 m 554 0 q 798 66 688 0 q 974 242 908 132 q 1040 486 1040 352 q 974 730 1040 620 q 798 906 908 840 q 554 972 688 972 q 524 960 536 972 q 512 930 512 947 q 524 900 512 913 q 554 888 536 888 q 756 833 665 888 q 901 688 847 779 q 956 486 956 597 q 901 284 956 375 q 756 138 847 193 q 554 84 665 84 q 352 138 443 84 q 206 284 260 193 q 152 486 152 375 q 139 515 152 503 q 110 528 127 528 q 80 515 92 528 q 68 486 68 503 q 134 242 68 352 q 310 66 199 132 q 554 0 420 0 z "},"ő":{"ha":1107,"x_min":68,"x_max":1040,"o":"m 482 1050 q 467 1053 474 1050 q 440 1092 440 1065 q 443 1107 440 1099 l 515 1286 q 554 1312 526 1312 q 570 1310 562 1312 q 595 1271 595 1299 q 593 1255 595 1263 l 521 1076 q 482 1050 507 1050 m 680 1050 q 665 1053 673 1050 q 639 1091 639 1065 q 642 1107 639 1099 l 713 1286 q 752 1312 725 1312 q 768 1310 760 1312 q 794 1272 794 1299 q 791 1255 794 1263 l 720 1076 q 680 1050 705 1050 m 554 0 q 798 66 688 0 q 974 242 908 132 q 1040 486 1040 352 q 974 730 1040 620 q 798 906 908 840 q 554 972 688 972 q 524 960 536 972 q 512 930 512 947 q 524 900 512 913 q 554 888 536 888 q 756 833 665 888 q 901 688 847 779 q 956 486 956 597 q 901 284 956 375 q 756 138 847 193 q 554 84 665 84 q 352 138 443 84 q 206 284 260 193 q 152 486 152 375 q 139 515 152 503 q 110 528 127 528 q 80 515 92 528 q 68 486 68 503 q 134 242 68 352 q 310 66 199 132 q 554 0 420 0 z "},"œ":{"ha":1628,"x_min":68,"x_max":1560,"o":"m 1518 0 l 998 0 q 968 12 980 0 q 956 42 956 24 l 956 214 q 784 58 889 116 q 553 0 679 0 q 310 66 420 0 q 134 242 199 132 q 68 486 68 352 q 80 516 68 503 q 110 528 92 528 q 139 516 127 528 q 152 486 152 503 q 206 284 152 375 q 352 138 260 193 q 553 84 443 84 q 756 138 665 84 q 901 284 847 193 q 956 486 956 375 q 901 688 956 597 q 756 834 847 779 q 553 888 665 888 q 524 901 536 888 q 512 930 512 913 q 524 960 512 947 q 553 972 536 972 q 784 914 679 972 q 956 759 889 857 l 956 930 q 968 960 956 947 q 998 972 980 972 l 1518 972 q 1547 960 1535 972 q 1560 930 1560 947 q 1547 901 1560 913 q 1518 888 1535 888 l 1040 888 l 1040 528 l 1416 528 q 1446 516 1433 528 q 1458 486 1458 503 q 1446 456 1458 469 q 1416 444 1433 444 l 1040 444 l 1040 84 l 1518 84 q 1547 72 1535 84 q 1560 42 1560 59 q 1547 12 1560 24 q 1518 0 1535 0 z "},"ŕ":{"ha":821,"x_min":136,"x_max":739,"o":"m 397 1050 q 381 1053 389 1050 q 359 1076 365 1060 q 355 1092 355 1084 q 358 1107 355 1099 l 430 1286 q 468 1313 441 1313 q 507 1287 496 1313 q 511 1272 511 1280 q 507 1255 511 1264 l 436 1076 q 397 1050 422 1050 m 178 0 q 148 12 160 0 q 136 42 136 24 l 136 486 q 148 516 136 503 q 178 528 160 528 l 477 528 q 604 581 551 528 q 656 706 656 633 q 604 836 656 784 q 477 888 551 888 l 178 888 q 148 901 160 888 q 136 930 136 913 q 148 960 136 947 q 178 972 160 972 l 477 972 q 663 896 586 972 q 739 711 739 819 q 663 521 739 597 q 477 444 586 444 l 220 444 l 220 42 q 207 12 220 24 q 178 0 195 0 m 685 0 q 647 24 661 0 l 521 296 q 517 314 517 305 q 541 351 517 339 q 559 355 549 355 q 597 331 584 355 l 723 60 q 727 42 727 51 q 703 4 727 16 q 685 0 694 0 z "},"ŗ":{"ha":821,"x_min":136,"x_max":739,"o":"m 463 -450 q 449 -448 456 -450 q 420 -409 420 -437 q 431 -368 420 -402 q 439 -342 439 -344 l 437 -342 q 349 -306 386 -342 q 312 -216 312 -269 q 349 -127 312 -164 q 437 -90 386 -90 q 527 -127 490 -90 q 564 -216 564 -164 q 551 -269 564 -245 l 502 -420 q 463 -450 489 -450 m 437 -258 q 467 -246 455 -258 q 479 -216 479 -233 q 467 -186 479 -199 q 437 -174 455 -174 q 408 -186 420 -174 q 395 -216 395 -199 q 408 -246 395 -233 q 437 -258 420 -258 m 178 0 q 148 12 160 0 q 136 42 136 24 l 136 486 q 148 516 136 503 q 178 528 160 528 l 477 528 q 604 581 551 528 q 656 706 656 633 q 604 836 656 784 q 477 888 551 888 l 178 888 q 148 901 160 888 q 136 930 136 913 q 148 960 136 947 q 178 972 160 972 l 477 972 q 663 896 586 972 q 739 711 739 819 q 663 521 739 597 q 477 444 586 444 l 220 444 l 220 42 q 207 12 220 24 q 178 0 195 0 m 685 0 q 647 24 661 0 l 521 296 q 517 314 517 305 q 541 351 517 339 q 559 355 549 355 q 597 331 584 355 l 723 60 q 727 42 727 51 q 703 4 727 16 q 685 0 694 0 z "},"ř":{"ha":821,"x_min":136,"x_max":739,"o":"m 379 1088 q 349 1101 363 1088 l 247 1202 q 235 1232 235 1215 q 247 1262 235 1249 q 277 1274 260 1274 q 306 1262 293 1274 l 379 1190 l 452 1262 q 481 1274 465 1274 q 510 1262 498 1274 q 523 1234 523 1250 l 523 1224 q 511 1202 523 1215 l 408 1101 q 379 1088 395 1088 m 178 0 q 148 12 160 0 q 136 42 136 24 l 136 486 q 148 516 136 503 q 178 528 160 528 l 477 528 q 604 581 551 528 q 656 706 656 633 q 604 836 656 784 q 477 888 551 888 l 178 888 q 148 901 160 888 q 136 930 136 913 q 148 960 136 947 q 178 972 160 972 l 477 972 q 663 896 586 972 q 739 711 739 819 q 663 521 739 597 q 477 444 586 444 l 220 444 l 220 42 q 207 12 220 24 q 178 0 195 0 m 685 0 q 647 24 661 0 l 521 296 q 517 314 517 305 q 541 351 517 339 q 559 355 549 355 q 597 331 584 355 l 723 60 q 727 42 727 51 q 703 4 727 16 q 685 0 694 0 z "},"ś":{"ha":848,"x_min":122,"x_max":726,"o":"m 424 1050 q 408 1053 416 1050 q 382 1091 382 1064 q 385 1107 382 1099 l 456 1286 q 495 1313 469 1313 q 511 1310 503 1313 q 538 1272 538 1299 q 534 1255 538 1264 l 463 1076 q 424 1050 449 1050 m 424 0 q 394 12 407 0 q 382 42 382 24 q 394 72 382 59 q 424 84 407 84 q 578 137 514 84 q 642 264 642 189 q 615 365 642 330 q 538 417 589 399 q 414 449 487 435 q 313 472 364 458 q 219 512 262 486 q 149 586 176 539 q 122 708 122 633 q 211 895 122 817 q 424 972 299 972 q 454 960 441 972 q 466 930 466 947 q 454 901 466 913 q 424 888 441 888 q 270 836 334 888 q 206 708 206 783 q 232 612 206 645 q 308 561 258 578 q 430 531 358 544 q 532 508 480 522 q 627 466 583 493 q 699 390 671 438 q 726 264 726 342 q 637 77 726 155 q 424 0 549 0 z "},"ŝ":{"ha":848,"x_min":122,"x_max":726,"o":"m 526 1088 q 497 1101 511 1088 l 424 1173 l 351 1101 q 321 1088 338 1088 q 292 1101 304 1088 q 279 1131 279 1114 q 292 1160 279 1147 l 395 1262 q 424 1274 408 1274 q 454 1262 440 1274 l 556 1160 q 568 1131 568 1147 q 556 1101 568 1114 q 526 1088 543 1088 m 424 0 q 394 12 407 0 q 382 42 382 24 q 394 72 382 59 q 424 84 407 84 q 578 137 514 84 q 642 264 642 189 q 615 365 642 330 q 538 417 589 399 q 414 449 487 435 q 313 472 364 458 q 219 512 262 486 q 149 586 176 539 q 122 708 122 633 q 211 895 122 817 q 424 972 299 972 q 454 960 441 972 q 466 930 466 947 q 454 901 466 913 q 424 888 441 888 q 270 836 334 888 q 206 708 206 783 q 232 612 206 645 q 308 561 258 578 q 430 531 358 544 q 532 508 480 522 q 627 466 583 493 q 699 390 671 438 q 726 264 726 342 q 637 77 726 155 q 424 0 549 0 z "},"ş":{"ha":848,"x_min":122,"x_max":726,"o":"m 471 -231 l 374 -231 q 359 -224 366 -231 q 353 -210 353 -218 q 359 -195 353 -201 q 374 -189 366 -189 l 471 -189 q 514 -175 494 -189 q 534 -132 534 -161 q 514 -90 534 -103 q 471 -77 494 -77 l 424 -77 q 410 -71 416 -77 q 404 -56 404 -64 l 404 6 q 382 42 382 19 q 394 72 382 60 q 424 84 407 84 q 578 137 514 84 q 642 264 642 190 q 615 366 642 331 q 538 418 589 400 q 414 449 487 436 q 313 472 364 458 q 219 513 262 486 q 149 586 176 540 q 122 709 122 633 q 211 895 122 818 q 424 972 299 972 q 454 960 441 972 q 466 930 466 948 q 454 901 466 913 q 424 889 441 889 q 270 836 334 889 q 206 709 206 783 q 232 612 206 646 q 308 562 258 579 q 430 532 358 545 q 532 508 480 522 q 627 466 583 494 q 699 391 671 439 q 726 264 726 342 q 646 85 726 160 q 445 1 566 11 l 445 -35 l 471 -35 q 547 -62 517 -35 q 576 -132 576 -90 q 547 -203 576 -176 q 471 -231 517 -231 z "},"š":{"ha":848,"x_min":122,"x_max":726,"o":"m 424 1088 q 395 1101 408 1088 l 292 1202 q 279 1232 279 1215 q 292 1262 279 1249 q 321 1274 304 1274 q 351 1262 338 1274 l 424 1190 l 497 1262 q 526 1274 510 1274 q 556 1262 543 1274 q 568 1232 568 1249 q 556 1202 568 1215 l 454 1101 q 424 1088 440 1088 m 424 0 q 394 12 407 0 q 382 42 382 24 q 394 72 382 59 q 424 84 407 84 q 578 137 514 84 q 642 264 642 189 q 615 365 642 330 q 538 417 589 399 q 414 449 487 435 q 313 472 364 458 q 219 512 262 486 q 149 586 176 539 q 122 708 122 633 q 211 895 122 817 q 424 972 299 972 q 454 960 441 972 q 466 930 466 947 q 454 901 466 913 q 424 888 441 888 q 270 836 334 888 q 206 708 206 783 q 232 612 206 645 q 308 561 258 578 q 430 531 358 544 q 532 508 480 522 q 627 466 583 493 q 699 390 671 438 q 726 264 726 342 q 637 77 726 155 q 424 0 549 0 z "},"ţ":{"ha":878,"x_min":68,"x_max":591,"o":"m 486 -231 l 389 -231 q 374 -224 380 -231 q 368 -210 368 -218 q 374 -195 368 -201 q 389 -189 380 -189 l 486 -189 q 529 -175 509 -189 q 549 -132 549 -161 q 529 -90 549 -103 q 486 -77 509 -77 l 439 -77 q 424 -71 430 -77 q 418 -56 418 -64 l 418 6 q 397 42 397 19 l 397 888 l 110 888 q 80 901 92 888 q 68 930 68 913 q 80 960 68 947 q 110 972 92 972 l 439 972 q 469 960 456 972 q 481 930 481 947 l 481 42 q 460 6 481 19 l 460 -35 l 486 -35 q 562 -62 532 -35 q 591 -132 591 -90 q 562 -203 591 -176 q 486 -231 532 -231 z "},"ť":{"ha":878,"x_min":68,"x_max":583,"o":"m 439 1088 q 410 1101 423 1088 l 307 1202 q 295 1234 295 1215 q 307 1262 295 1249 q 336 1274 319 1274 q 366 1262 353 1274 l 439 1190 l 512 1262 q 541 1274 525 1274 q 571 1261 558 1274 q 583 1232 583 1249 q 571 1202 583 1215 l 469 1101 q 439 1088 455 1088 m 439 0 q 409 12 422 0 q 397 42 397 24 l 397 888 l 110 888 q 80 900 92 888 q 68 930 68 913 q 80 960 68 947 q 110 972 92 972 l 439 972 q 469 960 456 972 q 481 930 481 947 l 481 42 q 469 12 481 24 q 439 0 456 0 z "},"ŧ":{"ha":878,"x_min":68,"x_max":669,"o":"m 439 0 q 409 12 422 0 q 397 42 397 24 l 397 444 l 251 444 q 221 456 233 444 q 209 486 209 469 q 221 515 209 503 q 251 528 233 528 l 397 528 l 397 888 l 110 888 q 80 900 92 888 q 68 930 68 913 q 80 960 68 947 q 110 972 92 972 l 439 972 q 469 960 456 972 q 481 930 481 947 l 481 528 l 627 528 q 657 515 644 528 q 669 486 669 503 q 657 456 669 469 q 627 444 644 444 l 481 444 l 481 42 q 469 12 481 24 q 439 0 456 0 z "},"ũ":{"ha":869,"x_min":109,"x_max":760,"o":"m 437 0 q 203 95 298 0 q 109 323 109 189 l 109 930 q 121 960 109 947 q 151 972 133 972 q 180 960 168 972 q 193 930 193 947 l 193 323 q 262 154 193 224 q 431 84 332 84 q 606 154 536 84 q 676 323 676 224 l 676 930 q 688 960 676 947 q 718 972 701 972 q 748 960 735 972 q 760 930 760 947 l 760 323 q 665 95 760 189 q 437 0 570 0 m 515 1075 q 460 1087 486 1075 q 415 1113 435 1100 q 366 1137 379 1136 q 337 1115 351 1137 q 303 1097 323 1097 q 279 1105 290 1097 q 261 1139 261 1119 q 269 1164 261 1152 q 366 1221 311 1221 l 375 1220 q 459 1184 422 1211 q 514 1159 498 1159 q 536 1170 526 1159 q 565 1181 549 1181 q 575 1181 566 1181 q 595 1168 583 1181 q 607 1140 607 1156 q 607 1130 607 1139 q 594 1109 606 1121 q 515 1075 553 1075 z "},"ū":{"ha":869,"x_min":109,"x_max":760,"o":"m 437 0 q 203 95 298 0 q 109 323 109 189 l 109 930 q 121 960 109 947 q 151 972 133 972 q 180 960 168 972 q 193 930 193 947 l 193 323 q 262 154 193 224 q 431 84 332 84 q 606 154 536 84 q 676 323 676 224 l 676 930 q 688 960 676 947 q 718 972 701 972 q 748 960 735 972 q 760 930 760 947 l 760 323 q 665 95 760 189 q 437 0 570 0 m 567 1097 l 302 1097 q 272 1109 284 1097 q 260 1139 260 1122 q 272 1169 260 1157 q 302 1181 284 1181 l 567 1181 q 596 1169 584 1181 q 609 1139 609 1157 q 596 1109 609 1122 q 567 1097 584 1097 z "},"ŭ":{"ha":869,"x_min":109,"x_max":760,"o":"m 437 0 q 203 95 298 0 q 109 323 109 189 l 109 930 q 121 960 109 947 q 151 972 133 972 q 180 960 168 972 q 193 930 193 947 l 193 323 q 262 154 193 224 q 431 84 332 84 q 606 154 536 84 q 676 323 676 224 l 676 930 q 688 960 676 947 q 718 972 701 972 q 748 960 735 972 q 760 930 760 947 l 760 323 q 665 95 760 189 q 437 0 570 0 m 434 1088 q 333 1131 375 1088 q 290 1232 290 1173 q 302 1262 290 1250 q 332 1274 315 1274 q 362 1262 350 1274 q 374 1232 374 1250 q 392 1190 374 1208 q 434 1173 410 1173 q 477 1190 459 1173 q 494 1232 494 1208 q 507 1262 494 1250 q 536 1274 519 1274 q 566 1262 553 1274 q 578 1232 578 1250 q 536 1131 578 1173 q 434 1088 494 1088 z "},"ů":{"ha":869,"x_min":109,"x_max":760,"o":"m 437 0 q 203 95 298 0 q 109 323 109 189 l 109 930 q 121 960 109 947 q 151 972 133 972 q 180 960 168 972 q 193 930 193 947 l 193 323 q 262 154 193 224 q 431 84 332 84 q 606 154 536 84 q 676 323 676 224 l 676 930 q 688 960 676 947 q 718 972 701 972 q 748 960 735 972 q 760 930 760 947 l 760 323 q 665 95 760 189 q 437 0 570 0 m 434 1034 q 360 1065 391 1034 q 330 1139 330 1096 q 360 1214 330 1183 q 434 1244 391 1244 q 508 1214 477 1244 q 539 1139 539 1183 q 508 1065 539 1096 q 434 1034 477 1034 m 434 1076 q 479 1095 460 1076 q 497 1139 497 1114 q 479 1184 497 1165 q 434 1202 460 1202 q 390 1184 408 1202 q 372 1139 372 1165 q 390 1095 372 1114 q 434 1076 408 1076 z "},"ű":{"ha":869,"x_min":109,"x_max":760,"o":"m 437 0 q 203 95 298 0 q 109 323 109 189 l 109 930 q 121 960 109 947 q 151 972 133 972 q 180 960 168 972 q 193 930 193 947 l 193 323 q 262 154 193 224 q 431 84 332 84 q 606 154 536 84 q 676 323 676 224 l 676 930 q 688 960 676 947 q 718 972 701 972 q 748 960 735 972 q 760 930 760 947 l 760 323 q 665 95 760 189 q 437 0 570 0 m 346 1050 q 330 1053 338 1050 q 307 1076 314 1060 q 304 1092 304 1084 q 307 1107 304 1099 l 378 1286 q 417 1313 391 1313 q 456 1287 446 1313 q 459 1271 459 1279 q 456 1255 459 1263 l 385 1076 q 346 1050 371 1050 m 544 1050 q 528 1053 536 1050 q 503 1091 503 1064 q 505 1107 503 1099 l 576 1286 q 615 1313 589 1313 q 631 1310 623 1313 q 658 1272 658 1299 q 654 1255 658 1264 l 583 1076 q 544 1050 569 1050 z "},"ų":{"ha":869,"x_min":109,"x_max":760,"o":"m 572 -150 l 531 -150 q 466 -123 493 -150 q 438 -57 438 -96 q 458 1 438 -27 q 437 0 448 0 q 203 95 298 0 q 109 323 109 189 l 109 930 q 121 960 109 948 q 151 972 133 972 q 180 960 168 972 q 193 930 193 948 l 193 323 q 262 154 193 224 q 431 84 332 84 q 606 154 536 84 q 676 323 676 224 l 676 930 q 688 960 676 948 q 718 972 701 972 q 748 960 735 972 q 760 930 760 948 l 760 323 q 712 153 760 229 q 584 36 663 77 l 524 -52 q 522 -57 522 -54 q 525 -63 522 -60 q 572 -66 528 -66 q 602 -78 590 -66 q 614 -108 614 -90 q 602 -137 614 -125 q 572 -150 590 -150 z "},"ŵ":{"ha":1278,"x_min":136,"x_max":1142,"o":"m 741 1088 q 711 1101 725 1088 l 639 1173 l 566 1101 q 536 1088 553 1088 q 507 1101 519 1088 q 494 1131 494 1114 q 507 1160 494 1147 l 609 1262 q 639 1274 623 1274 q 669 1262 655 1274 l 771 1160 q 783 1131 783 1147 q 771 1101 783 1114 q 741 1088 758 1088 m 1101 0 q 1126 9 1114 0 q 1142 42 1142 22 q 1133 68 1142 56 l 672 658 q 639 673 659 673 q 606 658 620 673 l 220 163 l 220 930 q 207 960 220 947 q 178 972 195 972 q 148 960 160 972 q 136 930 136 947 l 136 42 q 164 2 136 15 q 178 0 171 0 q 211 16 197 0 l 639 564 l 1067 16 q 1101 0 1080 0 z "},"ŷ":{"ha":817,"x_min":68,"x_max":749,"o":"m 511 1088 q 481 1101 495 1088 l 408 1173 l 336 1101 q 306 1088 323 1088 q 277 1101 290 1088 q 264 1131 264 1114 q 277 1160 264 1147 l 379 1262 q 408 1274 393 1274 q 438 1262 425 1274 l 541 1160 q 553 1131 553 1147 q 541 1101 553 1114 q 511 1088 527 1088 m 408 444 q 374 463 388 444 l 75 907 q 68 930 68 918 q 86 965 68 952 q 111 972 98 972 q 124 970 114 972 q 144 954 134 968 l 408 562 l 673 954 q 707 972 686 972 q 731 965 719 972 q 749 931 749 952 q 742 907 749 919 l 444 463 q 408 444 429 444 m 408 0 q 379 12 391 0 q 367 42 367 24 l 367 311 q 379 340 367 328 q 408 353 391 353 q 438 340 426 353 q 450 311 450 328 l 450 42 q 438 12 450 24 q 408 0 426 0 z "},"ź":{"ha":834,"x_min":115,"x_max":720,"o":"m 677 0 l 157 0 q 121 21 135 0 q 115 42 115 32 q 121 63 115 53 l 604 888 l 157 888 q 127 901 140 888 q 115 930 115 913 q 127 960 115 947 q 157 972 140 972 l 677 972 q 713 951 700 972 q 720 930 720 941 q 713 909 720 920 l 231 84 l 677 84 q 707 72 694 84 q 719 42 719 59 q 707 12 719 24 q 677 0 694 0 m 417 1050 q 401 1053 410 1050 q 376 1091 376 1064 q 378 1107 376 1099 l 450 1286 q 488 1313 462 1313 q 505 1310 496 1313 q 531 1272 531 1299 q 528 1255 531 1264 l 456 1076 q 417 1050 442 1050 z "},"ż":{"ha":834,"x_min":115,"x_max":720,"o":"m 677 0 l 157 0 q 121 21 135 0 q 115 42 115 32 q 121 63 115 53 l 604 888 l 157 888 q 127 901 140 888 q 115 930 115 913 q 127 960 115 947 q 157 972 140 972 l 677 972 q 713 951 700 972 q 720 930 720 941 q 713 909 720 920 l 231 84 l 677 84 q 707 72 694 84 q 719 42 719 59 q 707 12 719 24 q 677 0 694 0 m 448 1082 l 387 1082 q 368 1090 376 1082 q 359 1109 359 1098 l 359 1169 q 368 1189 359 1181 q 387 1197 376 1197 l 448 1197 q 467 1189 458 1197 q 475 1169 475 1181 l 475 1109 q 467 1090 475 1098 q 448 1082 458 1082 z "},"ž":{"ha":834,"x_min":115,"x_max":720,"o":"m 677 0 l 157 0 q 121 21 135 0 q 115 42 115 32 q 121 63 115 53 l 604 888 l 157 888 q 127 901 140 888 q 115 930 115 913 q 127 960 115 947 q 157 972 140 972 l 677 972 q 713 951 700 972 q 720 930 720 941 q 713 909 720 920 l 231 84 l 677 84 q 707 72 694 84 q 719 42 719 59 q 707 12 719 24 q 677 0 694 0 m 417 1088 q 388 1101 401 1088 l 286 1202 q 273 1232 273 1215 q 285 1262 273 1249 q 315 1274 298 1274 q 345 1262 332 1274 l 417 1190 l 490 1262 q 519 1274 503 1274 q 549 1262 536 1274 q 562 1232 562 1249 q 549 1202 562 1215 l 447 1101 q 417 1088 433 1088 z "},"ĸ":{"ha":933,"x_min":0,"x_max":730,"o":"m 42 0 l 42 0 l 42 0 q 12 12 24 0 q 0 42 0 24 l 0 930 q 12 960 0 947 q 42 972 24 972 q 72 960 59 972 q 84 930 84 947 l 84 42 q 72 12 84 24 q 42 0 59 0 m 688 1 l 688 1 l 688 1 q 656 15 669 1 l 275 458 q 265 486 265 471 q 275 513 265 500 l 656 958 q 688 972 669 972 q 715 962 703 972 q 730 930 730 949 q 720 903 730 916 l 363 486 l 720 70 q 730 43 730 58 q 729 32 730 41 q 715 12 728 22 q 688 1 703 1 z "},"ŉ":{"ha":1231,"x_min":68,"x_max":1095,"o":"m 1053 1 q 1019 18 1033 1 l 477 797 l 477 42 q 464 13 477 25 q 435 1 452 1 q 405 13 417 1 q 393 42 393 25 l 393 930 q 422 970 393 958 q 435 972 429 972 q 469 955 456 972 l 1011 176 l 1011 930 q 1024 960 1011 948 q 1053 972 1036 972 q 1083 960 1071 972 q 1095 930 1095 948 l 1095 42 q 1066 2 1095 15 q 1053 1 1059 1 m 218 613 q 205 615 212 613 q 176 655 176 625 q 196 721 176 663 l 195 721 q 194 720 195 720 q 105 757 142 720 q 68 846 68 794 q 105 936 68 899 q 194 972 142 972 q 282 936 245 972 q 319 846 319 899 q 308 793 319 818 l 258 642 q 218 613 245 613 m 194 804 q 223 817 211 804 q 236 846 236 829 q 223 876 236 863 q 194 888 211 888 q 164 876 176 888 q 152 846 152 863 q 164 817 152 829 q 194 804 176 804 z "}}}
